<?xml version="1.0" standalone="no"?>
<!DOCTYPE svg PUBLIC "-//W3C//DTD SVG 20010904//EN"
 "http://www.w3.org/TR/2001/REC-SVG-20010904/DTD/svg10.dtd">
<svg version="1.0" xmlns="http://www.w3.org/2000/svg"
 width="188.000000pt" height="268.000000pt" viewBox="0 0 188.000000 268.000000"
 preserveAspectRatio="xMidYMid meet">

<g transform="translate(0.000000,268.000000) scale(0.100000,-0.100000)"
fill="#000000" stroke="none">
<path d="M0 1340 l0 -1340 940 0 940 0 0 1340 0 1340 -940 0 -940 0 0 -1340z
m144 1198 c-4 -6 -2 -8 4 -4 6 3 13 2 17 -4 3 -5 -1 -10 -9 -10 -19 0 -20 -13
-6 -41 7 -13 7 -19 0 -19 -5 0 -10 6 -11 13 0 10 -2 10 -6 0 -10 -27 -21 -11
-17 25 8 53 12 64 24 57 6 -4 7 -11 4 -17z m86 -28 c0 -5 -2 -10 -4 -10 -3 0
-8 5 -11 10 -3 6 -1 10 4 10 6 0 11 -4 11 -10z m466 -17 c-10 -10 -19 5 -10
18 6 11 8 11 12 0 2 -7 1 -15 -2 -18z m324 7 c0 -5 -2 -10 -4 -10 -3 0 -8 5
-11 10 -3 6 -1 10 4 10 6 0 11 -4 11 -10z m40 6 c0 -3 -4 -8 -10 -11 -5 -3
-10 -1 -10 4 0 6 5 11 10 11 6 0 10 -2 10 -4z m-235 -116 c3 -6 -1 -7 -9 -4
-18 7 -21 14 -7 14 6 0 13 -4 16 -10z m-131 -57 c4 -9 1 -20 -6 -24 -7 -5 -14
-4 -16 1 -6 16 -32 11 -32 -6 0 -8 -4 -12 -10 -9 -5 3 -20 -1 -32 -9 -12 -9
-17 -16 -10 -16 19 0 14 -14 -13 -44 -23 -24 -25 -25 -25 -7 0 11 5 23 11 26
6 4 8 12 6 19 -10 24 61 85 99 85 12 1 25 -7 28 -16z m0 -108 c-4 -8 -10 -15
-15 -15 -5 0 -9 -9 -9 -21 0 -13 4 -18 12 -13 7 5 8 3 3 -6 -6 -10 -4 -12 8
-7 10 3 17 3 17 -2 0 -5 -14 -11 -30 -15 -17 -3 -42 -17 -55 -30 -14 -14 -27
-20 -30 -15 -4 5 -2 9 3 9 5 0 17 16 26 35 9 19 21 35 27 35 6 0 7 4 4 10 -3
5 -1 19 5 30 12 23 42 28 34 5z m321 -106 c11 -17 2 -18 -19 -3 -17 12 -17 14
-4 14 9 0 20 -5 23 -11z m-7 -46 c22 -57 22 -70 4 -93 -16 -20 -19 -20 -31 -6
-13 16 -8 36 10 36 6 0 8 -4 4 -9 -3 -5 -1 -12 5 -16 19 -12 15 60 -6 93 -8
12 -10 22 -5 22 5 0 13 -12 19 -27z m-54 -63 c1 -15 7 -35 15 -44 11 -13 11
-16 -1 -16 -8 0 -19 5 -26 12 -15 15 -16 3 -2 -23 6 -10 18 -19 28 -19 13 0
14 -2 4 -9 -8 -4 -13 -11 -13 -15 3 -20 -1 -40 -6 -28 -4 10 -8 9 -17 -4 -10
-13 -15 -14 -21 -4 -6 9 -4 11 5 5 8 -5 11 -3 8 6 -3 8 -11 13 -17 11 -7 -1
-10 2 -6 8 3 5 -1 22 -9 37 -8 16 -15 24 -16 18 0 -5 -7 1 -16 13 -9 13 -25
22 -42 22 -19 0 -23 -3 -13 -9 17 -11 5 -32 -14 -25 -8 4 -12 10 -9 16 9 14
-37 49 -60 46 -24 -3 -34 -37 -15 -49 7 -4 11 -11 7 -14 -10 -10 -48 14 -48
30 0 17 -9 19 -30 5 -13 -8 -12 -10 3 -10 32 0 18 -18 -18 -22 -19 -2 -35 -1
-35 2 0 4 13 31 30 61 16 30 30 48 30 41 0 -7 -5 -22 -10 -32 -6 -12 -7 -21
-1 -25 6 -3 16 6 24 21 9 17 17 23 21 15 4 -6 2 -11 -4 -11 -6 0 -8 -5 -4 -12
5 -8 13 -4 26 11 10 13 16 26 13 31 -2 4 6 6 18 5 31 -2 87 -25 87 -36 0 -5 5
-9 10 -9 6 0 10 9 10 19 0 14 5 18 20 14 12 -3 20 -2 18 3 -2 5 3 16 11 25 13
13 17 12 39 -10 13 -13 25 -37 26 -51z m3 74 c-3 -3 -12 -4 -19 -1 -8 3 -5 6
6 6 11 1 17 -2 13 -5z m86 -139 c-3 -9 -8 -14 -10 -11 -3 3 -2 9 2 15 9 16 15
13 8 -4z m-4 -28 c-31 -22 -59 -35 -59 -27 0 6 10 15 23 20 21 8 45 13 36 7z
m-391 -43 c-3 -14 -5 -12 -10 9 -3 19 -2 25 4 19 6 -6 8 -18 6 -28z m176 -8
c-8 -21 -21 -20 -34 3 -13 26 -13 29 8 33 21 5 34 -14 26 -36z m-84 -56 c0 -6
-4 -10 -10 -10 -5 0 -10 -7 -10 -16 0 -9 -9 -18 -21 -21 -14 -4 -19 -12 -16
-24 3 -11 1 -19 -4 -19 -5 0 -9 14 -9 30 0 23 6 33 25 40 28 11 31 20 13 39
-11 11 -9 11 10 2 12 -6 22 -16 22 -21z m-60 16 c0 -3 -4 -8 -10 -11 -5 -3
-10 -1 -10 4 0 6 5 11 10 11 6 0 10 -2 10 -4z m257 -21 c0 -8 -4 -12 -9 -9 -5
3 -6 10 -3 15 9 13 12 11 12 -6z m368 -38 c4 -12 9 -30 11 -39 3 -10 1 -18 -5
-18 -6 0 -11 7 -11 16 0 8 -5 12 -10 9 -8 -5 -8 -11 -1 -19 6 -7 8 -22 4 -34
-3 -14 0 -24 9 -27 15 -6 20 -65 6 -65 -39 0 -43 1 -24 9 17 6 17 8 4 14 -19
7 -53 -27 -43 -43 4 -7 20 -10 35 -8 21 3 26 0 23 -11 -3 -10 -14 -16 -34 -15
-47 2 -51 3 -44 14 3 6 2 10 -4 10 -6 0 -8 6 -5 14 3 8 -3 23 -13 35 -29 31
-43 50 -43 55 0 3 23 3 51 0 39 -4 50 -2 46 8 -2 7 -13 13 -25 12 -13 0 -18 4
-15 13 7 17 18 16 37 -2 18 -19 26 -19 26 -1 0 20 -17 29 -54 28 -22 -1 -26 2
-16 8 8 5 16 22 16 37 2 38 2 37 18 24 12 -10 13 -8 9 10 -6 21 -5 21 20 4 14
-9 29 -27 32 -38z m15 -81 c0 -3 -4 -8 -10 -11 -5 -3 -10 -1 -10 4 0 6 5 11
10 11 6 0 10 -2 10 -4z m-80 -171 c10 -12 10 -15 -4 -15 -9 0 -16 7 -16 15 0
8 2 15 4 15 2 0 9 -7 16 -15z m57 -11 c-3 -3 -12 -4 -19 -1 -8 3 -5 6 6 6 11
1 17 -2 13 -5z m-340 -46 c-3 -7 -5 -2 -5 12 0 14 2 19 5 13 2 -7 2 -19 0 -25z
m325 7 c-3 -11 -7 -14 -9 -8 -3 7 -11 9 -19 6 -8 -3 -14 1 -14 10 0 9 9 14 23
13 19 -1 23 -5 19 -21z m-228 -11 c29 -20 38 -23 33 -10 -4 9 -4 16 -1 16 9 0
34 -28 34 -38 0 -5 14 -13 31 -18 45 -13 55 -33 36 -75 -8 -19 -18 -41 -20
-49 -4 -12 -6 -12 -6 2 -1 9 3 27 8 40 9 23 7 24 -32 28 -84 7 -190 0 -203
-13 -11 -11 -44 -8 -44 3 0 6 9 10 20 10 16 0 19 5 14 30 -5 24 -3 30 10 30 9
0 19 6 22 14 3 8 15 11 32 8 21 -3 25 -2 15 8 -11 12 -7 40 6 40 3 0 24 -12
45 -26z m-332 -53 l26 -28 -24 0 c-13 0 -27 3 -30 8 -7 13 -54 11 -54 -2 0 -5
-4 -7 -10 -4 -5 3 -10 1 -10 -5 0 -7 -6 -8 -19 0 -11 5 -32 10 -47 10 -27 0
-27 0 -8 18 14 13 30 17 56 14 20 -2 39 1 42 7 13 20 52 11 78 -18z m38 -61
c0 -6 0 -13 -1 -16 0 -4 5 -10 12 -14 6 -4 14 -31 17 -60 3 -34 8 -47 13 -38
6 9 9 7 9 -9 0 -25 15 -31 23 -10 2 6 8 9 12 5 12 -11 -3 -39 -24 -45 -13 -3
-20 -17 -25 -50 -10 -77 -9 -85 13 -73 11 5 28 10 38 9 12 0 14 -2 4 -6 -11
-5 -11 -7 0 -14 10 -6 9 -9 -6 -14 -11 -4 -31 -12 -45 -19 -26 -14 -54 -11
-44 5 7 13 3 12 -44 -11 -49 -24 -70 -26 -53 -7 6 8 9 16 6 19 -5 5 6 11 78
41 23 10 37 23 37 34 0 11 -3 14 -8 7 -11 -18 -48 -34 -76 -34 -29 0 -64 30
-58 48 2 7 -2 12 -10 12 -7 0 -5 5 7 12 18 11 17 12 -15 24 l-35 12 48 1 c29
1 46 5 42 11 -3 6 -17 10 -30 10 -15 0 -29 9 -36 22 -10 18 -9 20 6 14 13 -5
16 -2 11 9 -4 13 -2 14 14 5 16 -9 20 -8 20 5 0 13 -5 16 -25 15 -16 -1 -36
32 -29 48 4 9 6 25 5 35 -1 9 2 17 7 17 12 0 24 -29 17 -39 -4 -7 57 -42 82
-47 26 -5 23 17 -4 42 l-28 25 26 -4 c16 -2 26 1 26 9 0 7 -4 11 -8 8 -4 -2
-10 0 -14 6 -3 5 -18 11 -33 11 -23 1 -22 3 8 8 36 7 70 -2 70 -19z m-211 6
c-2 -2 -15 -9 -29 -16 -23 -12 -24 -12 -11 3 7 10 20 17 29 17 8 0 13 -2 11
-4z m-74 -147 c0 -21 -3 -39 -7 -39 -5 0 -8 21 -8 47 0 25 3 43 7 39 4 -4 8
-25 8 -47z m355 47 c0 -3 -4 -8 -10 -11 -5 -3 -10 -1 -10 4 0 6 5 11 10 11 6
0 10 -2 10 -4z m-281 -93 c-24 -27 -46 -49 -50 -51 -13 -6 -21 19 -14 46 4 18
9 22 14 13 9 -14 44 -2 41 14 -1 8 42 34 49 29 2 -2 -16 -25 -40 -51z m762 27
c19 -11 56 -70 43 -70 -4 0 -4 -3 -1 -7 4 -3 14 2 22 13 15 19 15 19 30 -1 9
-11 13 -26 10 -33 -3 -10 0 -12 10 -8 8 3 15 1 15 -4 0 -13 -32 -28 -47 -23
-7 3 -13 0 -13 -6 0 -10 13 -15 31 -13 7 1 -14 -101 -26 -131 -4 -10 -14 -16
-22 -13 -11 5 -13 1 -8 -15 5 -15 4 -19 -4 -15 -6 4 -11 2 -11 -3 0 -6 -7 -11
-16 -11 -11 0 -15 -6 -11 -20 4 -17 2 -18 -14 -9 -10 5 -19 16 -19 24 0 8 -7
15 -15 15 -32 0 -13 20 25 26 22 4 40 10 40 14 0 5 -24 24 -54 44 -45 30 -75
63 -64 71 2 1 14 9 26 17 l24 16 -21 11 c-22 12 -28 36 -11 46 5 3 18 -3 30
-15 11 -11 29 -20 41 -20 11 0 17 -4 14 -10 -3 -6 1 -7 9 -4 10 4 16 1 16 -7
0 -7 3 -9 6 -6 4 4 1 13 -6 22 -7 8 -10 22 -6 30 3 9 -4 25 -17 38 -12 12 -21
26 -19 31 1 4 -3 14 -9 22 -14 17 -5 18 22 4z m-860 -35 c5 4 9 1 9 -5 0 -17
-25 -6 -26 11 -1 9 1 10 3 1 3 -7 9 -10 14 -7z m1016 -57 c-3 -8 -6 -5 -6 6
-1 11 2 17 5 13 3 -3 4 -12 1 -19z m-509 -30 c-21 -67 -40 -81 -61 -47 -12 19
18 60 38 53 7 -3 15 2 18 10 12 30 15 16 5 -16z m499 -10 c-3 -8 -6 -5 -6 6
-1 11 2 17 5 13 3 -3 4 -12 1 -19z m-302 -28 c3 -6 -1 -7 -9 -4 -18 7 -21 14
-7 14 6 0 13 -4 16 -10z m-185 -24 c0 6 7 11 15 11 9 0 14 -6 11 -13 -3 -8 -1
-16 4 -19 6 -4 10 4 10 16 0 28 11 17 25 -24 11 -36 32 -39 27 -4 l-3 22 20
-23 c14 -15 21 -18 25 -10 3 7 5 -5 4 -27 -2 -48 -8 -62 -18 -44 -7 10 -11 10
-24 0 -9 -8 -16 -20 -16 -27 0 -7 -14 -21 -30 -29 -28 -14 -32 -14 -46 0 -8 8
-12 15 -7 15 5 0 15 -6 22 -12 10 -11 11 -9 5 6 -6 16 -4 18 9 13 11 -4 17 -1
17 8 0 8 5 14 11 13 6 -2 14 3 16 10 3 8 -1 10 -13 5 -13 -5 -16 -3 -11 9 4
11 -1 18 -14 21 -14 4 -17 10 -12 24 6 16 5 16 -10 4 -15 -12 -17 -11 -17 7 0
12 -4 24 -10 27 -5 3 -10 -1 -10 -9 0 -19 1 -19 -39 -5 -29 10 -43 29 -21 29
6 0 10 -4 10 -10 0 -18 25 -11 39 11 10 18 15 19 22 8 5 -8 9 -9 9 -3z m-215
-25 c3 -6 -3 -9 -14 -8 -11 0 -17 5 -15 9 7 11 22 10 29 -1z m-51 -19 c-7 -4
-13 -16 -15 -26 -5 -26 -26 -32 -31 -9 -2 10 5 23 17 30 22 12 47 17 29 5z
m281 -72 c-3 -5 -10 -10 -16 -10 -5 0 -9 5 -9 10 0 6 7 10 16 10 8 0 12 -4 9
-10z m-50 -72 c7 -8 6 -9 -2 -4 -10 5 -13 -4 -13 -37 0 -43 0 -44 32 -39 30 5
32 3 19 -12 -7 -9 -22 -16 -32 -16 -16 0 -19 -8 -19 -59 0 -39 -5 -63 -14 -70
-20 -17 -36 14 -29 53 l6 29 -47 -6 c-25 -4 -57 -9 -70 -13 -18 -4 -27 -1 -35
14 -10 19 -9 20 22 15 53 -8 69 16 58 90 0 4 -8 7 -17 7 -13 0 -14 -3 -4 -15
7 -8 10 -22 6 -30 -3 -9 -2 -13 4 -10 14 9 12 -9 -2 -23 -19 -19 -28 -14 -28
13 0 14 -7 28 -16 32 -8 3 -13 11 -10 18 3 8 -2 16 -10 19 -27 10 -14 21 29
23 86 3 117 8 117 20 0 6 -6 14 -12 17 -7 4 3 4 22 1 19 -3 39 -10 45 -17z
m89 -20 c-5 -9 -2 -9 9 1 15 12 17 11 17 -3 0 -17 -26 -33 -37 -23 -6 7 3 37
12 37 4 0 3 -6 -1 -12z m331 2 c-3 -5 -11 -10 -16 -10 -6 0 -7 5 -4 10 3 6 11
10 16 10 6 0 7 -4 4 -10z m-304 -74 c0 -6 2 -19 4 -28 2 -12 -3 -18 -16 -18
-14 0 -19 7 -19 28 0 19 5 29 15 29 8 0 15 -5 16 -11z m54 -131 c1 -22 -6 -48
-14 -58 -12 -14 -12 -20 -3 -26 7 -4 10 -15 6 -24 -5 -15 -2 -16 17 -9 31 11
59 4 59 -13 0 -22 -15 -26 -108 -29 -48 -2 -94 -6 -102 -10 -11 -4 -23 3 -38
24 -17 23 -19 30 -8 30 8 0 18 -4 21 -10 3 -5 19 -10 36 -10 22 0 29 5 29 20
0 11 -5 20 -11 20 -6 0 -9 6 -6 14 3 8 3 16 0 19 -3 3 -7 26 -9 51 -2 33 0 44
9 40 7 -2 31 0 52 5 62 14 70 11 70 -34z m95 -262 c0 -24 -25 -9 -28 17 -3 21
-2 22 12 11 9 -7 16 -20 16 -28z m-340 14 c0 -7 -9 -13 -20 -14 -25 -2 -27 14
-2 20 9 3 18 5 20 6 1 0 2 -5 2 -12z m120 1 c0 -5 5 -6 10 -3 6 3 10 0 10 -8
0 -10 -9 -13 -31 -11 -17 2 -35 6 -40 9 -5 4 -9 2 -9 -3 0 -5 -11 -7 -25 -4
-14 2 -25 9 -25 14 0 6 7 8 15 5 8 -4 16 -3 19 1 6 11 76 11 76 0z m140 -8 c0
-19 -46 -25 -56 -8 -4 6 -10 5 -15 -3 -6 -11 -11 -11 -20 -2 -19 19 -3 29 45
29 37 1 46 -2 46 -16z m42 -4 c4 -17 1 -23 -9 -19 -14 6 -18 43 -4 43 5 0 11
-11 13 -24z m-412 6 c0 -5 -16 -9 -35 -10 -19 -1 -35 3 -35 8 0 6 16 10 35 10
19 0 35 -4 35 -8z m30 -2 c0 -5 -4 -10 -10 -10 -5 0 -10 5 -10 10 0 6 5 10 10
10 6 0 10 -4 10 -10z m30 -11 c0 -6 -4 -7 -10 -4 -5 3 -10 11 -10 16 0 6 5 7
10 4 6 -3 10 -11 10 -16z m40 -79 c0 -32 -13 -38 -34 -17 -20 20 -19 32 6 39
13 3 24 6 26 7 1 1 2 -12 2 -29z m43 -7 c-16 -12 -16 -13 0 -13 17 0 40 32 32
44 -3 3 0 2 7 -4 9 -7 7 -15 -7 -30 -18 -19 -54 -28 -56 -12 0 4 -2 15 -4 25
-2 13 1 17 11 13 8 -3 14 0 14 7 0 8 4 6 10 -3 7 -11 5 -19 -7 -27z m80 24
c28 17 47 10 47 -19 0 -18 -5 -28 -15 -28 -13 0 -19 12 -16 32 0 4 -6 5 -14 2
-8 -4 -15 -12 -15 -20 0 -8 -7 -14 -16 -14 -9 0 -13 5 -10 13 3 6 9 21 13 32
4 11 8 14 11 7 2 -7 9 -9 15 -5z m101 -10 c-3 -34 -4 -37 -18 -37 -17 0 -27
24 -19 45 8 21 38 14 37 -8z m-64 -79 c-30 -3 -59 -3 -65 0 -12 8 95 20 110
12 6 -2 -15 -8 -45 -12z m-227 5 c-13 -2 -33 -2 -45 0 -13 2 -3 4 22 4 25 0
35 -2 23 -4z m90 0 c-7 -2 -19 -2 -25 0 -7 3 -2 5 12 5 14 0 19 -2 13 -5z
m305 0 c-16 -2 -40 -2 -55 0 -16 2 -3 4 27 4 30 0 43 -2 28 -4z m-221 -29 c-3
-3 -12 -4 -19 -1 -8 3 -5 6 6 6 11 1 17 -2 13 -5z m453 2 c0 -3 -4 -8 -10 -11
-5 -3 -10 -1 -10 4 0 6 5 11 10 11 6 0 10 -2 10 -4z"/>
<path d="M646 2154 c-5 -14 -4 -15 9 -4 17 14 19 20 6 20 -5 0 -12 -7 -15 -16z"/>
<path d="M935 2010 c3 -5 8 -10 11 -10 2 0 4 5 4 10 0 6 -5 10 -11 10 -5 0 -7
-4 -4 -10z"/>
<path d="M1281 1774 c0 -11 3 -14 6 -6 3 7 2 16 -1 19 -3 4 -6 -2 -5 -13z"/>
<path d="M1240 1756 c0 -9 7 -16 16 -16 17 0 14 22 -4 28 -7 2 -12 -3 -12 -12z"/>
<path d="M1205 1630 c3 -5 11 -10 16 -10 6 0 7 5 4 10 -3 6 -11 10 -16 10 -6
0 -7 -4 -4 -10z"/>
<path d="M960 1410 c0 -5 5 -10 11 -10 5 0 7 5 4 10 -3 6 -8 10 -11 10 -2 0
-4 -4 -4 -10z"/>
<path d="M670 1253 c0 -16 39 -60 40 -45 0 7 -9 22 -20 34 -11 12 -20 17 -20
11z"/>
<path d="M1350 1071 c0 -5 5 -13 10 -16 6 -3 10 -2 10 4 0 5 -4 13 -10 16 -5
3 -10 2 -10 -4z"/>
<path d="M1310 1021 c0 -17 26 -24 47 -12 16 9 16 10 1 11 -9 0 -23 3 -32 6
-9 3 -16 1 -16 -5z"/>
<path d="M1325 970 c-18 -8 -17 -9 8 -9 15 -1 27 4 27 9 0 12 -8 12 -35 0z"/>
<path d="M910 1019 c0 -11 5 -17 10 -14 6 3 10 13 10 21 0 8 -4 14 -10 14 -5
0 -10 -9 -10 -21z"/>
<path d="M863 764 c-7 -3 -10 -11 -7 -18 3 -7 1 -24 -5 -37 -7 -21 -6 -25 10
-25 16 0 19 8 19 43 0 24 -1 43 -2 42 -2 0 -8 -3 -15 -5z"/>
<path d="M1013 584 c-9 -4 -9 -11 -1 -28 14 -31 48 -23 48 10 0 24 -17 30 -47
18z"/>
<path d="M1011 504 c19 -6 32 -41 18 -48 -5 -2 -4 -3 3 -2 7 1 13 13 13 27 0
18 -6 24 -25 26 -14 1 -18 -1 -9 -3z"/>
</g>
</svg>
