<?xml version="1.0" standalone="no"?>
<!DOCTYPE svg PUBLIC "-//W3C//DTD SVG 20010904//EN"
 "http://www.w3.org/TR/2001/REC-SVG-20010904/DTD/svg10.dtd">
<svg version="1.0" xmlns="http://www.w3.org/2000/svg"
 width="225.000000pt" height="225.000000pt" viewBox="0 0 225.000000 225.000000"
 preserveAspectRatio="xMidYMid meet">

<g transform="translate(0.000000,225.000000) scale(0.100000,-0.100000)"
fill="#000000" stroke="none">
<path d="M150 1637 l0 -465 24 -4 c14 -3 46 -1 73 4 26 4 79 13 117 18 39 5
73 15 77 22 6 9 14 9 31 1 25 -11 85 -6 94 8 3 5 -6 9 -20 9 -13 0 -37 5 -52
10 -21 8 -29 8 -36 -2 -5 -9 -8 -7 -8 7 0 18 7 20 67 20 l68 0 19 53 c17 47
22 53 42 48 12 -3 26 -2 29 4 11 18 33 11 70 -21 21 -19 35 -26 35 -18 0 19
57 22 64 4 9 -24 -3 -41 -39 -55 -38 -15 -44 -25 -19 -34 14 -5 14 -9 3 -24
-15 -19 12 1 63 47 15 13 31 22 34 18 4 -4 -6 -17 -22 -29 l-29 -23 60 -6 60
-6 -63 0 c-55 0 -69 -3 -95 -26 l-32 -26 138 0 c89 -1 136 -5 132 -11 -4 -6 8
-10 29 -10 20 0 36 5 36 10 0 6 14 10 30 10 23 0 30 -5 30 -19 0 -29 9 -31 79
-15 60 14 64 14 82 -4 10 -11 24 -22 31 -25 10 -4 10 -8 -2 -16 -10 -7 -97
-10 -255 -8 -132 1 -210 1 -172 -1 62 -3 86 -15 53 -28 -8 -3 -12 -13 -9 -25
6 -22 -10 -25 -30 -5 -11 11 -17 12 -26 3 -7 -7 -11 -7 -11 -1 0 6 -13 11 -30
12 -20 0 -30 -4 -30 -14 0 -8 -5 -12 -10 -9 -6 4 -8 11 -5 16 4 5 -11 9 -32 8
-30 0 -34 -2 -18 -9 16 -7 17 -9 3 -9 -9 -1 -19 3 -23 9 -8 12 -342 13 -350 0
-3 -6 -16 -10 -28 -9 -20 1 -20 2 3 9 16 5 -21 9 -100 10 -74 1 -117 5 -105 9
l20 8 -20 5 c-11 3 61 7 160 8 117 1 166 5 140 10 -22 4 -45 6 -52 3 -6 -2
-20 0 -30 5 -12 7 -25 7 -35 1 -10 -6 -19 -6 -23 0 -4 7 -15 7 -31 1 -14 -6
-54 -10 -90 -10 l-64 0 0 -245 c0 -157 4 -245 10 -245 6 0 10 5 10 10 0 7 6 7
20 0 11 -6 19 -16 17 -22 -1 -6 3 -12 10 -15 7 -3 9 3 6 16 -5 18 -1 21 26 21
17 0 31 4 31 9 0 5 -15 8 -32 7 -45 -4 -84 15 -80 36 3 17 39 35 49 24 4 -3
-1 -6 -10 -6 -9 0 -17 -5 -17 -11 0 -6 9 -8 20 -4 26 8 48 -4 29 -16 -10 -6
-4 -9 18 -9 26 0 30 3 26 20 -4 16 0 20 18 20 l24 0 -25 13 c-20 11 -26 11
-28 0 -5 -18 -29 -16 -36 2 -3 8 -1 14 5 12 6 -1 18 8 26 21 15 21 14 22 -6
22 -12 0 -19 -4 -16 -10 3 -6 -4 -10 -17 -10 -13 0 -34 -3 -48 -5 -16 -3 -10
2 15 14 l40 19 -30 4 c-26 4 -25 5 10 7 58 2 74 17 17 16 -26 0 -53 -4 -60 -8
-7 -5 -12 -4 -12 2 0 11 28 21 65 23 17 2 20 7 16 37 -4 33 -5 34 -11 11 -6
-26 -40 -35 -47 -14 -2 7 4 11 13 10 29 -2 27 22 -2 26 -15 2 -29 9 -32 16 -2
8 2 10 14 5 12 -4 15 -3 10 5 -5 8 -2 10 8 6 9 -3 16 -10 16 -15 0 -5 9 -9 20
-9 11 0 20 4 20 9 0 5 11 12 25 15 14 4 25 11 25 16 0 13 -13 13 -27 -1 -9 -9
-20 -9 -43 1 l-32 13 29 12 c23 10 30 10 39 -1 6 -8 14 -10 18 -6 4 4 13 0 19
-8 13 -17 110 -23 100 -7 -3 5 -24 7 -46 4 -25 -3 -36 -2 -30 4 14 14 271 21
279 8 4 -6 0 -15 -7 -20 -11 -7 -10 -9 4 -9 10 0 17 8 17 19 0 18 8 19 120 17
88 -1 121 2 125 12 2 6 16 12 30 12 17 0 29 7 35 23 5 12 9 17 9 11 1 -7 11
-14 23 -18 34 -8 11 -24 -42 -29 -29 -3 -23 -4 19 -3 64 1 65 1 73 34 5 17 14
32 20 32 6 0 8 3 5 6 -4 4 -13 1 -22 -6 -8 -7 -15 -9 -16 -4 0 5 -4 0 -9 -11
-7 -16 -9 -13 -9 16 -1 21 4 39 12 42 14 5 236 -1 290 -8 23 -3 37 -1 37 5 0
6 5 8 10 5 6 -3 10 -1 10 6 0 10 3 10 11 2 11 -11 7 -221 -5 -283 -2 -14 -5
-33 -5 -42 -1 -9 -9 -19 -18 -21 -17 -4 -17 -5 0 -6 9 0 17 -8 17 -16 0 -11
-11 -15 -36 -15 -28 0 -35 -4 -32 -17 2 -9 9 -18 16 -21 7 -2 11 2 10 9 -2 8
6 15 17 16 14 3 25 -6 37 -27 16 -29 16 -32 0 -50 -9 -11 -22 -20 -29 -20 -7
0 -10 -7 -7 -15 5 -12 11 -10 29 11 13 15 25 22 29 16 7 -12 -39 -52 -60 -52
-14 0 -39 64 -30 78 8 13 -28 11 -36 -2 -4 -6 -9 -4 -14 7 -3 9 -15 17 -26 17
-10 0 -17 4 -13 9 3 5 1 12 -5 16 -9 5 -15 -15 -11 -37 0 -5 -3 -8 -9 -8 -14
0 -12 16 4 49 13 24 13 28 0 28 -8 0 -14 -4 -14 -9 0 -5 -4 -6 -10 -3 -5 3
-10 1 -10 -5 0 -6 -5 -8 -12 -4 -7 4 -8 3 -4 -4 4 -6 13 -9 21 -5 11 4 13 1 9
-11 -9 -23 -18 -20 -34 9 -7 14 -19 25 -25 25 -13 0 -42 -29 -31 -31 3 -1 10
-2 15 -3 5 0 13 -4 17 -8 11 -12 -25 -9 -48 3 -15 8 -19 8 -14 0 4 -6 2 -11
-4 -11 -6 0 -13 7 -17 16 -5 14 -8 15 -17 3 -6 -8 -22 -20 -36 -26 -17 -8 -20
-12 -8 -12 9 -1 25 -4 35 -7 15 -5 15 -4 3 5 -13 9 -13 11 3 11 9 0 17 -7 17
-15 0 -9 6 -12 15 -9 8 4 13 9 11 13 -2 3 18 6 45 6 47 0 53 -4 50 -32 -1 -7
3 -13 9 -13 6 0 11 -10 10 -22 -3 -37 -1 -48 12 -48 6 0 8 3 4 7 -4 4 12 13
36 20 23 6 44 10 46 8 3 -2 -7 -7 -22 -11 -22 -5 -23 -8 -11 -20 16 -16 29
-19 20 -4 -9 15 36 29 61 19 12 -4 25 -5 29 -1 5 4 5 -3 2 -16 -3 -13 0 -22 6
-23 7 0 26 -2 42 -3 17 -2 40 1 51 5 14 5 29 2 43 -8 23 -16 41 -21 79 -22 12
-1 22 -5 22 -10 0 -10 -139 -25 -148 -17 -3 4 0 12 6 18 26 26 10 29 -22 4
-30 -23 -35 -24 -41 -9 -5 14 -8 15 -14 4 -10 -16 -61 -7 -61 10 0 6 -5 7 -10
4 -6 -3 -13 1 -16 9 -4 9 -17 16 -33 15 -14 0 -20 -3 -13 -6 6 -2 10 -9 6 -14
-3 -5 3 -9 13 -9 10 0 25 -5 33 -10 13 -8 13 -11 -2 -27 -11 -11 -18 -13 -18
-5 0 7 6 12 13 12 6 0 4 5 -7 11 -14 9 -20 8 -27 -2 -6 -10 -9 -11 -9 -1 0 6
-4 12 -10 12 -5 0 -7 -7 -4 -15 5 -11 2 -13 -11 -9 -15 6 -15 4 -4 -14 7 -12
22 -23 34 -25 11 -3 5 -3 -12 -1 -18 1 -33 -2 -33 -7 0 -5 42 -8 99 -7 55 1
98 5 95 9 -2 4 3 10 12 13 11 4 15 2 11 -8 -5 -12 26 -15 210 -16 161 0 219 3
231 12 12 10 14 10 8 0 -6 -9 23 -12 128 -12 l136 0 0 69 c0 52 -4 70 -15 75
-8 3 -15 11 -15 17 0 8 4 8 15 -1 13 -11 15 1 15 101 0 108 -1 112 -17 96 -16
-15 -16 -19 -3 -27 12 -7 12 -12 2 -22 -10 -10 -23 -6 -66 17 -30 16 -52 33
-50 36 2 4 0 11 -6 14 -6 4 -10 3 -9 -2 1 -4 1 -15 0 -23 -1 -12 -3 -12 -10
-2 -6 11 -10 10 -15 -3 -5 -14 -2 -16 15 -12 25 7 51 -2 44 -14 -3 -4 -20 -6
-37 -2 -24 5 -29 3 -23 -7 5 -9 4 -11 -3 -6 -7 4 -12 15 -12 24 0 13 -2 13
-14 -3 -14 -19 -15 -19 -27 7 -6 15 -15 25 -20 23 -4 -3 -10 -1 -14 5 -3 5
-11 10 -16 10 -6 0 -8 -4 -5 -9 8 -12 -86 -18 -121 -9 -34 9 -41 2 -20 -19 14
-14 20 -15 43 -4 23 10 29 10 36 -3 12 -21 78 -22 78 -1 0 13 3 13 20 3 11 -7
22 -19 25 -27 4 -11 -2 -12 -30 -8 -23 4 -37 1 -42 -7 -9 -15 -53 -28 -53 -15
0 4 -7 5 -17 2 -11 -4 -14 -3 -9 6 6 9 3 9 -13 -1 -12 -7 -21 -19 -21 -26 0
-7 -5 -10 -10 -7 -6 4 -7 12 -3 18 4 7 0 6 -10 -2 -13 -10 -17 -10 -17 -1 0 7
-7 10 -16 6 -13 -5 -15 -2 -10 16 3 13 6 29 6 37 0 8 6 11 16 7 14 -5 15 -4 5
8 -8 10 -11 34 -7 68 3 29 5 108 6 176 l0 122 78 -1 c42 0 70 -3 62 -6 -15 -6
-40 -28 -40 -36 0 -3 30 -2 79 5 3 0 21 0 39 -1 25 -1 32 -5 32 -21 0 -16 -7
-20 -32 -21 -18 -1 -44 -5 -58 -9 -19 -7 -12 -8 29 -7 29 0 58 6 65 13 6 8 17
20 24 29 16 19 48 19 56 0 3 -8 17 -15 31 -15 14 0 25 -4 25 -8 0 -4 -16 -8
-35 -8 -19 0 -29 3 -23 7 8 5 2 10 -16 15 -17 4 -32 2 -39 -6 -9 -10 -8 -11 9
-6 15 5 24 0 34 -19 7 -14 20 -25 29 -25 14 0 14 -2 1 -10 -13 -9 -13 -10 1
-10 8 0 19 4 25 9 5 5 18 11 29 14 11 3 4 5 -17 6 -52 1 -48 16 5 16 42 0 42
0 45 -39 2 -32 0 -37 -13 -32 -9 3 -13 2 -10 -4 3 -6 1 -10 -6 -10 -7 0 -10
-3 -6 -6 3 -3 15 -3 26 1 21 6 21 10 21 451 l0 445 -30 -4 c-22 -4 -31 -1 -35
13 -7 21 -49 32 -64 17 -6 -6 -11 -7 -11 -2 0 6 -5 3 -10 -5 -7 -11 -10 -11
-10 -2 0 7 -5 10 -10 7 -6 -4 -8 -10 -6 -14 3 -4 -1 -8 -9 -8 -8 0 -15 4 -15
9 0 4 5 8 10 8 6 0 10 6 10 14 0 17 40 29 41 13 0 -7 5 -2 11 10 13 27 -7 60
-27 43 -7 -6 -15 -6 -22 1 -6 6 -18 3 -35 -11 -15 -11 -28 -20 -30 -20 -1 0
-4 36 -5 81 l-1 81 66 -2 c37 -1 93 -2 125 -1 l57 1 0 43 c0 27 -5 45 -12 46
-7 2 -448 5 -980 8 l-968 4 0 -464z m1690 353 c0 -17 -5 -30 -12 -30 -9 0 -9
-3 0 -12 16 -16 16 -100 0 -116 -7 -7 -8 -12 -2 -12 7 0 9 -110 6 -336 l-4
-336 20 11 c23 12 86 14 143 5 29 -5 40 -13 52 -40 16 -33 16 -34 -7 -40 -18
-4 -280 0 -371 5 -5 1 3 11 19 24 26 21 29 29 32 103 10 223 9 218 35 233 l25
14 -35 99 c-34 99 -34 100 -80 120 -65 27 -87 54 -83 96 4 28 2 33 -9 26 -8
-5 -27 -9 -44 -10 -41 0 -39 -26 3 -40 40 -13 32 -25 -9 -14 -25 7 -29 6 -29
-11 0 -11 6 -22 14 -25 15 -6 11 -34 -5 -34 -4 0 -5 8 -2 18 4 9 -8 0 -27 -21
-19 -22 -39 -36 -47 -33 -8 4 -11 1 -8 -5 4 -6 13 -8 21 -5 25 9 15 -12 -15
-33 -26 -19 -30 -19 -35 -4 -4 9 -1 20 6 25 10 8 10 11 1 15 -7 2 -13 9 -13
14 0 6 5 7 10 4 6 -3 10 -2 10 4 0 5 -9 9 -19 8 -11 0 -17 -5 -14 -10 3 -5 -4
-4 -16 3 -27 14 -20 25 24 40 25 8 36 18 37 33 3 36 5 106 7 205 l1 92 210 0
210 0 0 -30z m32 -185 c3 -13 1 -22 -3 -19 -9 5 -13 44 -5 44 2 0 6 -11 8 -25z
m-329 -32 c-7 -2 -21 -2 -30 0 -10 3 -4 5 12 5 17 0 24 -2 18 -5z m-460 -10
c-7 -2 -19 -2 -25 0 -7 3 -2 5 12 5 14 0 19 -2 13 -5z m971 -18 c3 3 2 0 -3
-6 -12 -14 -45 -3 -36 11 5 8 11 8 19 1 7 -6 16 -9 20 -6z m-961 -22 c-10 -15
-12 -24 -5 -20 6 5 12 4 12 -2 0 -5 10 -11 23 -13 21 -3 22 -8 25 -100 1 -54
-1 -112 -6 -130 -8 -33 -8 -33 -68 -31 -76 3 -85 15 -78 102 6 74 10 85 30 77
8 -3 14 -1 14 4 0 6 -9 10 -20 10 -23 0 -23 0 -10 34 5 14 15 26 23 26 25 0
37 21 21 38 -18 18 -4 32 34 32 22 0 22 0 5 -27z m457 -51 c0 -13 -12 -22 -22
-16 -10 6 -1 24 13 24 5 0 9 -4 9 -8z m377 -64 c-3 -8 -6 -5 -6 6 -1 11 2 17
5 13 3 -3 4 -12 1 -19z m59 -17 c-4 -6 -14 -11 -22 -11 -12 0 -13 4 -3 21 7
14 14 18 21 11 6 -6 7 -15 4 -21z m-1748 -38 c-10 -2 -28 -2 -40 0 -13 2 -5 4
17 4 22 1 32 -1 23 -4z m1032 -48 c-6 -15 -13 -25 -16 -23 -2 3 1 17 7 32 16
34 23 27 9 -9z m-1076 -24 c-10 -10 -21 -17 -23 -15 -6 6 20 34 32 34 6 0 2
-8 -9 -19z m72 4 c6 -14 -30 -75 -44 -75 -4 0 -13 4 -21 9 -11 7 -8 16 14 45
30 39 42 44 51 21z m434 -5 c0 -5 -8 -10 -17 -10 -24 0 -4 -17 27 -23 25 -4
25 -4 3 -12 -13 -4 -21 -11 -18 -15 2 -4 -1 -15 -8 -24 -11 -15 -14 -14 -38
13 -28 32 -23 47 21 68 32 15 30 15 30 3z m628 -145 c1 -54 7 -104 13 -111 7
-9 5 -20 -6 -38 -19 -29 -35 -26 -35 6 0 14 -5 18 -15 15 -8 -4 -17 -2 -20 4
-4 5 -3 9 2 8 32 -5 35 2 33 84 -3 124 -2 139 13 135 8 -3 13 -35 15 -103z
m-1092 58 c-2 -3 2 -20 10 -38 17 -43 17 -45 -1 -45 -14 0 -20 24 -16 58 1 6
-4 12 -12 12 -14 0 -16 -38 -2 -59 3 -7 -3 -11 -15 -11 -13 0 -18 4 -14 11 3
6 6 28 6 48 -1 35 1 38 24 33 14 -2 23 -7 20 -9z m1439 -116 c3 -12 2 -34 -4
-47 -10 -25 -10 -24 -10 7 -1 17 -4 38 -7 47 -3 9 -1 16 5 16 6 0 13 -10 16
-23z m-1468 -19 c-3 -8 -6 -5 -6 6 -1 11 2 17 5 13 3 -3 4 -12 1 -19z m1776
-20 c21 -23 19 -45 -5 -52 -31 -8 -123 -8 -115 1 4 3 20 6 37 5 19 0 30 4 30
13 0 13 26 45 36 45 3 0 11 -6 17 -12z m-726 -44 c-3 -3 -12 -4 -19 -1 -8 3
-5 6 6 6 11 1 17 -2 13 -5z m97 -49 c3 -8 1 -15 -4 -15 -6 0 -10 7 -10 15 0 8
2 15 4 15 2 0 6 -7 10 -15z m705 -141 c10 -9 -35 -3 -49 6 -11 8 -7 9 15 4 17
-4 32 -8 34 -10z m-540 -42 c-1 -67 -1 -268 0 -277 0 -5 2 -39 3 -74 l3 -65
-30 0 c-29 0 -30 2 -27 40 4 44 10 54 21 35 6 -9 11 -10 15 -2 8 12 -18 44
-28 34 -3 -4 -6 8 -6 26 0 28 3 31 20 26 14 -4 20 -2 20 9 0 10 -6 13 -17 9
-15 -6 -16 2 -9 83 4 49 9 100 11 114 2 14 4 38 4 53 1 36 20 25 20 -11z
m-1346 -32 c3 -11 1 -18 -4 -14 -5 3 -9 12 -9 20 0 20 7 17 13 -6z m1637 -239
c0 -10 -26 -9 -36 2 -4 4 2 7 14 7 12 0 22 -4 22 -9z m-425 -11 c3 -5 1 -10
-4 -10 -6 0 -11 5 -11 10 0 6 2 10 4 10 3 0 8 -4 11 -10z m651 -19 c5 -5 18
-11 29 -14 12 -3 5 -5 -15 -5 -19 0 -44 -2 -56 -5 -11 -3 -46 -8 -78 -11 -31
-4 -62 -7 -68 -9 -6 -1 -13 4 -16 12 -3 10 2 12 21 7 14 -3 29 -2 32 4 3 6 18
7 32 4 16 -4 29 -2 35 7 6 9 11 10 14 3 3 -6 16 -9 29 -6 14 2 22 8 19 13 -7
12 9 12 22 0z m10 -51 c8 0 14 6 15 13 0 10 2 10 6 0 2 -7 11 -13 19 -13 8 0
14 -4 14 -10 0 -5 -6 -10 -12 -10 -9 0 -8 -4 2 -10 12 -8 12 -10 1 -10 -10 0
-11 -3 -3 -13 9 -10 5 -13 -14 -12 -15 0 -30 8 -36 20 -9 17 -8 18 3 8 15 -15
29 -17 29 -4 0 21 -35 22 -52 2 -9 -12 -24 -21 -35 -20 -15 0 -15 2 4 9 13 5
24 22 29 42 4 18 9 27 11 21 3 -7 11 -13 19 -13z m-223 3 c14 -9 78 -12 73 -4
-2 3 6 6 19 6 13 0 20 -4 17 -10 -3 -6 0 -5 9 1 21 16 59 15 59 -1 0 -8 -4
-17 -10 -20 -6 -4 -7 1 -4 12 5 16 4 16 -8 2 -14 -17 -72 -20 -96 -5 -7 4 -12
2 -12 -4 0 -7 -7 -10 -15 -6 -8 3 -15 1 -15 -4 0 -6 17 -10 37 -10 27 0 34 -3
26 -11 -8 -8 -20 -9 -41 -1 -35 12 -67 -1 -42 -18 11 -7 -6 -10 -57 -10 -52 0
-73 4 -73 13 0 9 -2 9 -8 0 -11 -17 -63 32 -56 52 7 18 9 18 37 3 25 -14 169
-19 161 -6 -3 5 -20 8 -36 6 -17 -2 -33 2 -35 7 -4 13 53 19 70 8z m-547 -50
c-3 -4 -6 -1 -6 5 0 7 -8 12 -17 12 -15 0 -16 2 -3 10 10 6 17 4 23 -6 5 -9 6
-18 3 -21z m-100 -10 c-4 -4 -11 -1 -16 7 -16 25 -11 35 7 17 9 -9 13 -20 9
-24z m39 8 c3 -5 0 -13 -6 -17 -7 -4 -9 -3 -5 4 3 5 0 13 -6 15 -9 4 -10 6 -1
6 6 1 14 -3 18 -8z m51 -6 c20 -19 5 -19 -20 0 -11 9 -14 15 -7 15 7 0 19 -7
27 -15z m644 -25 c12 -8 11 -10 -7 -10 -12 0 -25 5 -28 10 -8 13 15 13 35 0z
m83 -6 c4 -1 15 -2 24 -3 25 -2 9 -12 -26 -16 -26 -3 -31 -1 -31 16 0 14 4 18
13 12 6 -4 15 -8 20 -9z m74 -10 c-3 -3 -12 -4 -19 -1 -8 3 -5 6 6 6 11 1 17
-2 13 -5z m-270 -97 c-2 -6 -10 -12 -18 -15 -11 -3 -11 -2 1 7 13 9 13 11 -2
11 -9 0 -19 -4 -23 -10 -3 -5 -12 -7 -20 -3 -11 4 -13 1 -9 -11 3 -9 2 -16 -4
-16 -6 0 -17 -3 -26 -6 -9 -3 -16 -1 -16 5 0 6 7 11 15 11 8 0 15 5 15 10 0 6
-7 10 -16 10 -8 0 -12 5 -9 10 4 6 15 8 26 5 10 -4 19 -2 19 2 0 5 16 7 35 5
20 -2 34 -9 32 -15z m-457 -1 c0 -2 -13 -6 -29 -8 -17 -2 -28 -1 -25 4 5 8 54
12 54 4z m540 -6 c0 -5 -7 -10 -15 -10 -8 0 -15 5 -15 10 0 6 7 10 15 10 8 0
15 -4 15 -10z m-360 -11 c0 -11 -27 -12 -34 -1 -2 4 4 9 15 9 10 1 19 -2 19
-8z m-170 -3 c0 -2 -7 -7 -16 -10 -8 -3 -12 -2 -9 4 6 10 25 14 25 6z m-60
-16 c0 -5 -8 -10 -17 -10 -15 0 -16 2 -3 10 19 12 20 12 20 0z m287 -6 c-3 -3
-12 -4 -19 -1 -8 3 -5 6 6 6 11 1 17 -2 13 -5z"/>
<path d="M1485 1927 c-28 -17 -35 -28 -35 -59 0 -16 -4 -28 -10 -28 -5 0 -10
-4 -10 -10 0 -6 33 -10 79 -10 54 0 81 -4 84 -12 4 -10 6 -10 6 0 1 6 10 12
21 12 11 0 20 5 20 10 0 6 -9 10 -20 10 -15 0 -20 7 -20 28 0 32 -7 43 -37 60
-28 15 -52 15 -78 -1z m85 -52 c17 -20 14 -22 -47 -27 -58 -5 -58 -6 -43 23
13 23 72 26 90 4z"/>
<path d="M1471 1724 c0 -11 3 -14 6 -6 3 7 2 16 -1 19 -3 4 -6 -2 -5 -13z"/>
<path d="M1085 1669 c-9 -14 -2 -20 14 -10 8 6 9 11 3 15 -6 3 -14 1 -17 -5z"/>
<path d="M1036 1661 c-3 -5 1 -11 9 -15 15 -6 29 7 18 18 -9 9 -21 8 -27 -3z"/>
<path d="M1091 1593 c-1 -16 3 -21 14 -17 8 4 15 10 15 16 0 5 -4 7 -9 4 -5
-4 -12 0 -14 6 -3 7 -6 3 -6 -9z"/>
<path d="M1052 1580 c0 -14 2 -19 5 -12 2 6 2 18 0 25 -3 6 -5 1 -5 -13z"/>
<path d="M1097 1540 c-3 -11 -2 -22 2 -24 4 -3 8 6 9 20 2 29 -4 31 -11 4z"/>
<path d="M1122 1540 c0 -14 2 -19 5 -12 2 6 2 18 0 25 -3 6 -5 1 -5 -13z"/>
<path d="M1017 1503 c-10 -9 -9 -23 1 -23 5 0 9 7 9 15 0 17 -1 18 -10 8z"/>
<path d="M1098 1493 c7 -3 16 -2 19 1 4 3 -2 6 -13 5 -11 0 -14 -3 -6 -6z"/>
<path d="M1500 581 c0 -6 4 -13 10 -16 6 -3 7 1 4 9 -7 18 -14 21 -14 7z"/>
<path d="M1665 561 c-3 -7 0 -8 10 -5 8 4 21 2 28 -3 6 -5 26 -6 42 -2 36 8
34 9 -27 15 -26 3 -49 1 -53 -5z"/>
<path d="M1933 1983 c4 -3 1 -13 -6 -22 -11 -14 -10 -14 5 -2 16 12 16 31 1
31 -4 0 -3 -3 0 -7z"/>
<path d="M2010 1956 c0 -8 -6 -17 -12 -19 -8 -3 -6 -6 5 -6 11 -1 17 6 17 19
0 11 -2 20 -5 20 -3 0 -5 -6 -5 -14z"/>
<path d="M2065 1949 c-4 -11 -4 -23 -1 -26 3 -4 6 1 6 10 0 8 5 17 12 19 9 3
9 6 1 11 -7 4 -14 -1 -18 -14z"/>
<path d="M1985 1870 c3 -5 12 -7 20 -3 21 7 19 13 -6 13 -11 0 -18 -4 -14 -10z"/>
<path d="M2021 1824 c0 -11 3 -14 6 -6 3 7 2 16 -1 19 -3 4 -6 -2 -5 -13z"/>
<path d="M2094 1809 c-3 -6 -1 -16 5 -22 8 -8 11 -5 11 11 0 24 -5 28 -16 11z"/>
<path d="M717 1305 c-3 -7 3 -15 14 -18 11 -3 19 0 19 8 0 18 -27 27 -33 10z"/>
<path d="M733 1212 c-13 -2 -23 -7 -23 -12 0 -9 -47 -20 -55 -12 -2 3 -20 5
-39 6 -32 1 -35 -2 -41 -32 -4 -20 -10 -30 -17 -26 -7 4 -8 3 -4 -5 4 -6 11
-9 16 -6 4 3 14 -3 21 -12 12 -14 11 -15 -11 -8 -14 4 -31 12 -38 18 -10 8
-11 5 -3 -16 8 -21 7 -27 -7 -30 -9 -3 9 -5 42 -6 51 -1 63 3 95 29 58 49 59
50 75 50 7 0 16 -7 20 -15 6 -17 -5 -20 -21 -4 -7 7 -9 3 -6 -15 4 -20 0 -28
-18 -35 -22 -9 -21 -10 9 -7 17 1 35 5 38 8 3 3 22 5 42 3 20 -1 29 -1 20 2
-10 2 -18 9 -18 15 0 5 -11 19 -24 29 -15 12 -26 32 -28 52 -2 27 -7 31 -25
29z m37 -111 c0 -6 -4 -12 -8 -15 -5 -3 -9 1 -9 9 0 8 4 15 9 15 4 0 8 -4 8
-9z"/>
<path d="M150 1111 c0 -5 9 -7 20 -4 11 3 20 7 20 9 0 2 -9 4 -20 4 -11 0 -20
-4 -20 -9z"/>
<path d="M693 1113 c-22 -8 -14 -23 12 -23 16 0 25 6 25 15 0 15 -14 18 -37 8z"/>
<path d="M830 1110 c0 -5 7 -10 15 -10 8 0 15 5 15 10 0 6 -7 10 -15 10 -8 0
-15 -4 -15 -10z"/>
<path d="M875 1110 c3 -5 13 -10 21 -10 8 0 14 5 14 10 0 6 -9 10 -21 10 -11
0 -17 -4 -14 -10z"/>
<path d="M668 1073 c7 -3 16 -2 19 1 4 3 -2 6 -13 5 -11 0 -14 -3 -6 -6z"/>
<path d="M1696 1042 c-11 -18 2 -32 29 -32 18 0 23 5 22 20 -1 11 -7 20 -15
20 -7 0 -10 -4 -7 -10 3 -5 2 -10 -4 -10 -5 0 -11 5 -13 12 -3 9 -6 9 -12 0z"/>
<path d="M1036 994 c-19 -18 -21 -70 -4 -80 8 -5 9 -2 5 9 -3 9 -1 31 5 48 10
28 14 31 45 26 20 -4 31 -2 28 4 -10 15 -62 10 -79 -7z"/>
<path d="M1120 966 c-10 -19 -11 -29 -3 -37 15 -15 33 19 24 44 -6 17 -8 16
-21 -7z"/>
<path d="M1296 976 c21 -15 30 -14 19 3 -3 6 -14 11 -23 11 -13 0 -13 -2 4
-14z"/>
<path d="M1064 955 c10 -8 24 -11 29 -8 6 4 2 10 -9 14 -31 12 -40 9 -20 -6z"/>
<path d="M1702 955 c-11 -12 -10 -15 3 -15 8 0 15 7 15 15 0 18 -2 18 -18 0z"/>
<path d="M1918 947 c13 -16 72 -29 72 -16 0 11 -10 16 -50 24 -30 7 -33 6 -22
-8z"/>
<path d="M1248 943 c7 -3 16 -2 19 1 4 3 -2 6 -13 5 -11 0 -14 -3 -6 -6z"/>
<path d="M1748 943 c6 -2 18 -2 25 0 6 3 1 5 -13 5 -14 0 -19 -2 -12 -5z"/>
<path d="M1829 941 c11 -7 7 -10 -15 -14 -26 -4 -25 -4 8 -6 20 0 43 -8 52
-16 17 -17 25 -17 43 -1 17 17 -14 48 -36 36 -10 -5 -23 -5 -32 1 -7 5 -18 9
-24 9 -5 0 -4 -4 4 -9z"/>
<path d="M630 920 c0 -6 7 -10 15 -10 8 0 15 2 15 4 0 2 -7 6 -15 10 -8 3 -15
1 -15 -4z"/>
<path d="M1036 901 c-19 -21 -19 -21 15 -21 19 0 29 4 23 8 -6 4 -13 13 -15
20 -3 10 -10 8 -23 -7z"/>
<path d="M538 903 c7 -3 16 -2 19 1 4 3 -2 6 -13 5 -11 0 -14 -3 -6 -6z"/>
<path d="M1110 890 c-12 -8 -12 -10 5 -10 11 0 27 5 35 10 12 8 12 10 -5 10
-11 0 -27 -5 -35 -10z"/>
<path d="M1928 893 c7 -3 16 -2 19 1 4 3 -2 6 -13 5 -11 0 -14 -3 -6 -6z"/>
<path d="M270 880 c-12 -8 -11 -10 7 -10 12 0 25 5 28 10 8 13 -15 13 -35 0z"/>
<path d="M448 863 c7 -3 16 -2 19 1 4 3 -2 6 -13 5 -11 0 -14 -3 -6 -6z"/>
<path d="M1890 860 c-17 -5 -19 -8 -7 -9 9 -1 17 -5 17 -11 0 -5 4 -10 10 -10
5 0 7 8 4 18 -5 14 -4 14 5 2 11 -16 27 -8 16 9 -7 12 -10 12 -45 1z"/>
<path d="M387 829 c-9 -23 -17 -30 -37 -28 -14 0 -30 1 -37 0 -14 -1 -10 -36
5 -36 6 0 14 -3 18 -7 10 -11 44 -10 44 1 0 5 -13 11 -30 15 -41 8 -38 21 5
23 53 3 65 6 59 15 -3 5 -10 6 -15 3 -12 -8 -11 2 1 26 6 10 8 19 4 19 -3 0
-11 -14 -17 -31z"/>
<path d="M2072 834 c-18 -14 -32 -22 -32 -19 0 4 -6 2 -14 -4 -10 -8 -16 -9
-21 -1 -3 5 -17 7 -30 4 -12 -3 -26 -1 -29 5 -10 16 -24 13 -28 -6 -3 -15 -4
-15 -21 1 -14 14 -23 16 -45 8 -15 -6 -21 -11 -14 -11 6 -1 12 -9 12 -18 1
-17 1 -17 11 0 9 16 13 17 32 4 23 -15 51 -12 41 4 -7 12 0 11 30 -2 14 -7 22
-17 19 -25 -4 -10 3 -13 26 -10 17 2 31 -1 31 -6 0 -5 6 -6 13 -1 19 12 49 14
42 3 -3 -5 -1 -10 4 -10 15 0 14 67 -1 73 -10 4 -9 8 2 16 8 5 12 12 9 15 -2
3 -19 -6 -37 -20z"/>
<path d="M322 841 c2 -7 7 -12 11 -12 12 1 9 15 -3 20 -7 2 -11 -2 -8 -8z"/>
<path d="M1950 840 c0 -5 5 -10 11 -10 5 0 7 5 4 10 -3 6 -8 10 -11 10 -2 0
-4 -4 -4 -10z"/>
<path d="M418 833 c7 -3 16 -2 19 1 4 3 -2 6 -13 5 -11 0 -14 -3 -6 -6z"/>
<path d="M498 813 c7 -3 16 -2 19 1 4 3 -2 6 -13 5 -11 0 -14 -3 -6 -6z"/>
<path d="M1695 810 c-3 -5 1 -10 9 -10 9 0 16 5 16 10 0 6 -4 10 -9 10 -6 0
-13 -4 -16 -10z"/>
<path d="M1771 811 c-9 -6 -6 -8 13 -8 14 0 23 3 20 8 -7 11 -15 11 -33 0z"/>
<path d="M430 790 c-8 -5 -12 -11 -9 -14 2 -3 11 -1 19 4 8 5 12 11 9 14 -2 3
-11 1 -19 -4z"/>
<path d="M926 763 c-6 -14 -5 -15 5 -6 7 7 10 15 7 18 -3 3 -9 -2 -12 -12z"/>
<path d="M780 752 c0 -4 6 -14 13 -21 10 -11 7 -12 -13 -6 -24 7 -24 7 -5 -8
11 -8 24 -13 29 -10 5 4 6 1 2 -5 -4 -7 -14 -12 -23 -12 -13 0 -13 -3 -2 -16
11 -14 13 -14 22 2 8 13 11 14 18 3 7 -12 9 -12 9 -1 0 8 -9 26 -20 42 -11 15
-17 30 -13 34 3 3 1 6 -5 6 -7 0 -12 -4 -12 -8z"/>
<path d="M840 750 c-24 -8 -23 -8 8 -9 17 -1 32 4 32 9 0 11 -5 11 -40 0z"/>
<path d="M1010 749 c0 -5 5 -7 10 -4 6 3 10 8 10 11 0 2 -4 4 -10 4 -5 0 -10
-5 -10 -11z"/>
<path d="M1135 740 c10 -11 28 -19 39 -19 20 2 20 2 -1 6 -13 2 -23 11 -23 19
0 8 -7 14 -17 14 -14 0 -14 -2 2 -20z"/>
<path d="M290 734 c0 -15 28 -31 41 -23 12 7 12 9 -1 10 -10 0 -8 3 5 9 17 7
15 9 -12 9 -18 1 -33 -2 -33 -5z"/>
<path d="M568 733 c7 -3 16 -2 19 1 4 3 -2 6 -13 5 -11 0 -14 -3 -6 -6z"/>
<path d="M628 733 c7 -3 16 -2 19 1 4 3 -2 6 -13 5 -11 0 -14 -3 -6 -6z"/>
<path d="M1270 730 c-12 -8 -12 -10 5 -9 11 0 29 4 40 9 18 8 18 9 -5 9 -14 0
-32 -4 -40 -9z"/>
<path d="M397 716 c-4 -10 -1 -13 8 -9 8 3 12 9 9 14 -7 12 -11 11 -17 -5z"/>
<path d="M660 719 c0 -6 -7 -9 -15 -5 -8 3 -15 1 -15 -4 0 -15 36 -12 50 5 10
12 10 15 -4 15 -9 0 -16 -5 -16 -11z"/>
<path d="M1990 719 c0 -5 5 -7 10 -4 6 3 10 8 10 11 0 2 -4 4 -10 4 -5 0 -10
-5 -10 -11z"/>
<path d="M1030 710 c8 -5 20 -10 25 -10 6 0 3 5 -5 10 -8 5 -19 10 -25 10 -5
0 -3 -5 5 -10z"/>
<path d="M1880 709 c0 -5 5 -7 10 -4 6 3 10 8 10 11 0 2 -4 4 -10 4 -5 0 -10
-5 -10 -11z"/>
<path d="M855 699 c-11 -17 1 -21 15 -4 8 9 8 15 2 15 -6 0 -14 -5 -17 -11z"/>
<path d="M944 685 c17 -17 36 -20 36 -4 0 5 -4 7 -10 4 -5 -3 -10 -1 -10 4 0
6 -7 11 -16 11 -14 0 -14 -2 0 -15z"/>
<path d="M1098 693 c7 -3 16 -2 19 1 4 3 -2 6 -13 5 -11 0 -14 -3 -6 -6z"/>
<path d="M888 683 c6 -2 18 -2 25 0 6 3 1 5 -13 5 -14 0 -19 -2 -12 -5z"/>
<path d="M1236 671 c-3 -5 0 -13 7 -19 10 -8 13 -6 13 9 0 20 -11 25 -20 10z"/>
<path d="M368 659 c-2 -5 -15 -11 -29 -13 -33 -3 -49 -14 -49 -32 0 -11 4 -12
19 -4 27 14 41 13 41 -4 0 -17 92 -21 121 -6 12 7 21 5 29 -5 9 -11 10 -15 1
-15 -7 0 -9 -5 -5 -12 5 -9 2 -9 -9 1 -11 8 -17 9 -17 3 0 -6 9 -16 19 -22 21
-11 68 -14 58 -3 -4 3 -1 13 6 21 10 13 9 15 -5 10 -20 -8 -47 20 -43 45 4 21
-4 21 -29 2 -11 -8 -27 -15 -35 -15 -13 0 -13 2 -2 9 8 5 10 14 6 22 -6 9 -3
11 10 5 20 -7 55 1 55 14 0 14 -71 9 -77 -6 -4 -11 -9 -11 -33 1 -18 9 -30 11
-32 4z m36 -18 c7 -10 -23 -20 -43 -13 -11 4 -11 6 0 13 18 11 36 11 43 0z"/>
<path d="M865 650 c3 -5 8 -10 11 -10 2 0 4 5 4 10 0 6 -5 10 -11 10 -5 0 -7
-4 -4 -10z"/>
<path d="M941 643 c0 -11 3 -13 6 -5 2 6 10 9 15 6 7 -4 8 -2 4 4 -11 18 -26
14 -25 -5z"/>
<path d="M1640 646 c0 -2 7 -6 15 -10 8 -3 15 -1 15 4 0 6 -7 10 -15 10 -8 0
-15 -2 -15 -4z"/>
<path d="M517 634 c-4 -4 -4 -10 -1 -15 6 -10 34 0 34 12 0 10 -24 12 -33 3z"/>
<path d="M703 618 c-2 -5 14 -8 36 -8 23 0 41 4 41 10 0 11 -69 9 -77 -2z"/>
<path d="M850 619 c0 -5 -3 -8 -7 -6 -5 3 -14 -1 -21 -9 -11 -12 -10 -14 3
-14 10 0 13 -5 9 -12 -5 -8 0 -9 17 -5 13 4 29 7 36 7 7 0 10 7 7 15 -4 8 -13
15 -21 15 -8 0 -11 5 -8 10 3 6 1 10 -4 10 -6 0 -11 -5 -11 -11z"/>
<path d="M893 613 c14 -14 19 -15 29 -4 11 10 9 11 -6 5 -13 -5 -17 -4 -12 4
4 8 0 12 -11 12 -16 0 -16 -1 0 -17z"/>
<path d="M785 600 c-3 -5 -1 -10 4 -10 6 0 11 5 11 10 0 6 -2 10 -4 10 -3 0
-8 -4 -11 -10z"/>
<path d="M1295 600 c-4 -6 3 -10 14 -10 25 0 27 6 6 13 -8 4 -17 2 -20 -3z"/>
<path d="M944 582 c1 -21 18 -42 29 -35 4 2 7 -1 7 -6 0 -6 -6 -11 -14 -11 -8
0 -17 -4 -20 -9 -3 -5 5 -8 19 -7 14 0 25 5 25 10 0 5 8 15 18 22 25 19 2 40
-27 25 -17 -10 -21 -9 -21 3 0 8 -4 17 -9 20 -5 3 -8 -2 -7 -12z"/>
<path d="M723 577 c-4 -7 -8 -18 -10 -26 -1 -10 1 -11 10 -2 6 6 22 11 37 10
23 0 23 -1 5 -9 -14 -7 -8 -8 20 -3 44 6 59 13 29 13 -16 0 -17 2 -4 11 12 9
10 10 -9 6 -13 -3 -34 -2 -47 3 -16 6 -26 5 -31 -3z"/>
<path d="M1068 577 c-16 -6 -28 -15 -28 -19 0 -5 9 -4 19 2 13 7 22 7 26 0 4
-6 12 -5 21 4 27 28 12 33 -38 13z"/>
<path d="M888 573 c-16 -2 -28 -8 -28 -12 0 -13 59 -7 65 7 2 6 1 11 -3 11 -4
-1 -19 -4 -34 -6z"/>
<path d="M152 465 l0 -105 85 0 c70 0 88 3 100 18 10 13 13 13 11 2 -3 -13 25
-15 197 -17 168 -1 197 1 182 12 -11 8 -14 16 -8 19 6 4 7 14 4 24 -6 16 -6
16 10 0 9 -9 17 -21 17 -26 0 -5 13 -9 29 -8 16 1 27 4 24 9 -2 4 6 12 19 17
22 10 22 10 1 6 -12 -2 -25 1 -28 8 -3 8 -7 8 -11 -1 -3 -7 -12 -13 -19 -13
-24 0 -29 22 -9 38 13 10 15 16 6 19 -6 3 -10 9 -6 14 3 5 0 9 -5 9 -6 0 -11
-5 -11 -10 0 -6 -6 -9 -12 -8 -7 2 -12 -2 -11 -9 2 -7 -4 -10 -12 -7 -8 4 -12
11 -9 16 4 6 1 9 -6 6 -20 -6 -24 -28 -6 -28 27 0 6 -28 -25 -32 -31 -5 -49 6
-27 15 8 3 5 6 -5 6 -10 1 -25 -6 -33 -14 -9 -8 -20 -15 -25 -15 -11 0 -7 23
6 32 6 4 2 8 -8 8 -12 0 -17 -6 -15 -17 2 -12 -4 -19 -19 -21 -13 -2 -23 2
-23 8 0 7 6 10 13 7 8 -3 17 6 23 22 10 25 9 26 -25 27 -20 1 -45 2 -56 3 -37
2 -65 -3 -65 -12 0 -5 17 -6 38 -2 30 5 35 4 25 -6 -15 -15 -17 -33 -4 -25 5
3 11 -3 14 -14 4 -16 0 -20 -17 -20 -17 0 -22 6 -22 23 1 17 -4 21 -21 20 -13
-2 -23 2 -23 9 0 6 -3 8 -7 5 -3 -4 -11 -3 -18 3 -13 11 -57 2 -49 -11 3 -5
-4 -9 -16 -9 -12 0 -19 4 -16 9 3 5 -8 11 -25 13 -20 3 -33 0 -39 -11 -8 -14
-9 -14 -10 1 0 9 -8 19 -17 21 -11 3 -7 5 10 6 15 0 27 5 27 10 0 10 -45 5
-63 -6 -5 -3 -7 15 -4 41 2 25 0 46 -4 46 -4 0 -8 -47 -7 -105z m38 -25 c0 -5
-7 -10 -16 -10 -8 0 -12 5 -9 10 3 6 10 10 16 10 5 0 9 -4 9 -10z m221 -10
c25 0 17 -16 -11 -23 -11 -3 -18 -1 -14 4 3 5 1 9 -5 9 -5 0 -13 -5 -16 -10
-5 -8 -11 -7 -20 0 -8 7 -20 8 -27 4 -10 -5 -10 -4 -1 6 10 11 15 11 28 0 12
-10 15 -10 15 5 0 12 5 15 16 11 9 -3 25 -6 35 -6z m261 -37 c-6 -2 -10 -9 -6
-14 3 -5 -7 -9 -23 -9 l-28 0 25 14 c14 8 30 14 35 14 6 0 4 -2 -3 -5z m-167
-13 c4 -6 -10 -10 -34 -10 -23 0 -41 5 -41 10 0 6 15 10 34 10 19 0 38 -4 41
-10z"/>
<path d="M246 556 c5 -13 0 -14 -27 -6 -18 5 -35 7 -38 4 -9 -9 23 -25 40 -20
9 2 23 0 30 -5 10 -6 5 -9 -16 -10 -20 -1 -24 -3 -11 -6 28 -7 49 -30 33 -36
-6 -2 0 -4 16 -4 23 0 25 2 15 14 -20 24 -18 44 5 52 22 8 16 15 -25 25 -22 5
-26 3 -22 -8z"/>
<path d="M320 540 c0 -5 5 -10 10 -10 6 0 10 5 10 10 0 6 -4 10 -10 10 -5 0
-10 -4 -10 -10z"/>
<path d="M545 530 c-16 -7 -17 -9 -3 -9 9 -1 20 4 23 9 7 11 7 11 -20 0z"/>
<path d="M626 524 c-4 -9 -4 -19 -1 -22 2 -3 7 3 11 12 4 9 4 19 1 22 -2 3 -7
-3 -11 -12z"/>
<path d="M1038 533 c6 -2 18 -2 25 0 6 3 1 5 -13 5 -14 0 -19 -2 -12 -5z"/>
<path d="M1085 521 c-3 -6 -24 -11 -45 -11 -21 0 -41 -4 -44 -9 -3 -5 11 -7
31 -4 31 4 35 3 29 -12 -4 -11 -2 -15 6 -13 7 3 13 10 13 17 0 6 7 16 15 21 8
5 12 12 8 15 -3 4 -9 2 -13 -4z"/>
<path d="M450 511 c0 -5 7 -12 16 -15 14 -5 15 -4 4 9 -14 17 -20 19 -20 6z"/>
<path d="M750 510 c-21 -7 -17 -8 20 -9 32 0 41 2 30 9 -17 11 -16 11 -50 0z"/>
<path d="M856 512 c-3 -6 -1 -14 5 -17 14 -9 20 -2 10 14 -6 8 -11 9 -15 3z"/>
<path d="M300 506 c0 -2 7 -6 15 -10 8 -3 15 -1 15 4 0 6 -7 10 -15 10 -8 0
-15 -2 -15 -4z"/>
<path d="M359 494 c-11 -14 -10 -15 11 -12 13 1 25 9 28 16 5 17 -23 15 -39
-4z"/>
<path d="M415 500 c3 -5 11 -10 16 -10 6 0 7 5 4 10 -3 6 -11 10 -16 10 -6 0
-7 -4 -4 -10z"/>
<path d="M936 493 c-4 -5 -11 -8 -14 -9 -4 0 -16 -4 -27 -8 -11 -5 -27 -10
-35 -13 -12 -4 -11 -7 5 -12 19 -8 19 -8 0 -19 -19 -11 -19 -11 2 -12 12 0 29
-3 39 -7 14 -5 16 -2 11 19 -6 24 12 55 25 43 2 -3 5 2 5 10 0 17 -1 18 -11 8z"/>
<path d="M1118 483 c7 -3 16 -2 19 1 4 3 -2 6 -13 5 -11 0 -14 -3 -6 -6z"/>
<path d="M610 471 c0 -5 7 -12 16 -15 24 -9 27 -7 10 9 -17 17 -26 19 -26 6z"/>
<path d="M983 473 c-13 -2 -23 -8 -23 -13 0 -6 10 -6 25 0 14 5 32 7 42 3 11
-4 14 -3 9 5 -7 12 -13 13 -53 5z"/>
<path d="M1156 463 c4 -16 -8 -17 -23 -2 -7 7 -23 9 -37 5 -28 -7 -36 -26 -10
-26 8 0 12 5 9 10 -3 6 3 10 15 10 12 0 19 -4 15 -9 -10 -17 34 -23 51 -7 13
14 13 16 1 16 -9 0 -17 3 -20 8 -2 4 -2 1 -1 -5z"/>
<path d="M936 434 c-9 -23 -9 -23 24 -22 16 1 27 5 24 9 -3 5 2 6 10 3 9 -3
16 -1 16 5 0 15 -43 14 -59 -1 -10 -11 -11 -10 -6 5 4 9 5 17 2 17 -3 0 -8 -7
-11 -16z"/>
<path d="M1062 413 c-10 -17 -92 -29 -92 -13 0 4 -11 5 -25 2 -14 -2 -22 -9
-19 -14 4 -7 -5 -8 -26 -3 -23 5 -30 4 -26 -4 9 -14 -9 -14 -35 -1 -12 7 -19
7 -19 1 0 -5 -15 -12 -32 -14 -18 -2 58 -4 170 -4 184 1 238 7 157 20 -23 4
-20 5 9 4 24 -1 41 3 44 11 2 7 -6 12 -23 12 -14 0 -24 4 -21 8 2 4 -8 9 -24
10 -19 1 -32 -4 -38 -15z m18 -33 c0 -5 -17 -9 -37 -9 -38 1 -38 1 -8 9 43 11
45 11 45 0z m-97 -7 c-7 -2 -19 -2 -25 0 -7 3 -2 5 12 5 14 0 19 -2 13 -5z"/>
<path d="M599 272 c-2 -20 -2 -53 1 -72 7 -48 20 -16 20 50 0 58 -16 75 -21
22z"/>
<path d="M340 188 c0 -77 3 -108 10 -98 13 20 13 210 0 210 -6 0 -10 -44 -10
-112z"/>
<path d="M560 275 c0 -14 5 -25 10 -25 6 0 10 11 10 25 0 14 -4 25 -10 25 -5
0 -10 -11 -10 -25z"/>
<path d="M778 293 c12 -2 30 -2 40 0 9 3 -1 5 -23 4 -22 0 -30 -2 -17 -4z"/>
<path d="M293 265 c0 -8 4 -12 9 -9 5 3 6 10 3 15 -9 13 -12 11 -12 -6z"/>
<path d="M490 270 c0 -5 -17 -29 -37 -52 -24 -26 -30 -37 -17 -30 11 6 26 18
34 26 18 23 29 20 41 -11 7 -17 13 -23 16 -15 3 7 -2 21 -11 30 -9 11 -13 27
-9 40 3 13 1 22 -6 22 -6 0 -11 -4 -11 -10z"/>
<path d="M785 270 c-16 -4 -27 -8 -22 -9 4 0 -7 -14 -25 -31 -25 -22 -28 -28
-13 -24 17 4 110 75 95 72 -3 0 -18 -4 -35 -8z"/>
<path d="M180 266 c0 -2 18 -6 39 -8 22 -2 37 0 35 4 -5 8 -74 11 -74 4z"/>
<path d="M821 234 c13 -16 39 -19 39 -5 0 5 -11 11 -25 13 -20 4 -23 3 -14 -8z"/>
<path d="M558 189 c-2 -27 -8 -44 -18 -46 -13 -4 -13 -3 0 6 8 6 10 11 5 11
-31 0 -48 -63 -23 -88 20 -20 76 -15 88 8 14 27 4 57 -21 65 -16 5 -19 12 -13
40 3 19 1 35 -5 39 -6 4 -11 -10 -13 -35z m2 -104 c18 0 25 5 25 19 0 11 -6
20 -13 22 -7 1 -8 0 -2 -3 16 -8 12 -33 -6 -33 -9 0 -12 5 -8 12 4 7 3 8 -4 4
-7 -4 -12 -1 -12 7 0 18 24 29 46 20 25 -9 14 -57 -14 -61 -31 -5 -52 15 -51
47 1 25 2 25 8 -4 5 -24 12 -30 31 -30z"/>
<path d="M228 176 c-30 -35 -33 -43 -18 -39 21 6 70 57 70 74 0 18 -16 8 -52
-35z"/>
<path d="M753 183 c44 -4 69 -23 29 -23 -26 0 -42 -20 -42 -51 0 -28 12 -42
45 -52 14 -5 12 -1 -7 14 -32 24 -35 41 -12 63 22 22 28 20 42 -11 9 -22 10
-23 6 -4 -4 16 -2 21 5 17 30 -19 -1 -55 -35 -42 -13 5 -14 9 -4 21 8 10 9 15
2 15 -15 0 -23 -16 -17 -32 8 -20 56 -40 70 -28 13 11 8 67 -6 76 -17 10 -9
33 14 37 12 2 -14 4 -58 4 -46 0 -60 -2 -32 -4z m82 -103 c-3 -5 -12 -10 -18
-10 -7 0 -6 4 3 10 19 12 23 12 15 0z"/>
</g>
</svg>
