<?xml version="1.0" standalone="no"?>
<!DOCTYPE svg PUBLIC "-//W3C//DTD SVG 20010904//EN"
 "http://www.w3.org/TR/2001/REC-SVG-20010904/DTD/svg10.dtd">
<svg version="1.0" xmlns="http://www.w3.org/2000/svg"
 width="186.000000pt" height="270.000000pt" viewBox="0 0 186.000000 270.000000"
 preserveAspectRatio="xMidYMid meet">

<g transform="translate(0.000000,270.000000) scale(0.100000,-0.100000)"
fill="#000000" stroke="none">
<path d="M0 2180 l0 -520 24 0 c14 0 28 5 31 10 3 6 1 10 -6 10 -8 0 -8 4 1
15 7 9 20 13 27 11 9 -4 14 0 12 12 -1 9 -1 34 0 55 l1 37 159 0 c144 0 160
-2 164 -17 4 -14 5 -12 6 5 1 22 1 22 -158 22 -184 0 -171 -9 -171 119 l0 74
110 -5 c67 -4 116 -11 125 -18 13 -11 14 -10 9 4 -5 12 0 16 17 17 13 0 34 2
47 5 12 2 22 -1 22 -6 0 -6 16 -10 35 -10 26 0 35 -4 36 -17 0 -14 2 -13 9 5
5 12 14 22 20 22 65 3 191 0 244 -5 51 -6 66 -11 67 -24 0 -11 3 -10 11 7 10
19 19 22 70 22 l58 0 0 -34 c0 -32 2 -35 28 -33 23 2 27 -1 25 -23 -1 -14 0
-19 3 -12 3 6 10 10 15 6 5 -3 9 6 9 20 0 14 -3 25 -7 25 -24 -4 -33 4 -33 26
0 23 3 25 48 25 43 0 47 -2 48 -25 2 -23 -10 -31 -38 -26 -5 0 -8 -3 -8 -8 0
-5 68 -8 150 -6 l150 3 0 -29 0 -29 -80 0 c-64 0 -80 3 -80 15 0 8 -4 15 -10
15 -5 0 -10 -7 -10 -15 0 -8 -8 -15 -17 -16 -10 0 -4 -5 14 -10 21 -6 33 -16
35 -31 2 -17 11 -23 30 -25 15 -1 30 2 33 8 7 10 65 12 90 3 13 -6 14 -9 3
-15 -7 -6 22 -6 70 -3 79 7 82 6 82 -14 0 -17 8 -22 48 -27 26 -4 57 -13 69
-21 12 -8 42 -14 67 -14 24 0 63 -9 87 -20 24 -11 50 -20 57 -20 9 0 12 107
12 500 l0 500 -930 0 -930 0 0 -520z m816 306 c-7 -16 -18 -32 -25 -34 -9 -3
-8 4 4 22 16 25 17 45 1 91 -4 11 2 4 12 -15 17 -30 18 -39 8 -64z m-706 54
c-9 -16 -8 -28 4 -52 9 -17 16 -34 16 -37 -1 -12 -40 42 -40 55 0 17 22 65 27
60 3 -2 0 -14 -7 -26z m60 -30 c0 -5 -2 -10 -4 -10 -3 0 -8 5 -11 10 -3 6 -1
10 4 10 6 0 11 -4 11 -10z m100 2 c0 -5 -7 -9 -15 -9 -8 0 -15 4 -15 9 0 4 7
8 15 8 8 0 15 -4 15 -8z m110 4 c0 -3 -4 -8 -10 -11 -5 -3 -10 -1 -10 4 0 6 5
11 10 11 6 0 10 -2 10 -4z m240 -45 c0 -5 -9 -7 -20 -4 -11 3 -20 7 -20 9 0 2
9 4 20 4 11 0 20 -4 20 -9z m-458 -173 c15 4 19 1 16 -9 -3 -8 -11 -13 -18
-11 -7 2 -17 -3 -21 -10 -6 -8 -8 0 -8 22 1 19 3 28 6 19 3 -11 11 -15 25 -11z
m41 -19 c-8 -29 -13 -23 -13 14 0 22 3 28 9 18 5 -7 6 -22 4 -32z m47 14 c0
-22 -2 -25 -10 -13 -8 13 -10 12 -10 -4 0 -24 -9 -16 -15 12 -2 15 0 19 11 15
8 -3 14 0 14 6 0 6 2 11 5 11 3 0 5 -12 5 -27z m320 -5 c0 -4 -14 -5 -30 -1
-27 5 -29 3 -23 -13 6 -18 6 -18 -10 -2 -19 19 -22 33 -8 33 5 0 12 3 16 6 7
8 55 -13 55 -23z m23 13 c2 -10 1 -25 -4 -32 -6 -10 -9 -4 -9 19 0 36 5 42 13
13z m-476 -11 c-1 -11 -5 -20 -9 -20 -3 0 -6 9 -5 20 1 11 5 20 9 20 3 0 6 -9
5 -20z m203 3 c0 -11 -3 -14 -8 -7 -4 6 -14 14 -22 17 -10 4 -8 6 8 6 15 1 22
-5 22 -16z m34 5 c-5 -7 -2 -9 8 -5 12 4 14 1 10 -15 -4 -15 -7 -17 -13 -6 -7
10 -9 10 -9 -2 0 -13 -1 -13 -10 0 -5 9 -5 19 2 27 13 16 22 17 12 1z m48 -10
c-7 -7 -12 -8 -12 -2 0 14 12 26 19 19 2 -3 -1 -11 -7 -17z m28 -3 c0 -17 -5
-25 -17 -24 -11 0 -13 3 -5 6 6 2 12 13 12 24 0 10 2 19 5 19 3 0 5 -11 5 -25z
m201 2 c-10 -9 -11 -8 -5 6 3 10 9 15 12 12 3 -3 0 -11 -7 -18z m59 13 c0 -5
8 -10 18 -11 13 0 14 -2 2 -6 -8 -3 -18 -10 -21 -16 -4 -5 -9 -5 -13 2 -4 6
-2 11 5 11 8 0 8 4 -1 15 -9 10 -9 15 -1 15 6 0 11 -4 11 -10z m-370 -33 c8
-3 0 -6 -18 -6 -28 -1 -31 1 -20 13 7 8 15 10 18 6 3 -4 12 -10 20 -13z m350
-103 c0 -65 -19 -92 -22 -31 l-1 32 -4 -32 c-4 -33 -33 -48 -33 -18 0 12 -4
13 -19 5 -11 -5 -37 -10 -58 -10 -37 0 -38 1 -37 37 1 36 3 38 33 38 23 0 31
4 31 17 0 11 -6 16 -18 13 -10 -2 -25 1 -33 6 -9 6 2 9 34 9 46 0 47 -1 47
-30 0 -28 -3 -30 -35 -30 -31 0 -35 -3 -35 -26 0 -24 3 -26 32 -20 45 9 58 24
58 67 0 46 26 55 33 12 4 -26 4 -25 6 5 2 61 21 22 21 -44z m-480 26 c0 -39
-1 -40 -35 -40 -34 0 -35 -1 -35 -41 0 -41 0 -41 32 -35 17 3 40 14 50 23 21
19 36 10 18 -12 -13 -16 -71 -35 -107 -35 -21 0 -23 4 -23 60 l0 60 40 0 c33
0 40 3 40 20 0 17 -7 20 -40 20 -22 0 -40 5 -40 10 0 6 23 10 50 10 l50 0 0
-40z m70 0 c0 -25 5 -40 13 -41 10 0 10 -2 0 -6 -8 -3 -13 -24 -13 -54 0 -27
-4 -49 -10 -49 -6 0 -10 38 -10 95 0 57 4 95 10 95 6 0 10 -18 10 -40z m136
-2 c2 -38 2 -38 -37 -38 l-39 0 0 -41 0 -42 37 6 c21 4 44 14 50 24 7 9 16 14
19 10 19 -19 -56 -57 -114 -57 -22 0 -23 3 -20 58 l3 57 38 3 c29 3 37 7 37
23 0 16 -7 19 -41 19 -25 0 -38 4 -34 11 4 5 28 9 53 7 46 -3 46 -3 48 -40z
m64 7 c0 -22 6 -38 18 -44 16 -10 16 -10 -1 -11 -15 0 -18 -7 -15 -47 2 -30
-1 -48 -9 -50 -10 -4 -13 19 -13 91 0 57 4 96 10 96 6 0 10 -16 10 -35z m390
27 c0 -4 -28 -7 -62 -7 l-63 0 -3 -49 -3 -49 43 7 c23 4 52 16 64 26 23 22 34
25 34 10 0 -21 -65 -50 -112 -50 l-48 0 0 60 0 60 75 0 c41 0 75 -4 75 -8z
m-310 -142 c0 -18 7 -20 65 -20 36 0 65 -3 65 -7 0 -5 -35 -7 -77 -6 -77 1
-91 8 -79 38 8 22 26 18 26 -5z m288 -27 c-27 -2 -69 -2 -95 0 -27 2 -5 3 47
3 52 0 74 -1 48 -3z m172 -73 c0 -11 -4 -20 -10 -20 -5 0 -10 9 -10 20 0 11 5
20 10 20 6 0 10 -9 10 -20z m237 -132 c-3 -8 -6 -5 -6 6 -1 11 2 17 5 13 3 -3
4 -12 1 -19z m30 0 c-3 -8 -6 -5 -6 6 -1 11 2 17 5 13 3 -3 4 -12 1 -19z"/>
<path d="M371 1984 c0 -11 3 -14 6 -6 3 7 2 16 -1 19 -3 4 -6 -2 -5 -13z"/>
<path d="M646 1983 c-6 -14 -5 -15 5 -6 7 7 10 15 7 18 -3 3 -9 -2 -12 -12z"/>
<path d="M930 1991 c0 -6 4 -13 10 -16 6 -3 7 1 4 9 -7 18 -14 21 -14 7z"/>
<path d="M712 1964 c-9 -10 -29 -12 -82 -8 -41 4 -70 3 -70 -3 0 -5 15 -9 33
-9 79 -1 96 -4 100 -21 4 -17 5 -17 6 0 0 10 5 16 9 13 15 -9 35 11 26 27 -8
13 -11 13 -22 1z"/>
<path d="M100 1950 c0 -5 9 -10 21 -10 11 0 17 5 14 10 -3 6 -13 10 -21 10 -8
0 -14 -4 -14 -10z"/>
<path d="M155 1950 c4 -6 11 -8 16 -5 5 4 9 -5 9 -19 0 -14 4 -26 8 -26 5 0 7
14 4 30 -3 22 -10 30 -24 30 -10 0 -16 -5 -13 -10z"/>
<path d="M201 1942 c0 -9 3 -12 5 -6 3 7 15 9 27 6 12 -3 19 -1 14 3 -16 17
-47 15 -46 -3z"/>
<path d="M260 1952 c0 -5 7 -9 15 -9 8 0 15 4 15 9 0 4 -7 8 -15 8 -8 0 -15
-4 -15 -8z"/>
<path d="M310 1952 c0 -5 7 -9 15 -9 8 0 15 4 15 9 0 4 -7 8 -15 8 -8 0 -15
-4 -15 -8z"/>
<path d="M375 1951 c3 -5 18 -7 32 -5 41 8 41 14 -1 14 -20 0 -35 -4 -31 -9z"/>
<path d="M470 1951 c0 -6 18 -9 39 -8 22 0 37 5 35 9 -7 11 -74 10 -74 -1z"/>
<path d="M750 1950 c0 -12 47 -14 54 -2 2 4 -9 9 -25 10 -16 1 -29 -2 -29 -8z"/>
<path d="M820 1950 c0 -6 7 -13 15 -16 8 -4 15 -14 16 -23 0 -9 3 -11 5 -5 2
5 18 9 34 8 17 -1 30 2 30 6 0 5 2 14 5 22 4 10 -9 14 -50 15 -32 2 -55 -1
-55 -7z"/>
<path d="M280 1912 c0 -18 -7 -21 -52 -25 l-53 -3 61 -2 c55 -2 61 0 59 18 -2
27 -15 38 -15 12z"/>
<path d="M530 1920 c0 -13 18 -22 24 -11 3 5 -1 11 -9 15 -8 3 -15 1 -15 -4z"/>
<path d="M731 1914 c0 -11 3 -14 6 -6 3 7 2 16 -1 19 -3 4 -6 -2 -5 -13z"/>
<path d="M1311 1914 c0 -11 3 -14 6 -6 3 7 2 16 -1 19 -3 4 -6 -2 -5 -13z"/>
<path d="M381 1894 c0 -11 3 -14 6 -6 3 7 2 16 -1 19 -3 4 -6 -2 -5 -13z"/>
<path d="M495 1889 c-27 -4 -7 -7 59 -8 55 0 97 1 95 3 -8 8 -115 11 -154 5z"/>
<path d="M104 1881 c3 -5 15 -7 27 -4 12 4 25 0 30 -8 7 -11 9 -10 9 4 0 13
-8 17 -36 17 -19 0 -33 -4 -30 -9z"/>
<path d="M327 1883 c12 -2 23 -12 25 -21 3 -13 5 -12 10 6 5 20 3 22 -25 21
-23 -1 -26 -3 -10 -6z"/>
<path d="M426 1883 c5 -5 12 -12 16 -18 4 -6 8 -2 8 8 0 9 -7 17 -17 17 -9 0
-12 -3 -7 -7z"/>
<path d="M668 1883 c6 -2 18 -2 25 0 6 3 1 5 -13 5 -14 0 -19 -2 -12 -5z"/>
<path d="M723 1879 c9 -5 15 -14 12 -20 -4 -5 -1 -9 4 -9 6 0 11 7 11 15 0 19
90 21 109 3 11 -11 13 -10 9 2 -4 11 -24 16 -84 17 -59 2 -75 0 -61 -8z"/>
<path d="M903 1883 c15 -2 39 -2 55 0 15 2 2 4 -28 4 -30 0 -43 -2 -27 -4z"/>
<path d="M1010 1870 c0 -11 2 -20 4 -20 2 0 6 9 9 20 3 11 1 20 -4 20 -5 0 -9
-9 -9 -20z"/>
<path d="M1060 1886 c0 -2 15 -6 34 -8 19 -2 32 0 30 4 -5 8 -64 12 -64 4z"/>
<path d="M231 1844 c0 -11 3 -14 6 -6 3 7 2 16 -1 19 -3 4 -6 -2 -5 -13z"/>
<path d="M446 1839 c3 -6 0 -15 -7 -20 -11 -7 -10 -9 4 -9 10 0 17 8 17 20 0
11 -5 20 -11 20 -5 0 -7 -5 -3 -11z"/>
<path d="M871 1838 c-1 -13 -13 -18 -58 -21 -37 -2 -25 -3 32 -4 50 0 78 2 63
4 -15 2 -29 12 -31 21 -4 16 -5 16 -6 0z"/>
<path d="M513 1813 c26 -2 47 -8 47 -14 0 -5 7 -9 15 -9 8 0 15 4 15 10 0 5
35 11 78 13 42 1 14 3 -63 3 -77 0 -119 -1 -92 -3z"/>
<path d="M980 1809 c68 -11 220 -11 220 1 0 6 -50 9 -132 8 -97 -1 -121 -3
-88 -9z"/>
<path d="M1373 1783 c9 -2 23 -2 30 0 6 3 -1 5 -18 5 -16 0 -22 -2 -12 -5z"/>
<path d="M255 1760 c3 -5 8 -10 11 -10 2 0 4 5 4 10 0 6 -5 10 -11 10 -5 0 -7
-4 -4 -10z"/>
<path d="M1368 1753 c7 -3 16 -2 19 1 4 3 -2 6 -13 5 -11 0 -14 -3 -6 -6z"/>
<path d="M110 1740 c0 -7 27 -10 71 -9 43 1 65 5 57 10 -19 12 -128 11 -128
-1z"/>
<path d="M273 1742 c-9 -6 -7 -11 7 -20 16 -10 18 -9 13 5 -5 12 -3 14 7 8 9
-5 11 -4 6 3 -8 14 -16 15 -33 4z"/>
<path d="M320 1739 c0 -6 6 -9 13 -6 6 2 19 1 28 -4 8 -4 22 -3 30 3 11 8 11
9 -3 4 -10 -3 -18 -2 -18 2 0 4 -11 9 -25 10 -14 1 -25 -3 -25 -9z"/>
<path d="M416 1741 c8 -8 44 -8 44 1 0 4 -11 7 -25 6 -13 -1 -22 -4 -19 -7z"/>
<path d="M480 1740 c-13 -8 -12 -10 3 -10 9 0 17 5 17 10 0 12 -1 12 -20 0z"/>
<path d="M516 1738 c3 -4 9 -8 15 -8 5 0 9 4 9 8 0 5 -7 9 -15 9 -8 0 -12 -4
-9 -9z"/>
<path d="M625 1740 c3 -5 8 -10 11 -10 2 0 4 5 4 10 0 6 -5 10 -11 10 -5 0 -7
-4 -4 -10z"/>
<path d="M868 1743 c7 -3 16 -2 19 1 4 3 -2 6 -13 5 -11 0 -14 -3 -6 -6z"/>
<path d="M420 1700 c0 -11 4 -20 9 -20 5 0 7 9 4 20 -3 11 -7 20 -9 20 -2 0
-4 -9 -4 -20z"/>
<path d="M515 1709 c-4 -6 -5 -12 -2 -15 2 -3 7 2 10 11 7 17 1 20 -8 4z"/>
<path d="M96 1690 c-19 -6 -19 -7 0 -15 32 -14 74 -12 87 5 10 13 10 13 -5 2
-9 -7 -19 -9 -22 -4 -8 14 -39 20 -60 12z"/>
<path d="M290 1689 c0 -6 -7 -8 -16 -5 -9 3 -12 2 -9 -5 4 -5 16 -7 27 -3 15
4 18 3 13 -6 -5 -9 -4 -11 3 -6 16 10 15 23 -3 30 -8 3 -15 1 -15 -5z"/>
<path d="M477 1689 c7 -7 15 -10 18 -7 3 3 -2 9 -12 12 -14 6 -15 5 -6 -5z"/>
<path d="M203 1675 c0 -8 4 -12 9 -9 4 3 8 9 8 15 0 5 -4 9 -8 9 -5 0 -9 -7
-9 -15z"/>
<path d="M1552 941 c-2 -146 -6 -268 -8 -270 -2 -2 -59 -6 -126 -7 -67 -2
-138 -9 -156 -15 -35 -12 -104 -14 -272 -10 -52 1 -111 -3 -130 -9 -55 -16
-80 -12 -102 15 -11 14 -29 25 -40 25 -18 0 -19 2 -7 18 13 16 13 16 -7 0 -11
-10 -26 -18 -32 -18 -7 0 -12 -6 -12 -12 0 -7 -23 -23 -50 -35 l-50 -22 -10
42 c-28 109 -54 146 -46 67 3 -30 3 -46 0 -36 -8 26 -29 46 -49 46 -12 0 -15
5 -10 21 5 13 3 19 -3 15 -5 -3 -12 5 -14 18 -4 18 0 25 11 25 46 2 51 4 40
18 -8 9 -8 13 0 13 17 0 13 14 -9 38 -17 18 -25 20 -47 11 -21 -8 -36 -6 -65
7 -21 9 -35 21 -32 25 3 5 -7 11 -21 15 -14 3 -25 11 -25 16 0 6 9 8 20 5 10
-3 21 -2 23 2 2 3 3 1 1 -5 -4 -18 71 -47 100 -40 34 8 33 28 -3 68 l-29 33
-51 -19 c-28 -10 -56 -16 -63 -13 -7 2 -1 8 15 12 30 8 33 15 15 34 -8 8 -8
11 -2 8 7 -4 17 -1 23 7 9 11 6 12 -16 8 -21 -4 -25 -2 -20 12 7 16 -4 22 -17
9 -4 -5 -12 -8 -18 -8 -6 0 -17 -10 -25 -22 -13 -19 -12 -24 6 -42 22 -22 28
-37 12 -26 -15 8 -25 -15 -12 -28 6 -6 11 -22 11 -36 0 -15 11 -49 24 -77 13
-27 26 -80 30 -117 4 -37 12 -69 17 -72 5 -4 8 -18 8 -33 -2 -24 -2 -25 -6 -4
-4 22 -5 23 -164 21 l-159 -1 0 -309 0 -309 930 0 930 0 0 254 c0 194 -3 256
-12 260 -10 5 -10 7 0 12 7 4 12 27 12 63 l0 58 -87 8 c-49 4 -105 9 -126 10
-21 2 -41 5 -43 8 -7 7 -24 508 -19 518 3 4 -3 9 -13 11 -16 4 -17 -14 -20
-261z m-1172 -213 c-1 -30 -2 -31 -14 -16 -7 10 -17 14 -21 10 -5 -4 -4 -1 0
7 6 11 4 13 -9 8 -11 -4 -15 -3 -11 4 4 6 13 8 21 5 8 -3 14 -1 14 4 0 6 5 10
10 10 6 0 10 -15 10 -32z m163 -151 c6 3 7 1 3 -5 -4 -7 -11 -12 -15 -12 -9 0
-51 86 -50 103 0 6 12 -12 26 -40 14 -30 30 -50 36 -46z m204 47 c-3 -3 -12
-4 -19 -1 -8 3 -5 6 6 6 11 1 17 -2 13 -5z m-527 -60 c0 -2 -9 -4 -20 -4 -11
0 -20 4 -20 9 0 5 9 7 20 4 11 -3 20 -7 20 -9z m557 -20 c-3 -3 -12 -4 -19 -1
-8 3 -5 6 6 6 11 1 17 -2 13 -5z m866 -1 c-7 -2 -19 -2 -25 0 -7 3 -2 5 12 5
14 0 19 -2 13 -5z m-1473 -23 c0 -5 -5 -10 -11 -10 -5 0 -7 5 -4 10 3 6 8 10
11 10 2 0 4 -4 4 -10z m160 -7 c0 -8 -11 -13 -27 -12 -18 1 -21 3 -10 6 9 2
15 8 13 12 -3 4 1 8 9 8 8 0 15 -6 15 -14z m224 8 c3 -5 -1 -11 -9 -14 -9 -4
-12 -1 -8 9 6 16 10 17 17 5z m466 -1 c11 -7 7 -10 -18 -10 -20 0 -31 4 -27
10 8 13 26 13 45 0z m-300 -10 c0 -5 -7 -7 -15 -4 -8 4 -15 8 -15 10 0 2 7 4
15 4 8 0 15 -4 15 -10z m520 6 c0 -2 -7 -7 -16 -10 -8 -3 -12 -2 -9 4 6 10 25
14 25 6z m295 -6 c-3 -5 -11 -10 -16 -10 -6 0 -7 5 -4 10 3 6 11 10 16 10 6 0
7 -4 4 -10z m-278 -86 c-3 -3 -12 -4 -19 -1 -8 3 -5 6 6 6 11 1 17 -2 13 -5z
m408 -4 c-3 -5 -13 -10 -21 -10 -8 0 -14 5 -14 10 0 6 9 10 21 10 11 0 17 -4
14 -10z m-48 -22 c-3 -8 -6 -5 -6 6 -1 11 2 17 5 13 3 -3 4 -12 1 -19z m-142
-7 c-3 -5 7 -12 22 -14 22 -3 20 -4 -10 -6 -28 -1 -36 2 -31 12 5 8 2 7 -9 -2
-14 -11 -25 -12 -55 -3 -20 7 -53 13 -72 15 -19 2 9 5 63 5 59 1 96 -2 92 -7z
m-40 -35 c43 -12 46 -14 19 -15 -18 -1 -47 6 -65 14 -43 18 -19 19 46 1z m125
-256 c0 -5 -2 -10 -4 -10 -3 0 -8 5 -11 10 -3 6 -1 10 4 10 6 0 11 -4 11 -10z
m87 -5 c0 -6 -6 -12 -12 -12 -6 0 -12 6 -12 12 0 6 6 12 12 12 6 0 12 -6 12
-12z"/>
<path d="M394 1047 c3 -21 17 -37 32 -37 25 0 13 43 -13 46 -12 2 -20 -1 -19
-9z"/>
<path d="M350 1046 c0 -2 7 -7 16 -10 8 -3 12 -2 9 4 -6 10 -25 14 -25 6z"/>
</g>
</svg>
