<?xml version="1.0" standalone="no"?>
<!DOCTYPE svg PUBLIC "-//W3C//DTD SVG 20010904//EN"
 "http://www.w3.org/TR/2001/REC-SVG-20010904/DTD/svg10.dtd">
<svg version="1.0" xmlns="http://www.w3.org/2000/svg"
 width="386.000000pt" height="515.000000pt" viewBox="0 0 386.000000 515.000000"
 preserveAspectRatio="xMidYMid meet">

<g transform="translate(0.000000,515.000000) scale(0.100000,-0.100000)"
fill="#000000" stroke="none">
<path d="M831 4779 c-46 -75 -105 -549 -73 -581 14 -14 20 22 28 165 6 106 8
117 24 112 25 -8 106 -9 118 -1 6 4 11 -34 14 -102 3 -76 9 -116 21 -139 16
-31 47 -46 47 -23 0 6 -5 9 -12 8 -39 -9 -67 226 -34 290 18 36 20 46 6 37
-14 -9 -12 28 5 109 8 38 13 72 11 74 -8 7 -25 -69 -35 -152 -5 -45 -15 -83
-23 -88 -11 -7 -84 -5 -135 3 -16 3 -17 -5 7 128 11 62 30 131 41 152 23 47
17 52 -10 8z m-64 -511 c-2 -24 -4 -5 -4 42 0 47 2 66 4 43 2 -24 2 -62 0 -85z"/>
<path d="M1417 4583 c-4 -3 -7 -29 -7 -57 0 -81 -27 -224 -50 -264 -27 -47
-77 -82 -129 -89 -81 -11 -161 54 -161 131 0 31 14 44 97 96 135 85 197 170
123 170 -74 0 -164 -72 -205 -165 -13 -29 -30 -55 -37 -58 -10 -4 -10 -6 0 -6
7 -1 12 -16 12 -40 0 -74 71 -141 152 -141 104 0 175 78 194 215 l7 50 18 -90
c9 -49 27 -117 38 -150 l21 -60 -4 92 c-8 158 22 285 73 313 49 26 101 -1 101
-53 0 -15 4 -27 10 -27 5 0 21 -23 35 -50 40 -80 95 -89 129 -22 39 77 23 152
-38 177 -51 22 -75 19 -105 -14 -26 -28 -28 -28 -39 -10 -9 13 -24 19 -50 19
-79 0 -124 -87 -126 -242 0 -53 -4 -91 -7 -85 -17 30 -42 191 -43 274 -1 51
-1 93 -2 93 0 0 -4 -3 -7 -7z m-107 -37 c0 -21 -108 -117 -168 -149 -39 -21
-52 -25 -52 -14 0 29 66 113 114 145 50 33 106 43 106 18z m500 -15 c48 -35
30 -166 -25 -188 -23 -8 -55 25 -81 85 -30 66 -30 77 2 108 28 29 59 27 104
-5z"/>
<path d="M1450 3820 c-22 -42 -50 -175 -50 -242 l0 -68 -27 7 c-62 18 -224 -7
-296 -44 -25 -12 -31 -13 -38 -1 -20 30 -52 128 -69 208 -14 67 -18 77 -19 45
-1 -21 -8 -95 -17 -164 -13 -102 -14 -132 -4 -165 8 -26 12 -98 11 -196 -2
-236 7 -243 201 -157 154 68 170 73 293 92 71 12 115 25 152 46 29 16 55 29
58 29 3 0 5 -22 5 -49 0 -105 -137 -312 -226 -341 -83 -28 -261 35 -336 118
-21 23 -38 36 -38 28 0 -19 75 -83 128 -109 41 -20 42 -22 42 -69 0 -68 -22
-115 -62 -133 -18 -8 -85 -29 -148 -45 -136 -36 -379 -152 -427 -203 -49 -53
-92 -113 -108 -149 -7 -19 -23 -99 -35 -179 -19 -128 -23 -213 -31 -774 -6
-346 -7 -644 -4 -661 3 -18 12 -37 20 -44 19 -16 19 -11 0 27 -13 25 -13 110
-5 659 8 551 11 647 30 779 24 173 42 220 121 308 44 50 71 68 190 127 104 52
171 78 267 104 71 19 139 39 151 46 30 16 51 69 51 130 0 27 1 50 3 50 1 0 24
-7 51 -15 99 -30 171 -10 242 67 81 88 155 257 138 316 -4 15 -6 47 -5 72 2
44 -39 183 -76 254 -9 17 -28 80 -43 142 -40 160 -64 202 -90 154z m53 -61
c10 -30 28 -106 42 -169 13 -63 24 -104 25 -90 2 36 70 -141 77 -201 5 -45 3
-51 -29 -83 -32 -32 -114 -66 -160 -66 -57 0 -188 -39 -306 -91 -75 -32 -146
-59 -158 -59 -36 0 -47 60 -41 225 2 77 8 148 12 158 5 13 3 16 -8 12 -23 -9
-28 30 -16 130 6 50 13 97 15 105 3 8 16 -18 30 -59 13 -40 34 -92 46 -114 19
-36 23 -39 26 -20 5 35 114 67 227 68 50 0 97 -2 105 -5 12 -4 16 12 21 85 9
126 40 240 63 232 6 -2 19 -28 29 -58z"/>
<path d="M1340 3345 c-29 -31 -31 -82 -5 -101 44 -32 115 -2 115 49 0 23 -52
77 -74 77 -7 0 -23 -11 -36 -25z m56 3 c4 -6 -4 -19 -19 -30 -15 -11 -27 -26
-27 -34 0 -8 -4 -14 -10 -14 -18 0 -11 49 10 70 23 23 36 25 46 8z m5 -65 c-8
-15 -10 -15 -11 -2 0 17 10 32 18 25 2 -3 -1 -13 -7 -23z m14 -21 c-15 -16
-16 -15 -4 12 7 15 15 23 17 16 3 -7 -3 -19 -13 -28z m-36 -17 c0 -5 -4 -3 -9
5 -5 8 -9 22 -9 30 0 16 17 -16 18 -35z"/>
<path d="M1085 3306 c-16 -10 -21 -25 -20 -58 0 -37 3 -43 23 -46 49 -7 110
65 80 94 -22 21 -61 26 -83 10z m31 -37 c-3 -17 -6 -38 -6 -45 0 -20 -29 -17
-37 2 -3 9 -1 25 6 36 6 10 9 23 6 28 -4 6 4 10 16 10 19 0 21 -4 15 -31z m44
16 c0 -8 -2 -15 -4 -15 -2 0 -6 7 -10 15 -3 8 -1 15 4 15 6 0 10 -7 10 -15z"/>
<path d="M2010 3013 c-30 -2 -118 -12 -195 -23 -140 -20 -225 -43 -225 -61 0
-5 10 -3 23 5 29 18 47 22 211 46 173 25 324 25 497 0 192 -28 223 -40 275
-112 20 -26 64 -111 98 -188 35 -77 70 -148 80 -158 9 -11 38 -72 64 -138 27
-65 92 -216 144 -334 53 -118 117 -273 144 -345 26 -71 84 -200 127 -285 67
-130 98 -201 133 -299 2 -8 7 -11 10 -9 9 10 -64 181 -136 320 -37 73 -100
214 -138 313 -38 99 -102 252 -142 340 -40 88 -101 230 -135 315 -35 85 -68
154 -73 153 -5 -1 -22 28 -37 65 -89 213 -154 309 -228 336 -80 30 -388 67
-497 59z"/>
<path d="M2455 2400 c97 -29 215 -89 240 -123 18 -26 20 -46 23 -258 2 -126 7
-229 10 -229 4 0 5 105 2 232 -6 248 -8 261 -58 296 -42 31 -194 91 -243 97
-35 4 -30 1 26 -15z"/>
<path d="M2192 2340 c2 -7 40 -24 83 -39 138 -47 243 -110 272 -164 31 -57 19
-279 -23 -437 -5 -17 -4 -22 4 -15 13 13 39 150 48 253 9 113 -2 185 -34 224
-40 48 -132 103 -230 137 -48 17 -95 36 -106 42 -13 8 -17 7 -14 -1z"/>
<path d="M1929 2275 c-3 -11 -2 -49 2 -85 4 -36 13 -108 18 -160 6 -52 26
-144 44 -205 47 -152 52 -181 32 -211 -12 -18 -24 -24 -52 -24 -30 0 -189 37
-202 47 -2 1 3 11 11 20 23 27 28 63 14 98 -16 38 -54 67 -122 93 -37 15 -50
25 -52 43 -3 28 46 80 93 98 l30 11 -30 -5 c-57 -11 -123 -82 -110 -117 4 -9
35 -28 71 -43 35 -15 75 -41 89 -57 31 -37 33 -90 5 -118 -26 -26 -35 -25 -54
2 -13 18 -16 19 -16 5 0 -21 7 -21 -129 3 -128 23 -216 56 -283 105 -88 64
-103 53 449 341 114 60 158 68 173 32 10 -23 10 -23 7 2 -2 22 -7 25 -42 27
-31 2 -60 -7 -131 -45 -49 -26 -168 -87 -262 -136 -170 -88 -252 -144 -252
-172 0 -35 106 -102 215 -137 28 -9 106 -26 175 -37 69 -12 169 -32 222 -46
124 -31 172 -31 192 -2 23 33 20 60 -25 208 -27 90 -43 170 -50 240 -22 224
-24 245 -30 225z"/>
<path d="M697 2008 c-83 -111 -136 -314 -137 -526 0 -112 -9 -100 178 -231 74
-51 165 -117 203 -146 76 -59 105 -73 121 -57 8 8 5 9 -8 6 -13 -4 -48 16
-106 60 -48 36 -133 98 -190 137 -57 40 -122 87 -145 106 l-43 34 0 70 c0 257
91 545 180 570 l25 7 -27 1 c-19 1 -34 -8 -51 -31z"/>
<path d="M1012 1993 c-11 -16 -38 -65 -61 -110 -22 -45 -61 -105 -85 -132 -37
-41 -46 -59 -51 -103 -4 -30 -2 -65 4 -80 18 -47 164 -154 301 -219 77 -38
136 -74 157 -95 29 -31 33 -33 33 -15 0 12 -5 21 -11 21 -5 0 -27 13 -47 30
-20 16 -75 46 -122 66 -140 60 -296 182 -301 234 -7 79 1 104 46 155 25 27 66
90 91 140 26 49 56 100 67 113 11 12 16 22 9 22 -6 0 -19 -12 -30 -27z"/>
<path d="M2517 1196 c-28 -22 -20 -39 41 -81 80 -55 152 -124 152 -146 0 -12
-29 -38 -82 -73 -46 -30 -130 -98 -188 -151 -117 -108 -183 -155 -216 -155
-33 0 -77 41 -160 152 -59 77 -80 98 -99 98 -15 0 -29 -9 -36 -22 -18 -33 -6
-155 20 -205 l21 -43 -32 -14 c-22 -9 -37 -10 -45 -3 -9 7 -13 5 -13 -7 0 -12
-27 -30 -82 -56 -74 -34 -84 -37 -90 -22 -6 15 -8 14 -13 -5 -5 -15 -29 -32
-73 -53 -37 -17 -81 -42 -99 -56 l-32 -24 -11 42 c-7 24 -22 80 -35 126 -13
46 -30 119 -36 163 -7 43 -16 79 -20 79 -4 0 -6 -8 -4 -17 2 -10 9 -47 15 -83
6 -36 27 -121 45 -190 19 -69 36 -136 38 -150 l3 -25 12 27 c14 34 62 69 136
102 32 14 60 26 61 26 9 0 26 -94 23 -135 l-3 -50 -38 -3 c-24 -2 -37 -8 -34
-15 2 -7 13 -11 23 -9 10 1 37 5 59 9 55 8 106 35 156 83 l42 40 -6 67 c-4 38
-9 77 -12 89 -5 17 1 24 34 39 23 10 41 20 41 23 0 3 -10 26 -21 50 -28 58
-37 169 -15 197 21 29 38 15 124 -99 100 -133 149 -159 217 -118 17 10 77 62
135 114 l106 95 64 -9 c88 -12 181 -38 187 -54 19 -49 -182 -264 -248 -264
-10 0 -30 11 -46 24 -22 19 -27 32 -28 67 0 24 4 58 8 74 6 22 5 27 -3 19 -20
-20 -24 -107 -6 -142 34 -66 92 -66 172 0 97 81 168 178 162 221 -4 25 -84 53
-188 65 l-65 7 46 35 c26 19 68 47 93 62 82 49 59 94 -101 208 -35 24 -63 47
-63 51 0 5 8 12 17 18 10 5 16 12 13 14 -3 3 -13 0 -23 -7z m-608 -797 c1 -42
-3 -50 -43 -87 -49 -46 -95 -72 -125 -72 -18 0 -19 3 -10 24 9 19 8 41 -5 97
-9 40 -15 74 -13 75 2 2 41 21 88 43 l84 39 12 -37 c6 -20 12 -57 12 -82z"/>
</g>
</svg>
