<?xml version="1.0" standalone="no"?>
<!DOCTYPE svg PUBLIC "-//W3C//DTD SVG 20010904//EN"
 "http://www.w3.org/TR/2001/REC-SVG-20010904/DTD/svg10.dtd">
<svg version="1.0" xmlns="http://www.w3.org/2000/svg"
 width="465.000000pt" height="620.000000pt" viewBox="0 0 465.000000 620.000000"
 preserveAspectRatio="xMidYMid meet">

<g transform="translate(0.000000,620.000000) scale(0.100000,-0.100000)"
fill="#000000" stroke="none">
<path d="M3016 5373 c-15 -32 -53 -100 -83 -152 -52 -88 -57 -93 -83 -88 -46
10 -79 -5 -106 -48 -18 -29 -23 -33 -18 -15 17 62 47 131 74 169 37 50 38 62
4 30 -34 -31 -67 -97 -94 -188 -16 -51 -19 -76 -12 -83 8 -8 19 3 39 37 15 27
36 57 46 67 22 24 64 23 105 -2 42 -26 50 -25 25 3 l-21 22 24 35 c24 34 24
34 24 8 0 -39 10 -58 31 -58 25 0 42 27 90 148 27 66 45 99 49 91 4 -8 16 -51
25 -96 10 -46 22 -83 26 -83 5 0 9 3 9 8 0 19 -41 176 -51 194 -16 29 -29 11
-73 -102 -59 -150 -86 -179 -86 -91 0 39 10 67 50 142 51 96 56 109 42 109 -4
0 -20 -26 -36 -57z"/>
<path d="M2680 5270 c-35 -35 -50 -84 -50 -162 0 -85 11 -132 43 -178 37 -55
50 -46 15 11 -29 45 -33 63 -37 131 -4 101 4 140 36 178 30 36 25 52 -7 20z"/>
<path d="M2331 5196 c-23 -27 -41 -108 -41 -178 0 -98 33 -158 86 -158 8 0 14
6 14 14 0 9 -7 12 -19 9 -23 -6 -49 29 -61 82 -10 46 3 152 25 199 19 39 16
56 -4 32z"/>
<path d="M1724 5033 c8 -147 28 -258 52 -284 26 -29 37 -22 15 9 -26 36 -41
119 -48 275 -4 74 -10 127 -16 127 -6 0 -8 -45 -3 -127z"/>
<path d="M2098 5110 l-47 -41 -16 31 c-19 37 -42 39 -51 4 l-7 -27 -14 27 c-7
14 -21 26 -30 26 -15 0 -15 -1 0 -18 23 -26 30 -86 19 -177 -6 -44 -8 -95 -5
-112 5 -30 8 -32 32 -27 66 16 91 74 81 192 l-6 64 50 39 c27 21 54 39 61 39
8 0 14 -32 18 -102 8 -116 19 -166 46 -199 16 -20 21 -21 35 -10 22 19 20 34
-4 26 -31 -10 -50 47 -57 168 -9 153 -24 166 -105 97z m-68 -48 c0 -8 -11 -27
-25 -44 -28 -33 -29 -30 -14 43 11 48 13 51 25 34 8 -10 14 -25 14 -33z m16
-155 c-5 -48 -31 -87 -56 -87 -17 0 -20 7 -20 53 0 40 7 64 32 107 l32 55 8
-45 c5 -25 7 -62 4 -83z"/>
<path d="M2442 5138 c-20 -26 -42 -78 -33 -78 6 0 17 13 26 30 16 32 49 55 65
45 16 -10 12 -71 -5 -85 -18 -15 -19 -14 -33 25 -11 30 -11 30 -9 -10 2 -33 6
-41 24 -43 38 -6 66 62 47 112 -7 19 -67 22 -82 4z"/>
<path d="M3247 5123 c-2 -5 -7 -24 -11 -43 -8 -45 -38 -94 -71 -116 -39 -26
-55 -6 -56 75 -1 64 -1 65 -11 28 -7 -24 -7 -55 -2 -80 8 -36 13 -42 37 -45
56 -7 109 57 123 147 6 37 2 53 -9 34z"/>
<path d="M1424 5052 c4 -6 13 -46 21 -89 7 -43 18 -90 24 -105 27 -70 88 -89
133 -40 31 33 92 152 78 152 -5 0 -22 -24 -36 -52 -58 -116 -88 -135 -134 -89
-21 21 -30 43 -40 101 -16 99 -24 123 -40 128 -7 3 -10 0 -6 -6z"/>
<path d="M1213 4998 c-5 -7 -20 -42 -33 -78 -12 -36 -34 -87 -48 -115 l-26
-50 -7 73 c-8 86 -28 122 -67 122 l-27 -1 28 -15 c36 -20 47 -50 47 -135 0
-61 2 -70 17 -67 21 4 49 51 89 152 l32 80 11 -60 c31 -153 79 -242 118 -218
20 12 30 44 15 44 -5 0 -12 -10 -15 -22 -5 -18 -9 -19 -21 -9 -28 23 -57 98
-77 202 -11 57 -21 104 -23 106 -2 2 -8 -2 -13 -9z"/>
<path d="M705 4848 c-48 -116 -12 -212 83 -225 35 -5 44 -1 77 29 30 27 37 41
38 72 2 57 -40 91 -122 100 -57 7 -74 17 -51 31 13 8 13 25 -1 25 -5 0 -16
-15 -24 -32z m152 -63 c31 -21 38 -56 19 -94 -19 -36 -44 -51 -83 -51 -65 1
-113 87 -86 155 5 15 15 17 66 11 34 -3 71 -13 84 -21z"/>
<path d="M2787 4380 c-25 -20 -53 -80 -37 -80 5 0 11 9 15 20 9 28 66 73 78
61 11 -11 -15 -96 -38 -127 -17 -23 -19 -34 -5 -34 17 0 60 102 60 143 0 32
-3 37 -24 37 -13 0 -35 -9 -49 -20z"/>
<path d="M2560 4330 c-13 -9 -8 -14 11 -12 4 1 9 -16 13 -36 9 -58 36 -142 45
-142 5 0 19 28 32 63 13 34 25 65 27 70 2 4 -1 7 -6 7 -6 0 -18 -20 -29 -45
-10 -25 -21 -45 -25 -45 -6 0 -28 88 -28 114 0 21 -24 36 -40 26z"/>
<path d="M2302 4285 c-29 -24 -49 -65 -31 -65 5 0 9 5 9 10 0 14 46 60 60 60
5 0 10 -17 10 -37 0 -40 -26 -105 -61 -154 -33 -47 -13 -47 27 0 20 23 49 48
66 57 27 14 31 14 49 -2 10 -9 19 -12 19 -6 0 6 -4 13 -8 16 -11 6 -3 67 10
84 17 20 38 14 38 -12 0 -13 -15 -54 -34 -92 -19 -38 -33 -70 -30 -73 2 -2 20
14 40 38 39 45 88 75 110 67 7 -3 16 -1 19 5 11 17 -22 20 -60 5 -21 -9 -39
-16 -41 -16 -1 0 1 14 6 32 14 46 3 78 -26 78 -30 0 -58 -41 -52 -75 4 -20 1
-25 -14 -25 -11 0 -29 -5 -40 -11 -18 -10 -20 -9 -14 7 15 40 19 104 6 119
-17 20 -24 19 -58 -10z"/>
<path d="M2846 4188 c-71 -48 -79 -51 -91 -35 -13 19 -25 22 -25 8 0 -12 28
-41 40 -41 4 0 42 23 84 51 42 29 80 49 84 45 12 -12 5 -98 -12 -156 -18 -62
-19 -70 -7 -70 13 0 41 122 41 178 0 42 -12 72 -29 72 -4 0 -41 -24 -85 -52z"/>
<path d="M1936 4184 c-3 -9 -6 -34 -6 -57 0 -48 -39 -137 -94 -212 l-37 -50 7
45 c4 25 15 71 25 102 11 32 19 72 19 90 0 59 -30 9 -44 -75 -14 -78 -35 -123
-63 -134 -32 -13 -43 59 -22 155 7 36 18 55 40 72 22 15 28 25 20 33 -7 7 -21
1 -45 -20 -29 -26 -84 -52 -156 -75 -8 -2 -10 -7 -4 -10 5 -4 36 2 68 13 32
11 59 19 61 17 1 -2 -3 -35 -8 -73 -8 -56 -7 -77 4 -100 17 -35 43 -43 67 -21
16 14 17 12 14 -25 -2 -21 0 -39 4 -39 11 1 107 143 126 184 l13 30 11 -55 c7
-34 7 -61 1 -73 -6 -12 -5 -22 2 -29 8 -8 11 -6 11 8 0 17 3 16 18 -8 48 -72
111 -75 127 -5 10 41 -23 68 -85 68 -49 0 -49 0 -56 37 -4 20 -4 78 -1 130 6
85 -1 118 -17 77z m133 -279 c19 -19 -1 -65 -28 -65 -18 0 -71 52 -71 70 0 23
74 19 99 -5z"/>
<path d="M1330 4117 c0 -17 55 -70 68 -66 6 2 -7 21 -29 41 -21 21 -39 32 -39
25z"/>
<path d="M837 4069 c12 -13 31 -46 43 -74 20 -47 20 -50 4 -62 -10 -7 -27 -10
-37 -7 -14 4 -18 2 -15 -7 8 -23 35 -22 67 2 29 21 31 22 50 5 16 -15 17 -23
9 -52 -5 -19 -8 -49 -6 -67 4 -43 37 -49 67 -11 28 35 27 66 -4 102 -14 17
-25 42 -25 57 0 23 -3 27 -22 22 -13 -2 -30 -7 -38 -11 -12 -5 -23 10 -45 56
-20 42 -37 64 -50 67 -19 3 -19 2 2 -20z m137 -124 c-4 -8 -7 -15 -9 -15 -2 0
-5 7 -9 15 -3 9 0 15 9 15 9 0 12 -6 9 -15z m46 -97 c0 -28 -18 -58 -35 -58
-16 0 -20 45 -9 88 6 22 8 22 25 6 11 -9 19 -26 19 -36z"/>
<path d="M1143 4066 c27 -21 47 -98 54 -209 3 -54 9 -99 12 -102 4 -2 20 46
37 106 17 60 28 109 24 109 -9 0 -25 -39 -38 -90 l-9 -35 -7 40 c-25 153 -41
195 -74 195 -16 -1 -16 -2 1 -14z"/>
<path d="M2634 4065 c-4 -11 -15 -25 -23 -32 -14 -11 -14 -12 0 -13 10 0 19
-12 23 -30 7 -37 36 -40 66 -8 31 33 23 72 -15 76 -16 2 -33 9 -37 15 -4 7
-10 4 -14 -8z m66 -43 c0 -21 -18 -42 -37 -42 -8 0 -13 12 -13 30 0 25 4 30
25 30 17 0 25 -5 25 -18z"/>
<path d="M1355 4021 c-9 -16 15 -24 31 -10 13 10 17 10 25 -2 13 -20 11 -45
-6 -86 -8 -19 -15 -38 -15 -40 0 -3 21 14 46 36 26 23 64 46 85 53 22 6 39 15
39 20 0 14 -20 9 -72 -17 -59 -30 -57 -30 -51 -6 8 32 -14 61 -47 61 -16 0
-31 -4 -35 -9z"/>
<path d="M2208 4006 c-22 -16 -23 -30 -3 -22 12 4 15 -5 15 -55 0 -38 4 -58
10 -54 11 7 14 145 3 145 -5 0 -16 -7 -25 -14z"/>
<path d="M1574 3913 c2 -10 10 -43 16 -74 11 -58 33 -99 46 -87 4 4 2 13 -4
20 -9 12 -18 44 -37 131 -3 15 -10 27 -16 27 -6 0 -8 -8 -5 -17z"/>
<path d="M1535 3901 c-6 -11 -108 -71 -119 -71 -4 0 -4 5 -1 10 9 14 -8 13
-23 -2 -41 -41 20 -36 93 7 32 20 59 34 60 33 1 -2 -2 -37 -8 -79 -10 -74 -5
-129 12 -129 4 0 6 24 3 53 -2 28 1 76 6 106 10 55 7 81 -8 81 -5 0 -11 -4
-15 -9z"/>
<path d="M2210 3340 c0 -5 7 -10 16 -10 8 0 12 5 9 10 -3 6 -10 10 -16 10 -5
0 -9 -4 -9 -10z"/>
<path d="M1980 3319 c0 -11 5 -17 10 -14 6 3 10 13 10 21 0 8 -4 14 -10 14 -5
0 -10 -9 -10 -21z"/>
<path d="M1687 3233 c-12 -11 -8 -23 7 -23 7 0 19 7 26 15 10 12 9 15 -7 15
-11 0 -23 -3 -26 -7z"/>
</g>
</svg>
