<?xml version="1.0" standalone="no"?>
<!DOCTYPE svg PUBLIC "-//W3C//DTD SVG 20010904//EN"
 "http://www.w3.org/TR/2001/REC-SVG-20010904/DTD/svg10.dtd">
<svg version="1.0" xmlns="http://www.w3.org/2000/svg"
 width="359.000000pt" height="479.000000pt" viewBox="0 0 359.000000 479.000000"
 preserveAspectRatio="xMidYMid meet">

<g transform="translate(0.000000,479.000000) scale(0.100000,-0.100000)"
fill="#000000" stroke="none">
<path d="M2006 3933 c-8 -82 8 -275 29 -357 14 -54 52 -132 61 -124 2 2 -8 27
-22 54 -35 72 -55 196 -55 357 -1 75 -2 137 -4 137 -2 0 -6 -30 -9 -67z"/>
<path d="M1715 3908 c-28 -16 -80 -60 -79 -67 0 -3 -7 -24 -17 -46 -67 -146
71 -201 185 -74 39 43 76 109 76 136 0 10 -13 -9 -29 -42 -34 -72 -105 -141
-154 -150 -126 -24 -107 133 28 232 31 23 25 31 -10 11z"/>
<path d="M1383 3874 c-7 -18 4 -274 13 -316 4 -17 13 -28 23 -28 12 0 13 2 3
9 -17 11 -35 186 -29 279 5 71 2 88 -10 56z"/>
<path d="M799 3841 c-47 -30 -99 -81 -83 -81 6 0 23 14 40 31 40 42 99 71 137
67 44 -4 60 -41 61 -144 1 -54 4 -77 10 -67 12 21 1 155 -15 185 -16 31 -28
38 -70 38 -22 0 -52 -11 -80 -29z"/>
<path d="M1211 3733 c-43 -53 -39 -66 5 -15 19 23 42 42 50 42 21 0 34 -43 34
-115 0 -53 -4 -68 -25 -94 -24 -27 -130 -89 -140 -80 -2 2 5 45 16 94 11 50
21 106 23 126 2 20 6 43 10 50 4 8 1 6 -8 -4 -8 -11 -18 -38 -21 -60 -4 -23
-16 -64 -26 -90 -11 -26 -19 -64 -19 -85 -1 -33 -2 -35 -14 -19 -21 27 -30 20
-11 -9 17 -27 17 -27 -26 -65 -55 -48 -168 -125 -203 -138 -23 -9 -26 -8 -26
9 0 11 18 64 39 118 44 110 56 160 46 192 -8 26 -26 22 -112 -28 -87 -50 -72
-51 20 -2 l76 41 6 -24 c6 -23 -3 -54 -69 -235 -15 -40 -24 -77 -20 -83 16
-27 146 48 252 146 32 28 72 57 91 63 60 21 120 62 136 92 18 35 20 148 3 185
-17 37 -50 32 -87 -12z m-84 -225 c-3 -7 -5 -2 -5 12 0 14 2 19 5 13 2 -7 2
-19 0 -25z"/>
</g>
</svg>
