<?xml version="1.0" standalone="no"?>
<!DOCTYPE svg PUBLIC "-//W3C//DTD SVG 20010904//EN"
 "http://www.w3.org/TR/2001/REC-SVG-20010904/DTD/svg10.dtd">
<svg version="1.0" xmlns="http://www.w3.org/2000/svg"
 width="534.000000pt" height="712.000000pt" viewBox="0 0 534.000000 712.000000"
 preserveAspectRatio="xMidYMid meet">

<g transform="translate(0.000000,712.000000) scale(0.100000,-0.100000)"
fill="#000000" stroke="none">
<path d="M1916 6426 c-81 -30 -124 -81 -112 -130 4 -16 54 -77 117 -141 143
-149 176 -218 129 -278 -22 -28 -66 -46 -144 -57 -43 -6 -46 -8 -15 -9 58 -2
135 26 163 60 55 65 21 142 -127 291 -61 61 -109 119 -113 134 -16 63 62 123
169 131 49 4 78 0 137 -20 90 -30 105 -28 23 3 -74 28 -175 35 -227 16z"/>
<path d="M2210 6375 c0 -2 18 -14 40 -25 22 -11 40 -18 40 -15 0 2 -18 14 -40
25 -22 11 -40 18 -40 15z"/>
<path d="M2763 6373 c9 -2 25 -2 35 0 9 3 1 5 -18 5 -19 0 -27 -2 -17 -5z"/>
<path d="M2610 6350 c-47 -10 -76 -18 -65 -18 11 -1 61 7 110 17 50 11 79 19
65 19 -14 0 -63 -8 -110 -18z"/>
<path d="M2488 6323 c6 -2 18 -2 25 0 6 3 1 5 -13 5 -14 0 -19 -2 -12 -5z"/>
<path d="M2438 6313 c6 -2 18 -2 25 0 6 3 1 5 -13 5 -14 0 -19 -2 -12 -5z"/>
<path d="M2388 6303 c6 -2 18 -2 25 0 6 3 1 5 -13 5 -14 0 -19 -2 -12 -5z"/>
<path d="M2496 6268 c-13 -18 -16 -51 -16 -155 0 -129 -1 -132 -22 -136 -23
-4 -23 -4 -1 -6 17 -1 23 -9 26 -33 l4 -33 1 37 c2 32 6 37 30 41 l27 4 -27 2
-28 1 0 128 c0 99 3 132 16 150 8 12 13 22 10 22 -3 0 -12 -10 -20 -22z"/>
<path d="M2878 6023 c17 -2 47 -2 65 0 17 2 3 4 -33 4 -36 0 -50 -2 -32 -4z"/>
<path d="M2695 6010 c-47 -6 -48 -7 -10 -7 22 -1 67 3 100 7 l60 7 -50 0 c-27
0 -72 -3 -100 -7z"/>
<path d="M2573 5993 c15 -2 37 -2 50 0 12 2 0 4 -28 4 -27 0 -38 -2 -22 -4z"/>
<path d="M1615 5891 c3 -19 12 -42 21 -52 20 -22 90 -39 156 -38 48 2 46 2
-23 9 -101 10 -130 25 -146 75 -13 38 -13 38 -8 6z"/>
<path d="M2493 5840 c0 -36 2 -50 4 -32 2 17 2 47 0 65 -2 17 -4 3 -4 -33z"/>
<path d="M2507 5665 c3 -60 7 -112 9 -114 7 -7 2 100 -6 164 -6 43 -7 28 -3
-50z"/>
<path d="M2393 5073 c53 -2 141 -2 195 0 53 1 9 3 -98 3 -107 0 -151 -2 -97
-3z"/>
<path d="M2195 5055 c-67 -17 -36 -18 40 -1 33 8 49 14 35 14 -14 0 -47 -6
-75 -13z"/>
<path d="M2717 5063 c18 -2 50 -2 70 0 21 2 7 4 -32 4 -38 0 -55 -2 -38 -4z"/>
<path d="M2848 5053 c12 -2 32 -2 45 0 12 2 2 4 -23 4 -25 0 -35 -2 -22 -4z"/>
<path d="M2933 5043 c9 -2 23 -2 30 0 6 3 -1 5 -18 5 -16 0 -22 -2 -12 -5z"/>
<path d="M2118 5033 c7 -3 16 -2 19 1 4 3 -2 6 -13 5 -11 0 -14 -3 -6 -6z"/>
<path d="M3050 5016 c148 -44 241 -110 286 -202 22 -45 28 -75 33 -154 4 -64
11 -104 20 -112 11 -11 12 -10 3 7 -5 11 -12 61 -14 111 -5 109 -35 180 -102
242 -65 60 -225 134 -285 131 -9 0 18 -10 59 -23z"/>
<path d="M2035 5011 c-41 -18 -310 -261 -339 -305 -8 -13 -22 -52 -31 -87 -9
-35 -28 -85 -41 -110 l-25 -45 -95 -23 c-52 -13 -93 -25 -91 -28 3 -2 42 6 88
17 57 15 104 21 146 18 35 -2 57 0 50 4 -6 4 -29 8 -49 8 -21 0 -38 2 -38 4 0
2 11 23 24 47 14 24 32 76 42 114 16 64 23 75 83 135 135 133 261 238 304 253
23 9 35 16 27 16 -8 0 -33 -8 -55 -18z"/>
<path d="M3535 4496 c72 -23 159 -59 195 -79 67 -37 199 -91 207 -84 2 2 -25
14 -59 27 -35 12 -99 41 -143 65 -69 37 -293 117 -321 114 -5 0 50 -20 121
-43z"/>
<path d="M1290 4377 c-47 -18 -166 -75 -265 -126 -297 -155 -418 -217 -460
-234 -22 -9 -29 -14 -15 -11 30 7 208 94 473 233 109 56 239 118 290 137 51
18 85 33 77 33 -8 0 -53 -14 -100 -32z"/>
<path d="M3990 4312 c8 -5 26 -13 40 -16 17 -5 20 -4 10 2 -8 5 -26 13 -40 16
-17 5 -20 4 -10 -2z"/>
<path d="M4135 4249 c82 -39 233 -94 240 -87 3 2 -27 14 -66 27 -39 12 -109
40 -156 62 -109 50 -123 49 -18 -2z"/>
<path d="M4405 4150 c11 -5 27 -9 35 -9 9 0 8 4 -5 9 -11 5 -27 9 -35 9 -9 0
-8 -4 5 -9z"/>
<path d="M4530 4114 c41 -13 80 -23 85 -23 6 1 -24 12 -65 25 -41 13 -79 23
-85 23 -5 -1 24 -12 65 -25z"/>
<path d="M4720 4056 c187 -65 308 -149 323 -225 9 -42 3 -51 -36 -52 -18 0
-26 -3 -19 -6 7 -3 28 -2 46 1 l34 7 -14 47 c-28 91 -137 171 -321 233 -48 16
-92 29 -97 28 -6 0 32 -15 84 -33z"/>
<path d="M3378 4043 c46 -2 118 -2 160 0 42 1 5 3 -83 3 -88 0 -123 -2 -77 -3z"/>
<path d="M3177 4033 c18 -2 50 -2 70 0 21 2 7 4 -32 4 -38 0 -55 -2 -38 -4z"/>
<path d="M3643 4033 c15 -2 37 -2 50 0 12 2 0 4 -28 4 -27 0 -38 -2 -22 -4z"/>
<path d="M3073 4023 c15 -2 37 -2 50 0 12 2 0 4 -28 4 -27 0 -38 -2 -22 -4z"/>
<path d="M3733 4023 c9 -2 25 -2 35 0 9 3 1 5 -18 5 -19 0 -27 -2 -17 -5z"/>
<path d="M2920 4010 c-41 -6 -42 -7 -10 -8 19 0 58 3 85 8 47 7 48 7 10 7 -22
0 -60 -3 -85 -7z"/>
<path d="M3815 4010 c17 -4 41 -8 55 -8 22 0 22 1 -5 8 -16 4 -41 8 -55 8 -22
0 -22 -1 5 -8z"/>
<path d="M453 3971 c-106 -58 -212 -149 -185 -158 7 -3 34 -16 60 -30 26 -15
65 -35 86 -46 47 -23 308 -109 314 -103 2 3 -55 23 -127 46 -71 22 -176 64
-232 92 l-102 52 49 42 c27 24 85 64 129 89 44 25 76 45 70 45 -5 0 -34 -13
-62 -29z"/>
<path d="M2803 3993 c15 -2 37 -2 50 0 12 2 0 4 -28 4 -27 0 -38 -2 -22 -4z"/>
<path d="M3985 3979 c50 -10 104 -18 120 -18 17 0 -17 9 -75 19 -133 24 -164
24 -45 -1z"/>
<path d="M2058 3983 c12 -2 30 -2 40 0 9 3 -1 5 -23 4 -22 0 -30 -2 -17 -4z"/>
<path d="M2693 3983 c15 -2 39 -2 55 0 15 2 2 4 -28 4 -30 0 -43 -2 -27 -4z"/>
<path d="M4705 3980 c-3 -5 -16 -10 -27 -10 -12 0 -19 -3 -15 -6 9 -9 87 6 87
17 0 12 -37 12 -45 -1z"/>
<path d="M1853 3973 c26 -2 67 -2 90 0 23 2 2 3 -48 3 -49 0 -68 -1 -42 -3z"/>
<path d="M2283 3973 c70 -2 184 -2 255 0 70 1 12 3 -128 3 -140 0 -198 -2
-127 -3z"/>
<path d="M1595 3951 c-66 -8 -111 -17 -100 -18 11 -2 85 6 165 16 80 10 125
19 100 19 -25 -1 -99 -8 -165 -17z"/>
<path d="M4163 3953 c15 -2 37 -2 50 0 12 2 0 4 -28 4 -27 0 -38 -2 -22 -4z"/>
<path d="M4603 3953 c9 -2 25 -2 35 0 9 3 1 5 -18 5 -19 0 -27 -2 -17 -5z"/>
<path d="M4323 3943 c48 -2 126 -2 175 0 48 1 8 3 -88 3 -96 0 -136 -2 -87 -3z"/>
<path d="M1418 3923 c12 -2 30 -2 40 0 9 3 -1 5 -23 4 -22 0 -30 -2 -17 -4z"/>
<path d="M1255 3910 l-60 -7 50 0 c28 -1 73 2 100 7 47 7 48 7 10 7 -22 0 -67
-3 -100 -7z"/>
<path d="M628 3903 c39 -2 105 -2 145 0 39 1 7 3 -73 3 -80 0 -112 -2 -72 -3z"/>
<path d="M390 3890 c-10 -7 12 -8 65 -3 44 3 82 7 84 9 10 9 -135 3 -149 -6z"/>
<path d="M943 3893 c48 -2 125 -2 170 0 45 1 6 3 -88 3 -93 0 -130 -2 -82 -3z"/>
<path d="M4835 3755 l-80 -13 70 5 c39 3 88 8 110 13 69 13 -9 9 -100 -5z"/>
<path d="M4698 3733 c12 -2 30 -2 40 0 9 3 -1 5 -23 4 -22 0 -30 -2 -17 -4z"/>
<path d="M4603 3723 c15 -2 37 -2 50 0 12 2 0 4 -28 4 -27 0 -38 -2 -22 -4z"/>
<path d="M4488 3713 c18 -2 45 -2 60 0 15 2 0 4 -33 4 -33 0 -45 -2 -27 -4z"/>
<path d="M4358 3703 c17 -2 47 -2 65 0 17 2 3 4 -33 4 -36 0 -50 -2 -32 -4z"/>
<path d="M4228 3693 c17 -2 47 -2 65 0 17 2 3 4 -33 4 -36 0 -50 -2 -32 -4z"/>
<path d="M4098 3683 c17 -2 47 -2 65 0 17 2 3 4 -33 4 -36 0 -50 -2 -32 -4z"/>
<path d="M3450 3654 c-17 -15 -47 -59 -67 -98 -68 -136 -176 -321 -210 -364
-60 -74 -199 -170 -302 -207 -20 -8 -29 -14 -21 -14 25 -1 139 57 205 104 34
24 84 68 111 98 43 47 156 239 237 402 29 58 53 83 93 95 24 7 25 8 7 9 -12 1
-36 -11 -53 -25z"/>
<path d="M3968 3673 c17 -2 47 -2 65 0 17 2 3 4 -33 4 -36 0 -50 -2 -32 -4z"/>
<path d="M3628 3663 c56 -2 148 -2 205 0 56 1 10 3 -103 3 -113 0 -159 -2
-102 -3z"/>
<path d="M769 3614 c18 -8 47 -17 65 -20 17 -2 4 4 -29 16 -70 23 -84 25 -36
4z"/>
<path d="M883 3583 c9 -2 23 -2 30 0 6 3 -1 5 -18 5 -16 0 -22 -2 -12 -5z"/>
<path d="M948 3573 c12 -2 32 -2 45 0 12 2 2 4 -23 4 -25 0 -35 -2 -22 -4z"/>
<path d="M1043 3563 c15 -2 39 -2 55 0 15 2 2 4 -28 4 -30 0 -43 -2 -27 -4z"/>
<path d="M1153 3553 c15 -2 39 -2 55 0 15 2 2 4 -28 4 -30 0 -43 -2 -27 -4z"/>
<path d="M1365 3530 c72 -11 135 -18 140 -17 13 5 -130 26 -210 32 -33 3 -1
-4 70 -15z"/>
<path d="M1533 3503 c9 -2 23 -2 30 0 6 3 -1 5 -18 5 -16 0 -22 -2 -12 -5z"/>
<path d="M1648 3493 c39 -2 105 -2 145 0 39 1 7 3 -73 3 -80 0 -112 -2 -72 -3z"/>
<path d="M1892 3483 c37 -6 74 -51 133 -163 76 -144 154 -217 323 -303 89 -45
143 -67 165 -66 29 1 28 2 -11 10 -24 4 -98 36 -165 71 -160 82 -221 142 -303
292 -71 132 -101 167 -141 165 l-28 -2 27 -4z"/>
<path d="M2755 2960 l-40 -7 35 -1 c19 0 46 4 60 8 32 10 2 10 -55 0z"/>
<path d="M2588 2943 c23 -2 61 -2 85 0 23 2 4 4 -43 4 -47 0 -66 -2 -42 -4z"/>
<path d="M2831 2896 c-20 -23 -26 -93 -10 -112 7 -8 35 -27 62 -41 110 -55
127 -111 56 -188 -51 -55 -38 -60 15 -6 76 78 56 146 -62 209 -33 18 -63 39
-66 49 -10 26 13 85 31 79 9 -4 13 -1 11 6 -6 18 -24 20 -37 4z"/>
<path d="M2372 2867 c-6 -7 -16 -42 -22 -77 -14 -79 -6 -106 50 -166 45 -49
58 -98 41 -156 -15 -49 -8 -60 13 -20 14 27 14 60 0 129 -2 13 -24 45 -49 73
-49 56 -55 82 -34 166 13 51 21 55 38 18 16 -37 27 -22 11 16 -13 32 -31 38
-48 17z"/>
<path d="M2605 2846 c-75 -33 -70 -72 15 -109 45 -19 63 -33 71 -54 13 -35 5
-93 -21 -144 -12 -22 -16 -39 -10 -39 19 0 52 91 52 142 0 60 -17 81 -89 114
-80 35 -68 63 42 89 l50 13 -40 1 c-22 0 -54 -6 -70 -13z"/>
<path d="M2859 2308 c-7 -13 -18 -27 -25 -31 -8 -4 -14 -15 -14 -24 0 -13 2
-14 17 -2 15 12 16 12 10 -5 -11 -27 11 -84 34 -91 46 -15 94 57 69 104 -6 12
-22 24 -35 27 -16 4 -25 13 -25 25 0 26 -17 24 -31 -3z m74 -59 c15 -23 0 -67
-25 -75 -27 -8 -48 18 -48 62 0 30 2 32 31 31 18 -1 36 -9 42 -18z"/>
<path d="M2380 2200 c0 -5 9 -14 19 -19 19 -10 111 -127 111 -139 0 -7 -95
-72 -104 -72 -2 0 -7 10 -11 23 -7 20 -8 19 -12 -11 -3 -24 -12 -36 -36 -49
-18 -9 -27 -18 -20 -20 7 -2 22 1 33 7 26 14 22 18 43 -52 17 -53 63 -125 74
-114 3 3 -5 19 -17 36 -27 38 -64 151 -52 159 5 3 32 21 60 39 l51 33 51 -15
c29 -9 73 -33 101 -57 27 -23 52 -40 54 -37 14 13 -112 111 -136 105 -10 -3
-25 0 -34 7 -14 10 -7 17 47 49 64 38 102 46 112 25 3 -7 4 -4 3 7 -4 31 -59
23 -128 -20 -33 -20 -61 -35 -63 -34 -1 2 -13 20 -26 39 -28 42 -101 120 -112
120 -4 0 -8 -4 -8 -10z"/>
<path d="M2187 1970 c-26 -16 -47 -37 -47 -47 0 -14 5 -12 28 9 41 38 65 48
122 48 32 0 49 4 45 10 -3 6 -28 10 -54 10 -35 0 -59 -8 -94 -30z"/>
</g>
</svg>
