<?xml version="1.0" standalone="no"?>
<!DOCTYPE svg PUBLIC "-//W3C//DTD SVG 20010904//EN"
 "http://www.w3.org/TR/2001/REC-SVG-20010904/DTD/svg10.dtd">
<svg version="1.0" xmlns="http://www.w3.org/2000/svg"
 width="430.000000pt" height="573.000000pt" viewBox="0 0 430.000000 573.000000"
 preserveAspectRatio="xMidYMid meet">

<g transform="translate(0.000000,573.000000) scale(0.100000,-0.100000)"
fill="#000000" stroke="none">
<path d="M1084 4372 c-94 -33 -132 -74 -66 -71 17 1 21 3 10 6 -30 8 -21 19
31 42 51 22 119 30 139 17 32 -20 5 -86 -78 -190 -52 -65 -58 -78 -39 -72 115
32 132 35 151 25 18 -10 20 -18 15 -75 -7 -95 -58 -189 -126 -234 -57 -38 -83
-70 -57 -70 9 0 37 20 64 44 38 33 65 47 118 60 80 21 117 34 94 35 -16 1
-111 -22 -142 -34 -12 -5 -8 10 18 59 36 67 55 147 46 192 -7 40 -42 50 -107
32 -30 -8 -55 -13 -55 -11 0 2 18 25 39 51 100 121 109 213 19 212 -13 -1 -46
-9 -74 -18z"/>
<path d="M1999 4364 c-42 -50 -1 -402 61 -523 10 -20 28 -45 41 -56 l23 -20
-17 25 c-55 79 -92 208 -106 376 -11 124 -7 169 17 197 8 9 10 17 5 17 -6 0
-16 -7 -24 -16z"/>
<path d="M1862 4328 c-41 -53 -146 -368 -122 -368 4 0 29 34 55 75 25 41 56
80 67 86 24 13 44 -3 89 -73 17 -27 34 -47 37 -44 6 7 -52 98 -78 121 -33 30
-66 12 -110 -58 -22 -34 -40 -57 -40 -52 0 25 65 215 91 268 28 55 32 70 11
45z"/>
<path d="M2250 4304 c-25 -20 -58 -43 -75 -52 -16 -8 -24 -17 -18 -19 7 -3 26
5 43 17 16 12 30 20 30 18 0 -3 -10 -24 -22 -49 -12 -24 -23 -68 -26 -96 -4
-50 -3 -53 18 -53 24 0 90 62 161 150 20 25 39 43 42 40 4 -3 9 -43 13 -88 8
-94 12 -94 65 -7 18 30 40 55 49 55 23 0 48 -59 61 -143 14 -85 18 -102 25
-95 9 10 -18 153 -38 200 -11 26 -27 49 -35 53 -20 7 -48 -18 -82 -75 l-26
-45 -7 74 c-10 101 -20 108 -71 46 -66 -79 -143 -155 -157 -155 -35 0 23 171
77 224 40 40 23 40 -27 0z"/>
<path d="M1382 4278 c-23 -28 -80 -308 -70 -339 2 -7 15 8 27 34 33 69 64 89
126 85 27 -3 59 -8 69 -13 13 -6 17 -5 13 3 -12 19 -77 34 -115 27 -23 -4 -49
-20 -70 -43 l-34 -36 7 44 c12 83 45 213 57 227 6 8 19 11 31 7 13 -4 17 -2
13 5 -10 15 -41 14 -54 -1z"/>
<path d="M1583 4262 c-43 -59 -82 -152 -64 -152 6 0 11 7 11 15 0 21 43 104
69 135 19 23 22 24 34 8 7 -9 21 -50 31 -92 10 -42 21 -76 26 -76 9 0 -25 143
-41 172 -14 26 -42 22 -66 -10z"/>
<path d="M1561 3932 c-18 -35 -13 -77 13 -101 28 -26 90 -37 128 -22 26 10 65
67 54 78 -3 3 -9 -3 -12 -13 -20 -56 -79 -77 -138 -49 -41 20 -55 53 -37 92
14 31 7 43 -8 15z"/>
</g>
</svg>
