<?xml version="1.0" standalone="no"?>
<!DOCTYPE svg PUBLIC "-//W3C//DTD SVG 20010904//EN"
 "http://www.w3.org/TR/2001/REC-SVG-20010904/DTD/svg10.dtd">
<svg version="1.0" xmlns="http://www.w3.org/2000/svg"
 width="390.000000pt" height="520.000000pt" viewBox="0 0 390.000000 520.000000"
 preserveAspectRatio="xMidYMid meet">

<g transform="translate(0.000000,520.000000) scale(0.100000,-0.100000)"
fill="#000000" stroke="none">
<path d="M2189 4147 c-41 -29 -108 -78 -149 -108 -104 -77 -98 -75 -110 -30
-12 45 -33 56 -88 46 -74 -14 -133 -57 -132 -97 1 -7 8 -1 16 14 16 31 71 62
126 72 45 8 68 -11 68 -59 0 -28 -9 -40 -69 -89 -68 -56 -127 -120 -149 -163
-14 -25 -16 -73 -3 -73 4 0 6 10 4 23 -6 33 51 110 138 187 72 63 74 64 77 38
2 -14 -8 -59 -22 -100 -13 -40 -22 -75 -20 -77 7 -8 36 73 51 143 8 39 17 74
21 78 26 26 310 228 321 228 26 0 5 -89 -53 -229 -31 -74 -56 -136 -56 -138 0
-11 30 4 93 46 164 112 189 92 125 -101 -17 -54 -29 -100 -25 -104 10 -11 50
4 94 33 72 49 165 124 160 130 -3 2 -40 -23 -82 -56 -80 -64 -124 -91 -148
-91 -12 0 -9 18 14 83 30 86 37 168 17 185 -19 15 -75 -7 -152 -61 -37 -26
-69 -47 -71 -47 -2 0 18 53 45 119 70 168 85 251 45 251 -7 0 -46 -24 -86 -53z"/>
<path d="M955 4023 c-113 -41 -156 -102 -105 -148 11 -10 20 -13 20 -8 0 6 -7
16 -15 23 -19 16 -19 39 1 61 14 15 18 16 30 4 8 -7 14 -24 14 -37 0 -13 7
-51 16 -83 9 -33 17 -68 18 -77 0 -10 3 -18 6 -18 10 0 132 151 156 194 62
108 6 143 -141 89z m148 -4 c15 -24 -30 -109 -98 -187 l-55 -63 -10 26 c-6 15
-16 65 -24 111 l-13 83 43 17 c94 36 140 40 157 13z"/>
<path d="M1546 4033 c-10 -34 -36 -268 -43 -383 -6 -123 2 -160 35 -160 10 0
27 7 38 16 20 16 13 16 -31 -2 -26 -10 -38 42 -31 136 11 142 36 353 46 383 5
15 5 27 0 27 -5 0 -11 -8 -14 -17z"/>
<path d="M1260 3911 c0 -5 -3 -16 -6 -25 -3 -9 -1 -16 5 -16 6 0 11 9 11 20 0
11 7 20 15 20 12 0 15 -14 15 -64 0 -56 -5 -75 -40 -142 -22 -43 -40 -80 -40
-83 0 -2 10 5 23 17 33 31 71 42 142 42 37 0 67 5 71 12 8 13 -130 4 -171 -12
l-23 -9 23 52 c29 65 39 117 31 162 -6 29 -11 35 -31 35 -14 0 -25 -4 -25 -9z"/>
<path d="M970 3735 c7 -8 17 -15 22 -15 6 0 5 7 -2 15 -7 8 -17 15 -22 15 -6
0 -5 -7 2 -15z"/>
<path d="M961 3659 c-60 -27 -258 -157 -265 -174 -3 -8 -1 -17 4 -20 6 -4 10
1 10 9 0 23 256 186 293 186 22 0 22 -37 1 -161 -17 -95 -15 -129 6 -129 7 0
8 6 1 18 -6 12 -5 45 5 97 18 104 18 181 1 188 -8 3 -33 -3 -56 -14z"/>
<path d="M1063 3621 c9 -74 123 -232 165 -231 12 1 10 4 -8 14 -52 29 -144
168 -142 217 0 16 -4 32 -10 35 -8 5 -9 -6 -5 -35z"/>
<path d="M1145 2726 c6 -45 5 -50 -21 -71 -33 -26 -27 -55 10 -55 30 0 26 12
60 -210 13 -91 28 -173 31 -182 5 -13 -5 -23 -44 -42 -92 -47 -145 -107 -107
-122 8 -3 16 -14 19 -25 3 -11 14 -19 26 -19 11 0 25 -9 31 -20 8 -14 21 -20
47 -20 31 0 44 8 85 50 26 27 48 58 48 67 0 10 7 27 15 37 27 35 19 63 -21 76
-19 7 -46 9 -59 6 -21 -5 -24 -2 -34 44 -11 49 -61 390 -61 412 0 7 18 9 55 5
110 -11 305 -130 305 -185 0 -12 -16 -34 -37 -51 -21 -17 -32 -31 -26 -31 6 0
25 12 42 26 69 57 21 130 -136 206 -60 29 -105 43 -147 47 l-60 6 -8 44 c-10
61 -22 67 -13 7z m15 -96 c0 -13 -7 -20 -18 -20 -26 0 -34 11 -21 27 17 20 39
16 39 -7z m137 -466 c-3 -3 -12 -4 -19 -1 -8 3 -5 6 6 6 11 1 17 -2 13 -5z
m-87 -8 c0 -2 -7 -7 -16 -10 -8 -3 -12 -2 -9 4 6 10 25 14 25 6z m15 -16 c-3
-5 0 -10 8 -10 13 0 42 -48 33 -57 -2 -2 -23 -3 -46 -1 l-42 3 22 28 c12 15
17 27 11 27 -6 0 -21 -16 -33 -35 -13 -20 -31 -35 -42 -35 -18 0 -18 2 5 26
20 23 77 64 87 64 2 0 0 -4 -3 -10z m83 -13 c2 -10 -2 -25 -9 -33 -11 -13 -14
-12 -25 8 -8 13 -13 29 -14 36 0 20 44 10 48 -11z m-138 9 c0 -2 -8 -10 -17
-17 -16 -13 -17 -12 -4 4 13 16 21 21 21 13z m-63 -51 c-7 -14 -18 -25 -26
-25 -10 0 -7 8 9 25 29 31 31 31 17 0z m43 -56 c0 -15 -4 -19 -16 -15 -9 3
-18 6 -20 6 -2 0 -4 7 -4 15 0 8 9 15 20 15 14 0 20 -7 20 -21z m36 -7 c-22
-5 -30 3 -21 18 5 8 11 7 22 -2 15 -12 14 -13 -1 -16z m80 13 c-11 -8 -24 -15
-30 -15 -5 0 -1 7 10 15 10 8 24 14 29 14 6 0 1 -6 -9 -14z m-20 -41 c-30 -26
-76 -30 -84 -6 -2 8 8 12 30 13 18 0 42 4 53 9 32 14 32 11 1 -16z"/>
<path d="M1917 2759 c7 -8 19 -75 27 -148 14 -114 34 -224 51 -282 3 -9 -4
-21 -20 -29 -14 -7 -25 -17 -25 -22 0 -5 5 -6 12 -2 7 4 8 3 4 -5 -4 -6 -11
-9 -16 -6 -10 6 -57 -49 -78 -93 -13 -26 -14 -37 -4 -52 7 -11 12 -31 12 -46
0 -34 17 -64 36 -64 8 0 32 16 52 36 20 19 49 38 65 41 73 15 77 133 6 208
-34 37 -54 109 -74 270 -8 66 -17 133 -20 149 l-5 29 52 -7 c108 -14 355 -110
365 -142 2 -6 -8 -16 -23 -23 -15 -6 -24 -14 -21 -17 7 -7 67 24 67 35 0 35
-203 123 -364 157 -39 8 -80 17 -91 21 -16 5 -18 3 -8 -8z m93 -463 c0 -2 -7
-7 -16 -10 -8 -3 -12 -2 -9 4 6 10 25 14 25 6z m-24 -65 c-41 -61 -53 -114
-32 -146 14 -21 13 -24 -3 -39 -28 -25 -49 -20 -56 16 -6 23 -3 35 8 43 11 8
13 15 6 22 -7 7 -4 23 11 53 12 23 19 44 16 48 -3 3 -16 -18 -28 -46 -21 -46
-38 -66 -38 -44 0 15 61 104 67 98 3 -3 19 6 35 19 46 39 51 30 14 -24z m37
-1 c-3 -11 -9 -17 -15 -14 -5 3 -4 12 3 20 16 19 18 18 12 -6z m37 -34 c0 -18
-7 -41 -15 -52 -13 -18 -14 -17 -15 16 0 46 10 81 21 74 5 -3 9 -20 9 -38z
m-47 -26 c-7 -28 -13 -25 -13 6 0 14 4 23 9 20 5 -3 7 -15 4 -26z m67 -14 c0
-8 -9 -24 -20 -37 l-20 -24 17 38 c18 40 23 45 23 23z m-107 -39 c3 -22 2 -35
-4 -32 -5 4 -9 22 -9 42 0 45 5 40 13 -10z m14 6 c-3 -10 -5 -4 -5 12 0 17 2
24 5 18 2 -7 2 -21 0 -30z"/>
<path d="M1990 2562 c1 -18 18 -32 32 -27 20 8 233 -97 271 -133 15 -14 27
-21 27 -14 0 18 -58 56 -170 112 -106 54 -160 74 -160 62z"/>
</g>
</svg>
