<?xml version="1.0" standalone="no"?>
<!DOCTYPE svg PUBLIC "-//W3C//DTD SVG 20010904//EN"
 "http://www.w3.org/TR/2001/REC-SVG-20010904/DTD/svg10.dtd">
<svg version="1.0" xmlns="http://www.w3.org/2000/svg"
 width="604.000000pt" height="805.000000pt" viewBox="0 0 604.000000 805.000000"
 preserveAspectRatio="xMidYMid meet">

<g transform="translate(0.000000,805.000000) scale(0.100000,-0.100000)"
fill="#000000" stroke="none">
<path d="M3250 6780 c0 -5 -6 -9 -12 -7 -15 3 -47 -58 -51 -99 -2 -16 -6 -35
-10 -40 -8 -14 -22 -96 -18 -109 1 -5 0 -7 -4 -3 -4 4 -30 -2 -59 -12 -64 -25
-71 -25 -108 1 -19 14 -66 27 -134 39 -57 9 -107 20 -110 23 -3 3 14 18 38 34
23 15 46 32 49 36 3 5 9 8 13 8 20 -3 26 1 26 19 0 19 -11 25 -35 20 -5 -1
-17 -3 -26 -5 -27 -5 -96 -52 -113 -77 -43 -61 -12 -86 137 -112 101 -17 120
-26 88 -37 -29 -11 -38 -39 -18 -54 10 -7 17 -15 17 -18 0 -5 -135 -106 -237
-177 -64 -43 -73 -59 -50 -78 9 -8 26 -3 62 20 58 35 158 110 163 121 2 4 9 7
16 7 11 0 108 92 138 131 13 17 118 56 128 48 3 -2 4 -8 2 -14 -2 -5 -4 -68
-6 -139 -2 -125 -1 -130 23 -157 14 -16 31 -29 39 -29 7 0 10 -4 7 -10 -3 -5
-1 -11 4 -11 26 -3 30 -4 37 -11 14 -15 88 -8 129 12 38 19 100 71 133 114 24
30 23 92 -2 115 -48 45 -144 46 -239 2 -38 -17 -72 -31 -76 -31 -3 0 -2 41 4
92 l10 91 100 37 c98 36 115 50 96 79 -8 12 -16 11 -53 -4 -23 -9 -62 -23 -85
-30 l-41 -12 -4 28 c-3 16 -2 26 1 23 5 -4 25 55 35 105 1 7 13 21 25 30 21
16 22 19 6 34 -18 19 -35 22 -35 7z m197 -481 c19 -6 30 -17 29 -27 -2 -27
-93 -109 -141 -128 -55 -20 -75 -14 -72 23 2 25 -2 28 -30 31 -18 2 -33 7 -33
12 0 17 76 71 120 85 56 17 88 18 127 4z"/>
<path d="M2429 6541 c-24 -16 -52 -38 -62 -50 -10 -13 -28 -22 -40 -21 -63 6
-69 -2 -112 -160 -32 -117 -58 -159 -94 -153 -14 2 -35 5 -46 6 -11 1 -29 10
-39 19 -10 10 -24 15 -29 11 -6 -3 -7 -1 -4 4 4 6 0 17 -9 24 -11 9 -15 27
-12 63 2 41 0 51 -13 54 -29 5 -49 -26 -46 -71 1 -24 7 -41 14 -40 6 1 9 -6 6
-16 -2 -10 2 -25 11 -34 19 -18 82 -58 99 -61 6 -2 20 -6 30 -11 10 -4 35 -5
55 -2 41 7 98 63 108 107 17 72 21 74 46 30 24 -42 76 -62 152 -59 67 3 126
17 126 31 0 5 4 7 8 4 5 -3 24 7 42 22 30 26 31 29 16 44 -15 15 -20 14 -73
-13 -63 -32 -127 -42 -179 -27 -41 11 -54 34 -52 87 l1 40 51 -4 c87 -6 142
18 189 85 18 26 24 85 7 75 -5 -3 -7 0 -4 8 6 16 -35 37 -75 37 -15 0 -47 -13
-72 -29z m65 -23 c-5 -7 -2 -9 8 -5 9 3 24 -1 35 -9 10 -9 13 -13 7 -10 -7 3
-14 -3 -17 -14 -10 -38 -115 -79 -140 -54 -3 3 20 28 51 55 61 51 67 56 56 37z"/>
<path d="M4139 6537 c-22 -17 -47 -58 -53 -87 -3 -14 -11 -45 -18 -69 -15 -49
-24 -52 -118 -37 -25 4 -45 6 -45 4 0 -2 -11 7 -24 19 -18 17 -25 35 -27 69
-2 26 -8 50 -15 55 -18 11 -39 0 -39 -21 0 -10 -6 -23 -14 -29 -8 -7 -36 -54
-62 -106 -27 -52 -50 -92 -53 -90 -2 3 -6 33 -8 67 -2 35 -6 83 -10 108 -3 25
-6 48 -5 52 1 3 -5 12 -13 18 -11 9 -15 10 -15 1 0 -7 -4 -9 -10 -6 -15 9 -16
-10 -7 -135 4 -52 8 -138 8 -190 1 -52 5 -101 11 -107 20 -25 37 -12 53 40 17
49 109 243 124 260 4 4 20 -4 35 -18 15 -14 32 -23 37 -20 5 4 9 2 9 -3 0 -16
61 -27 158 -31 11 -1 13 -13 8 -48 -3 -27 -8 -98 -12 -160 -7 -109 -8 -113
-40 -149 -49 -53 -95 -126 -89 -142 2 -7 1 -11 -4 -8 -26 17 -41 -113 -17
-150 15 -22 23 -24 92 -24 67 0 78 3 101 26 22 22 25 31 20 72 -4 26 -9 91
-13 144 l-7 97 39 36 c56 52 91 69 159 75 56 5 60 7 60 30 0 21 -5 26 -34 28
-54 5 -93 -5 -154 -42 l-57 -35 -1 42 c-1 23 0 47 1 52 2 6 5 30 6 55 6 76 18
106 52 135 38 32 41 68 5 73 -13 2 -23 10 -23 18 0 23 31 77 52 92 14 10 16
17 8 33 -12 22 -28 24 -51 6z m-105 -779 c4 -54 4 -98 -1 -99 -4 0 -27 -2 -50
-5 -72 -8 -78 36 -16 139 20 34 36 68 36 75 0 11 3 11 13 0 6 -7 15 -57 18
-110z"/>
<path d="M1407 6480 c-20 -23 -53 -98 -63 -142 -1 -5 -3 -10 -4 -13 -1 -3 -3
-8 -5 -12 -1 -5 -9 -25 -18 -45 -10 -21 -17 -44 -17 -52 0 -8 -4 -17 -9 -20
-7 -4 -34 -85 -36 -106 0 -3 -3 -9 -6 -15 -8 -12 -20 -62 -24 -92 -5 -39 37
-62 102 -59 61 4 179 58 236 107 40 35 55 36 63 4 7 -29 49 -54 79 -47 43 10
120 76 109 94 -4 7 -2 8 4 4 18 -11 54 70 54 117 -1 44 -67 81 -123 68 -37 -9
-103 -43 -133 -69 -21 -19 -50 -72 -40 -72 13 0 -40 -51 -81 -79 -81 -55 -201
-93 -211 -67 -3 7 20 84 51 170 31 86 58 162 59 169 2 7 15 38 29 70 24 51 30
57 57 57 37 0 50 25 24 45 -32 24 -70 18 -97 -15z m391 -266 c19 -6 22 -11 17
-33 -10 -41 -53 -100 -88 -121 -40 -25 -50 -25 -43 -2 4 10 2 40 -3 67 -9 47
-5 79 8 71 3 -2 17 2 31 10 28 15 44 17 78 8z"/>
<path d="M3035 5683 c-24 -8 -49 -22 -55 -33 -6 -11 -17 -20 -25 -20 -34 0
-124 -151 -154 -259 -11 -41 -22 -75 -24 -77 -2 -2 -17 9 -33 25 -16 15 -45
36 -64 46 -44 24 -137 26 -150 5 -5 -8 -10 -11 -10 -6 0 17 -61 -48 -80 -84
-56 -110 -49 -300 16 -420 79 -145 242 -237 400 -226 74 5 134 22 134 38 0 5
4 7 9 4 14 -9 102 65 148 125 49 64 95 148 87 160 -3 5 -1 9 5 9 16 0 58 146
71 250 16 125 -3 310 -33 310 -6 0 -8 3 -4 6 8 8 -17 57 -46 90 -31 36 -85 67
-103 60 -8 -3 -12 -2 -9 4 7 12 -24 9 -80 -7z m130 -69 c15 -10 31 -28 36 -41
5 -15 14 -21 21 -17 6 4 9 3 6 -2 -3 -5 2 -40 13 -79 47 -180 -8 -470 -116
-611 -14 -18 -25 -36 -25 -40 0 -4 -15 -21 -32 -37 -18 -17 -26 -26 -18 -22 9
5 12 4 7 -1 -5 -5 -12 -9 -15 -10 -22 -2 -80 -39 -75 -47 3 -6 1 -7 -5 -3 -6
3 -23 1 -39 -5 -47 -19 -150 -10 -227 19 -89 35 -155 97 -199 189 -29 62 -32
77 -34 176 -1 120 10 164 58 216 33 37 77 41 136 14 44 -21 51 -28 102 -105
21 -31 40 -55 43 -53 2 2 4 -4 5 -13 0 -9 10 -44 22 -76 12 -33 25 -81 28
-108 3 -26 11 -56 18 -65 11 -15 15 -15 30 -3 14 11 16 24 10 68 -4 29 -15 78
-25 108 -19 53 -19 54 1 64 11 6 17 15 14 21 -4 5 -11 6 -17 3 -7 -4 -8 -2 -4
4 4 6 -2 20 -13 31 -49 49 -31 184 39 302 78 131 173 177 255 123z"/>
<path d="M3802 4944 c-26 -12 -61 -51 -67 -75 -4 -17 0 -33 15 -52 l21 -27
-45 -32 c-25 -17 -46 -35 -46 -40 0 -4 -6 -8 -14 -8 -14 0 -273 -250 -312
-300 -47 -63 -84 -119 -84 -129 0 -6 -4 -11 -9 -11 -10 0 -54 -96 -71 -157
-16 -51 -8 -85 28 -118 39 -36 58 -39 104 -15 l41 21 -7 -38 c-30 -178 -40
-585 -19 -708 36 -201 72 -283 165 -375 51 -52 121 -97 141 -92 4 1 7 -2 7 -7
0 -16 160 -52 244 -56 91 -4 207 11 218 28 4 6 10 8 14 5 9 -9 122 34 173 66
67 43 183 167 224 242 40 72 85 171 90 201 2 10 9 32 16 48 7 17 14 41 16 55
3 14 9 43 14 65 5 22 12 58 15 80 2 22 7 47 10 55 3 8 14 92 26 185 11 94 22
188 25 209 13 108 19 189 18 271 0 83 1 88 14 68 9 -13 22 -23 29 -23 8 0 14
-4 14 -9 0 -5 16 -15 35 -21 29 -10 39 -9 64 6 65 38 89 206 44 299 -19 37
-122 137 -134 129 -5 -3 -9 -1 -9 5 0 28 -242 112 -465 162 -22 5 -65 16 -95
24 -30 8 -74 19 -96 25 -29 7 -43 17 -47 31 -5 19 -11 20 -44 15 -51 -9 -74
-10 -168 -2 -44 3 -86 3 -93 0z m108 -64 c0 -4 -11 -12 -25 -18 -14 -6 -25
-16 -25 -22 0 -5 -3 -9 -7 -8 -5 0 -16 -2 -27 -7 -12 -5 -21 -3 -27 6 -18 28
-10 48 23 57 34 9 88 4 88 -8z m386 -75 c420 -105 540 -158 598 -265 45 -83
30 -240 -23 -240 -10 0 -24 7 -31 15 -7 8 -15 13 -19 11 -4 -3 -20 24 -36 59
-36 77 -64 97 -103 73 -15 -10 -58 -33 -96 -53 -62 -33 -74 -36 -125 -31 -74
7 -81 8 -81 16 0 4 -6 7 -12 7 -7 0 -21 4 -30 8 -12 5 -27 -2 -49 -24 -35 -36
-44 -38 -46 -12 -1 10 -8 35 -17 55 -27 66 -56 50 -197 -110 -20 -23 -41 -44
-47 -48 -13 -8 -43 4 -37 14 8 13 -24 88 -40 93 -7 3 -24 -1 -39 -8 -14 -8
-26 -12 -26 -9 0 2 -15 -3 -32 -13 -18 -9 -38 -18 -43 -19 -21 -3 -110 -47
-116 -56 -3 -5 -9 -9 -13 -9 -16 2 -23 -1 -51 -25 -19 -16 -36 -23 -50 -20
-11 4 -30 9 -41 12 -30 8 -77 -38 -98 -96 -12 -31 -30 -55 -61 -77 -49 -37
-67 -40 -85 -18 -34 41 48 221 165 364 28 34 231 231 255 248 11 8 17 19 14
25 -4 6 -3 8 3 5 6 -4 67 32 137 78 70 47 130 85 133 85 4 0 15 -8 26 -17 18
-17 20 -17 41 9 11 15 28 27 37 27 9 1 115 -24 235 -54z m-59 -526 c18 -7 29
-1 61 31 l38 39 53 -19 c67 -26 140 -21 211 15 l53 27 21 -21 c19 -20 21 -32
20 -149 -1 -108 -8 -187 -40 -442 -43 -349 -104 -563 -197 -694 -13 -18 -15
-26 -6 -21 7 5 -26 -32 -76 -82 -49 -51 -92 -91 -95 -91 -3 1 -36 -14 -74 -31
-38 -18 -79 -35 -90 -37 -101 -19 -138 -24 -195 -24 -128 1 -268 44 -350 110
-21 16 -41 26 -45 22 -4 -4 -6 -2 -5 3 2 6 -13 35 -33 66 -21 31 -40 68 -44
83 -3 14 -11 26 -17 26 -6 0 -8 3 -5 6 3 3 0 29 -8 57 -19 74 -34 240 -34 371
0 186 27 454 51 516 10 26 163 142 239 181 25 13 47 25 50 28 3 4 14 7 24 9
10 2 44 14 74 28 30 13 58 24 62 24 5 0 12 -15 15 -32 9 -40 42 -78 68 -78 25
0 109 68 101 81 -3 5 -1 8 4 7 5 -2 26 17 47 42 20 25 42 48 48 52 7 4 19 -14
31 -44 13 -32 29 -54 43 -59z"/>
<path d="M4266 4235 c-8 -9 -18 -15 -21 -15 -9 1 -45 -46 -45 -59 0 -7 -7 -23
-16 -36 -9 -14 -13 -25 -9 -25 4 0 3 -6 -3 -13 -32 -38 -53 -302 -31 -377 22
-71 106 -133 164 -120 6 1 15 3 22 4 17 3 103 76 103 88 0 6 11 23 25 40 14
16 28 42 31 56 4 15 11 32 16 38 24 32 60 166 65 245 5 71 3 88 -11 102 -10 9
-21 17 -26 17 -25 0 -109 -93 -114 -126 -1 -9 -7 -19 -13 -22 -6 -4 -19 -25
-31 -47 l-20 -40 2 128 1 129 -28 24 c-33 28 -40 29 -61 9z m36 -125 c-4 -99
-10 -149 -27 -215 -8 -33 -17 -69 -19 -80 -2 -11 -9 -33 -15 -48 -6 -16 -11
-42 -11 -58 0 -35 -16 -30 -32 9 -10 27 -12 164 -3 236 14 104 66 229 95 224
12 -3 14 -16 12 -68z m214 -47 c-3 -16 -8 -45 -12 -67 -10 -58 -50 -162 -89
-230 -56 -101 -104 -139 -142 -117 -16 9 -16 10 -1 11 18 0 37 42 21 47 -6 2
-4 25 5 59 12 43 19 54 33 51 23 -6 42 7 44 30 2 39 118 243 137 243 5 0 7
-12 4 -27z"/>
<path d="M3961 4163 c-6 -16 -27 -55 -46 -88 -54 -94 -95 -175 -88 -175 3 0
-1 -8 -9 -17 -9 -10 -19 -28 -22 -40 -7 -23 -26 -32 -26 -12 0 5 -5 7 -12 3
-6 -4 -8 -3 -5 3 10 15 -67 108 -103 125 -36 17 -72 13 -94 -11 -21 -23 -31
-118 -16 -156 14 -37 58 -104 85 -128 67 -59 162 -79 224 -48 40 21 81 75 84
111 1 11 4 20 8 20 4 0 13 25 20 56 8 36 21 62 36 74 26 20 30 55 8 68 -14 7
-14 19 0 109 8 56 12 109 9 117 -10 26 -41 19 -53 -11z m-33 -243 c-6 -23 -22
-50 -37 -61 -32 -26 -38 -12 -13 32 10 19 24 44 31 57 18 35 30 17 19 -28z
m-283 -8 c-2 -2 14 -26 35 -53 22 -27 49 -67 61 -89 21 -37 59 -56 59 -30 0 6
6 10 13 10 6 0 25 7 41 15 15 8 32 12 37 9 11 -7 -25 -71 -53 -96 -24 -22 -77
-23 -121 -4 -28 12 -100 72 -104 86 -1 3 -6 18 -12 33 -12 31 -15 110 -5 120
4 4 17 6 30 5 13 -1 21 -4 19 -6z"/>
<path d="M1890 4703 c-183 -11 -504 -45 -553 -58 -95 -25 -164 -64 -235 -135
-68 -68 -140 -160 -125 -160 4 0 3 -4 -3 -8 -19 -13 -75 -102 -77 -122 -1 -10
-4 -17 -8 -15 -9 6 -149 -272 -193 -384 -61 -154 -103 -335 -121 -526 -21
-214 -21 -517 -2 -630 3 -16 24 -88 47 -160 23 -71 46 -152 52 -180 10 -49 32
-85 51 -85 5 0 58 24 116 54 58 30 133 62 166 71 33 10 62 20 65 24 3 3 12 7
20 7 8 1 69 16 135 34 78 21 146 33 195 34 65 1 75 4 78 20 2 11 -6 28 -21 40
-13 11 -25 24 -26 29 0 4 -12 30 -26 57 -29 56 -85 219 -85 245 0 15 3 14 28
-3 171 -121 391 -178 642 -169 138 5 194 18 286 65 51 26 131 113 172 186 17
30 35 57 39 59 4 3 7 -32 5 -77 -4 -102 12 -197 36 -210 33 -20 44 -14 99 57
72 91 159 168 293 257 58 38 111 74 118 80 6 6 12 7 12 3 0 -4 7 3 16 15 14
21 14 28 -12 95 -16 40 -29 77 -30 82 -9 35 -14 60 -29 140 -9 50 -19 101 -21
115 -13 78 -38 197 -60 285 -28 115 -102 345 -115 359 -5 6 -9 18 -9 27 0 30
-98 212 -140 260 -38 45 -131 115 -161 121 -8 2 -16 5 -19 8 -12 13 -91 42
-165 60 -128 33 -267 43 -435 33z m297 -64 c166 -23 302 -73 389 -144 23 -19
44 -32 48 -30 3 3 4 2 2 -1 -3 -3 13 -32 34 -63 101 -147 205 -473 281 -871
45 -241 65 -320 81 -320 6 0 9 -3 5 -6 -3 -3 -2 -17 4 -30 8 -23 3 -28 -71
-75 -46 -29 -77 -56 -73 -62 3 -5 2 -7 -4 -4 -18 11 -170 -103 -156 -117 3 -3
0 -6 -8 -6 -8 0 -42 -30 -76 -67 -34 -37 -64 -65 -66 -63 -8 9 -10 382 -2 458
6 59 4 77 -9 97 -9 14 -21 24 -27 22 -6 -1 -13 7 -15 17 -1 11 -15 97 -30 192
-15 95 -30 171 -33 169 -3 -2 -6 11 -7 28 -1 52 -14 136 -35 225 -27 119 -26
128 21 152 25 13 40 27 40 39 0 20 -23 35 -35 23 -4 -4 -10 -7 -13 -7 -14 -1
-107 -28 -117 -35 -5 -3 -23 -7 -38 -8 -28 -2 -117 -24 -252 -62 -38 -11 -132
-36 -207 -56 -76 -21 -135 -41 -132 -45 3 -5 -1 -6 -9 -3 -12 4 -264 -61 -469
-122 -56 -16 -57 -16 -87 6 -44 31 -67 23 -64 -21 2 -29 -3 -39 -22 -49 -14
-7 -25 -17 -25 -20 0 -16 31 -32 47 -25 31 14 63 16 63 5 0 -6 5 -8 12 -4 6 4
9 3 5 -2 -3 -5 4 -50 14 -99 11 -50 20 -120 20 -156 0 -37 6 -91 15 -120 8
-30 15 -60 16 -66 1 -7 5 -13 10 -13 5 0 7 -4 4 -8 -3 -5 -1 -37 5 -73 5 -35
11 -84 14 -109 3 -25 8 -58 11 -74 5 -23 3 -28 -9 -23 -8 3 -23 -1 -34 -9 -17
-13 -16 -16 24 -53 37 -33 44 -47 59 -112 18 -80 66 -214 96 -267 24 -43 23
-52 -5 -52 -31 0 -189 -40 -203 -51 -6 -5 -13 -7 -16 -4 -18 18 -405 -135
-393 -155 3 -5 -3 -7 -12 -6 -12 2 -22 22 -34 67 -9 35 -33 112 -52 171 -61
180 -71 414 -32 767 32 285 76 435 201 684 35 70 61 127 57 127 -5 0 -3 4 3 8
10 6 30 39 90 147 9 17 30 47 46 68 16 20 27 37 24 37 -5 0 18 27 82 93 52 54
149 105 229 122 37 8 136 19 218 26 83 6 184 15 225 19 117 11 291 11 377 -1z
m182 -691 c17 -90 34 -174 37 -188 3 -14 7 -38 9 -55 7 -65 77 -501 82 -515
13 -32 0 -75 -54 -183 -18 -37 -30 -73 -27 -79 4 -7 3 -8 -4 -4 -7 4 -12 3
-12 -2 0 -23 -104 -113 -167 -143 l-68 -33 -195 -1 c-174 0 -205 3 -284 24
-50 13 -97 27 -105 32 -9 4 -50 24 -91 45 -41 20 -96 52 -122 71 -41 29 -48
41 -58 86 -16 77 -30 169 -30 195 l0 22 38 -24 c75 -47 157 -58 207 -27 33 19
101 134 90 151 -3 6 -2 10 3 10 11 0 60 143 69 202 12 73 7 132 -13 173 -36
72 -100 97 -167 65 -33 -16 -76 -50 -63 -50 3 0 -6 -12 -19 -26 -14 -15 -22
-30 -20 -35 3 -4 1 -10 -5 -14 -5 -3 -15 -26 -21 -50 -7 -27 -18 -45 -29 -48
-12 -3 -17 0 -14 8 5 13 -52 42 -63 31 -3 -3 -12 -1 -19 4 -6 6 -17 9 -24 8
-7 -2 -14 9 -15 24 -2 15 -10 53 -18 85 -9 32 -17 64 -19 72 -2 10 25 23 92
43 52 16 115 35 140 44 25 8 57 16 71 19 15 2 73 17 130 34 57 16 158 44 224
61 66 17 183 49 260 70 146 40 213 57 231 59 6 1 24 -68 43 -161z m-782 -224
c35 -10 56 -66 50 -138 -6 -91 -93 -334 -130 -365 -39 -32 -150 2 -212 66 -28
29 -52 94 -47 125 1 4 -2 28 -7 55 -6 29 -6 54 0 65 9 17 13 16 52 -9 56 -35
117 -89 145 -130 25 -37 46 -42 61 -16 7 14 2 27 -25 60 -19 23 -34 46 -34 51
0 5 -7 15 -14 22 -10 8 -12 18 -7 33 5 12 10 27 11 32 1 6 6 20 11 33 5 13 9
27 9 31 0 4 17 26 38 49 38 41 55 48 99 36z"/>
<path d="M2173 4001 c-43 -39 -74 -104 -78 -162 -3 -49 6 -66 35 -65 11 1 17
18 22 60 4 32 13 65 19 72 6 8 9 14 5 14 -3 0 4 11 16 25 48 55 68 18 67 -123
0 -118 -18 -220 -49 -287 -13 -27 -23 -52 -22 -55 0 -3 -11 -7 -24 -8 -108 -9
-252 233 -225 379 1 3 8 6 16 6 8 0 12 -4 9 -8 -7 -12 39 -99 49 -92 6 3 7 1
3 -5 -7 -12 50 -112 65 -112 5 0 8 -5 6 -12 -3 -17 34 -23 44 -7 8 14 -28 89
-43 89 -4 0 -7 3 -6 8 3 10 -78 162 -105 196 -19 23 -29 28 -49 23 -33 -9 -48
-50 -48 -132 0 -110 55 -230 147 -322 92 -92 162 -90 224 7 17 26 40 92 45
125 2 11 8 47 13 80 24 136 6 278 -41 318 -29 25 -59 21 -95 -12z"/>
</g>
</svg>
