<?xml version="1.0" standalone="no"?>
<!DOCTYPE svg PUBLIC "-//W3C//DTD SVG 20010904//EN"
 "http://www.w3.org/TR/2001/REC-SVG-20010904/DTD/svg10.dtd">
<svg version="1.0" xmlns="http://www.w3.org/2000/svg"
 width="625.000000pt" height="833.000000pt" viewBox="0 0 625.000000 833.000000"
 preserveAspectRatio="xMidYMid meet">

<g transform="translate(0.000000,833.000000) scale(0.100000,-0.100000)"
fill="#000000" stroke="none">
<path d="M3556 7784 c-9 -8 -16 -21 -16 -28 0 -20 41 -53 100 -80 60 -27 221
-76 251 -76 24 0 25 -29 2 -37 -10 -3 -67 -27 -128 -54 -60 -27 -115 -49 -121
-49 -6 0 -21 -11 -34 -25 -18 -20 -21 -28 -12 -37 9 -9 40 2 138 50 118 59
184 83 184 68 0 -4 -11 -62 -25 -128 -29 -140 -31 -195 -9 -226 22 -32 58 -28
103 14 49 43 75 115 69 184 -4 37 -16 63 -52 114 -26 36 -52 80 -58 96 -5 17
-13 30 -18 30 -4 0 -10 8 -13 19 -3 12 -18 21 -43 26 -64 11 -217 63 -252 85
-27 17 -32 24 -22 35 25 30 -16 48 -44 19z m445 -375 c33 -65 19 -142 -35
-199 -57 -62 -68 -16 -35 147 25 123 31 128 70 52z"/>
<path d="M4143 7734 c4 -33 28 -149 55 -259 28 -110 53 -218 56 -240 14 -86
18 -96 33 -93 10 2 22 29 33 75 40 156 122 307 193 352 38 25 49 51 22 51 -67
0 -157 -117 -220 -284 l-23 -61 -10 40 c-39 148 -76 303 -91 380 -14 71 -21
91 -36 94 -16 3 -17 -2 -12 -55z"/>
<path d="M3177 7591 c-7 -94 -68 -290 -104 -338 -27 -35 -77 -156 -91 -221 -7
-31 -6 -46 4 -59 13 -17 15 -17 29 1 8 11 33 67 56 125 22 58 45 118 50 133
14 35 34 41 74 22 49 -23 150 -126 186 -189 34 -61 46 -72 61 -57 35 35 -166
267 -253 293 -23 7 -38 17 -35 24 30 80 58 196 63 263 6 77 5 82 -14 82 -18 0
-21 -9 -26 -79z"/>
<path d="M3512 7658 c-5 -7 -20 -33 -33 -58 -22 -42 -24 -56 -24 -205 1 -132
5 -176 23 -250 24 -94 148 -465 160 -477 4 -4 13 -3 21 1 11 7 1 48 -57 218
-96 285 -107 336 -107 513 0 140 1 147 28 194 15 27 27 55 27 62 0 17 -24 18
-38 2z"/>
<path d="M2674 7563 c-75 -81 -81 -345 -12 -496 l31 -68 -45 -47 c-58 -60 -78
-91 -78 -119 0 -57 67 -7 125 92 15 25 32 45 37 45 6 0 21 12 35 26 33 36 63
29 88 -21 18 -35 20 -59 19 -205 0 -133 -5 -182 -22 -253 -26 -105 -26 -107
-7 -107 35 0 66 140 72 330 6 169 -5 245 -45 291 -23 28 -30 31 -68 26 l-43
-4 14 36 c45 114 60 318 30 419 -25 82 -83 107 -131 55z m86 -48 c23 -45 20
-281 -3 -357 -10 -32 -22 -60 -26 -63 -14 -8 -31 78 -31 150 0 40 8 90 21 127
14 43 17 64 10 71 -17 17 -32 -4 -58 -80 l-23 -68 6 75 c13 154 64 225 104
145z"/>
<path d="M979 7468 c-19 -35 -16 -155 4 -218 24 -73 239 -445 258 -445 8 0 14
9 14 21 1 11 22 47 48 80 155 195 176 405 51 500 -71 55 -192 40 -234 -28 -31
-51 -23 -193 10 -193 12 0 14 15 12 76 -4 68 -2 78 20 104 33 38 108 46 155
16 87 -55 101 -174 38 -316 -22 -50 -111 -175 -124 -175 -7 0 -165 271 -193
332 -29 63 -39 138 -28 197 5 29 7 57 4 62 -9 15 -23 10 -35 -13z"/>
<path d="M2283 7314 c-17 -45 18 -239 113 -631 49 -199 60 -233 76 -233 10 0
18 6 18 13 0 6 -25 113 -56 237 -72 293 -103 444 -111 547 -4 61 -10 83 -20
83 -7 0 -16 -7 -20 -16z"/>
<path d="M1920 7198 c-31 -51 -58 -128 -110 -318 -68 -248 -86 -338 -72 -352
17 -17 26 -3 57 92 15 47 37 102 48 123 18 31 26 37 55 37 28 0 45 -11 98 -62
35 -34 77 -81 92 -105 16 -25 33 -42 42 -40 37 7 -15 93 -109 180 -67 61 -116
82 -158 66 -14 -5 -27 -8 -28 -7 -7 8 79 281 106 335 28 59 31 83 8 83 -5 0
-18 -15 -29 -32z"/>
<path d="M4641 6970 c-42 -65 -138 -145 -219 -183 -53 -25 -72 -29 -122 -25
-75 5 -100 26 -100 80 0 21 7 52 15 67 12 25 12 31 0 41 -38 31 -74 -124 -40
-176 38 -59 160 -72 254 -29 136 64 286 210 267 261 -9 24 -21 16 -55 -36z"/>
<path d="M1425 6670 c-38 -10 -123 -37 -188 -59 -130 -45 -162 -49 -188 -25
-17 16 -39 12 -39 -6 0 -22 45 -50 80 -50 20 0 102 22 183 49 251 84 293 86
324 14 19 -46 20 -114 9 -413 -7 -180 -6 -241 3 -259 7 -12 17 -21 22 -19 8 3
24 384 23 573 -1 115 -25 178 -78 200 -45 19 -65 18 -151 -5z"/>
<path d="M4310 6038 c-14 -51 -7 -118 30 -309 46 -232 90 -349 115 -308 4 5
-3 37 -14 72 -55 166 -105 448 -94 535 5 44 3 52 -10 52 -11 0 -20 -15 -27
-42z"/>
<path d="M3905 5954 c-43 -22 -75 -55 -75 -76 0 -25 22 -23 49 6 31 32 75 50
107 42 40 -10 62 -75 78 -225 14 -136 18 -151 42 -151 17 0 17 -15 -1 152 -17
158 -41 230 -86 253 -36 19 -76 19 -114 -1z"/>
<path d="M2701 5874 c-36 -46 -44 -98 -38 -264 11 -330 121 -682 205 -656 21
7 52 71 52 107 0 33 -32 18 -45 -21 -6 -19 -16 -35 -21 -35 -5 0 -21 25 -36
55 -64 129 -118 400 -118 589 0 128 10 179 40 206 11 10 20 24 20 32 0 22 -37
14 -59 -13z"/>
<path d="M3260 5827 c0 -51 31 -132 109 -285 74 -142 81 -166 56 -176 -8 -3
-15 -15 -15 -26 0 -14 7 -20 24 -20 13 0 26 -7 30 -15 3 -8 17 -15 31 -15 23
0 26 4 23 29 -3 25 5 34 69 77 103 70 202 156 202 177 1 29 -23 19 -84 -34
-65 -57 -148 -119 -184 -138 -35 -19 -43 1 -36 84 10 122 33 184 87 236 26 25
48 51 48 58 0 25 -40 9 -83 -33 -35 -34 -50 -59 -66 -111 -12 -37 -21 -80 -21
-95 0 -16 -4 -31 -8 -34 -11 -7 -128 237 -137 284 -11 59 -16 70 -31 70 -9 0
-14 -11 -14 -33z"/>
<path d="M5287 5673 c-18 -17 -3 -32 44 -42 50 -11 69 -8 69 9 0 19 -98 48
-113 33z"/>
<path d="M5190 5655 c-10 -12 -10 -18 0 -30 15 -18 30 -11 30 15 0 26 -15 33
-30 15z"/>
<path d="M3033 5629 c-39 -12 -51 -28 -31 -43 10 -8 14 -21 11 -38 -15 -80 95
-105 167 -38 39 37 41 82 4 106 -30 20 -107 27 -151 13z m111 -39 c14 -5 26
-16 26 -23 0 -24 -38 -50 -77 -51 -36 -1 -38 1 -36 28 1 16 5 36 7 43 6 15 44
17 80 3z"/>
<path d="M4947 5593 c-48 -3 -58 -7 -55 -21 6 -33 163 -25 163 9 0 15 -19 18
-108 12z"/>
<path d="M4638 5569 c-39 -22 -6 -89 43 -89 30 0 31 30 2 41 -19 7 -23 13 -15
21 10 10 6 38 -7 38 -3 0 -14 -5 -23 -11z"/>
<path d="M2160 5533 c-25 -9 -50 -17 -57 -19 -7 -2 -25 -27 -40 -56 -22 -43
-27 -66 -28 -125 0 -66 3 -75 27 -100 22 -22 39 -27 88 -31 80 -6 136 16 189
73 96 104 71 233 -53 264 -56 14 -70 13 -126 -6z m121 -34 c75 -26 96 -78 60
-153 -31 -62 -87 -99 -161 -104 -53 -4 -61 -2 -86 23 -24 24 -26 32 -21 80 3
29 13 67 22 84 l16 32 19 -23 c19 -24 24 -20 32 27 3 20 41 45 69 45 9 0 31
-5 50 -11z"/>
<path d="M3552 4488 c-20 -20 -15 -58 8 -58 12 0 20 7 20 16 0 26 62 11 165
-40 131 -65 291 -211 461 -421 95 -117 288 -423 364 -576 l31 -64 -38 45
c-343 404 -668 715 -865 828 -111 63 -179 84 -286 90 -91 4 -95 4 -166 -32
-137 -67 -184 -179 -125 -298 l19 -37 -65 31 c-87 40 -128 45 -192 20 -46 -18
-60 -19 -126 -9 -73 10 -74 11 -96 53 -55 103 -135 130 -231 78 -58 -31 -165
-140 -214 -217 -159 -249 -278 -635 -336 -1090 -60 -480 -23 -813 124 -1105
l34 -67 -25 -35 c-20 -29 -23 -43 -19 -79 8 -56 22 -73 58 -69 29 3 30 0 67
-97 58 -152 126 -273 213 -378 21 -26 35 -47 30 -47 -24 0 -81 52 -121 109
-44 63 -44 63 -85 58 -71 -10 -144 -37 -175 -63 -60 -50 -51 -127 30 -269 27
-47 49 -96 49 -109 0 -26 -28 -56 -53 -56 -20 0 -87 122 -117 213 -24 76 -47
97 -101 97 -73 0 -106 -87 -95 -252 3 -54 7 -104 9 -111 1 -8 -17 -13 -59 -15
-56 -3 -64 -1 -82 23 -31 39 -45 126 -39 230 9 137 29 186 113 275 78 82 89
99 110 169 10 33 37 75 89 136 41 48 75 91 75 96 0 26 -32 17 -62 -17 -91
-104 -127 -156 -143 -210 -13 -46 -30 -71 -91 -135 -41 -43 -83 -98 -94 -124
-46 -108 -53 -315 -12 -407 28 -65 59 -82 143 -81 53 1 69 -2 69 -13 0 -8 9
-14 20 -14 25 0 27 40 4 137 -30 129 -4 273 50 273 31 0 39 -12 65 -90 22 -67
93 -199 114 -212 26 -17 69 -8 98 21 44 44 40 85 -20 190 -89 154 -90 215 -7
245 41 15 115 36 127 36 4 0 21 -22 39 -50 40 -62 76 -93 136 -116 44 -17 47
-17 59 -1 10 14 18 16 40 7 19 -7 31 -7 40 0 10 8 22 7 44 -4 16 -9 49 -16 71
-16 34 0 41 3 38 18 -2 11 -16 19 -43 23 -72 10 -165 68 -165 103 0 12 -11 44
-25 71 -13 27 -22 52 -19 57 7 11 59 3 148 -24 67 -19 71 -19 83 -2 8 11 13
46 13 86 0 68 -1 69 -44 113 -36 35 -59 48 -118 65 -40 12 -109 34 -153 49
l-80 28 -3 43 c-4 56 19 212 74 500 25 129 69 370 99 535 153 849 257 1199
400 1344 l34 34 55 -16 c62 -17 99 -13 94 12 -2 10 -16 17 -38 19 -49 5 -59
19 -19 27 39 7 100 -12 167 -51 l44 -26 -34 -20 c-79 -48 -138 -128 -138 -188
0 -36 19 -77 50 -105 17 -16 23 -17 30 -5 5 9 0 26 -16 49 -28 41 -30 70 -9
110 23 45 102 108 162 131 l56 21 23 -22 c30 -28 60 -20 43 12 -11 22 -11 22
58 16 154 -13 253 -68 419 -232 185 -183 305 -356 454 -654 77 -153 170 -369
230 -530 29 -80 29 -82 16 -149 -8 -37 -24 -122 -36 -189 -15 -87 -30 -138
-52 -178 -16 -30 -31 -55 -32 -55 -2 0 -17 22 -34 50 -29 46 -62 67 -62 38 0
-7 -15 3 -34 21 -33 32 -56 35 -56 7 0 -17 80 -92 107 -100 11 -3 29 -19 40
-34 l21 -28 -39 -99 c-36 -90 -46 -106 -106 -163 -71 -68 -212 -166 -302 -212
-246 -124 -706 -185 -936 -125 -168 44 -396 206 -497 353 -76 111 -111 253
-83 336 12 34 13 52 6 59 -17 17 -38 -9 -51 -63 -18 -75 1 -176 52 -280 74
-151 271 -325 461 -408 114 -50 222 -66 392 -59 372 16 644 104 885 286 l105
79 5 -50 c3 -27 12 -54 20 -59 22 -15 99 -4 129 18 41 31 84 109 87 156 l2 42
46 3 c41 3 50 0 76 -28 71 -76 87 -167 50 -295 -27 -93 -26 -139 2 -165 35
-32 72 -26 118 20 93 93 102 122 86 291 -9 86 -3 143 13 137 5 -2 28 -39 51
-82 40 -76 42 -85 49 -202 6 -86 14 -133 27 -160 33 -67 82 -55 127 31 24 45
29 162 13 290 l-8 70 56 -55 c40 -38 68 -78 92 -130 20 -41 43 -91 52 -110 23
-48 60 -52 95 -10 36 42 49 99 45 189 l-3 76 28 3 c47 6 55 41 23 106 -55 113
-180 188 -384 230 -67 14 -124 26 -127 26 -16 0 -32 133 -51 430 -7 118 -16
150 -40 150 -13 0 -15 -7 -11 -37 3 -21 11 -114 17 -208 13 -205 26 -309 43
-344 11 -23 25 -28 147 -54 163 -34 246 -71 315 -141 58 -57 86 -116 57 -116
-10 0 -28 -7 -41 -16 -22 -16 -23 -20 -16 -105 6 -79 5 -93 -15 -134 -25 -52
-36 -56 -51 -17 -49 122 -92 191 -153 250 -99 96 -127 80 -110 -62 5 -39 9
-107 9 -151 0 -66 -4 -87 -24 -122 -14 -24 -28 -43 -33 -43 -18 0 -31 59 -38
175 -8 117 -10 122 -57 215 -41 79 -53 96 -75 98 -18 2 -32 -5 -48 -25 -21
-27 -22 -33 -15 -143 4 -63 7 -128 7 -144 -1 -31 -69 -129 -103 -146 -52 -28
-61 12 -29 125 28 99 27 188 -5 251 -61 123 -144 156 -252 101 -65 -34 -94
-107 -58 -147 14 -15 13 -19 -4 -34 -27 -25 -84 -27 -89 -4 -8 40 20 126 57
175 20 28 43 64 50 82 9 21 20 31 35 31 25 0 46 17 46 37 0 7 -9 13 -21 13
-13 0 -19 5 -16 12 2 7 10 39 18 71 11 53 19 64 71 110 42 36 55 54 48 61 -8
8 -22 4 -50 -12 -47 -27 -46 -34 -17 118 l22 115 39 -83 c43 -91 55 -105 76
-92 11 7 8 19 -18 68 -18 33 -43 89 -56 124 l-24 63 24 84 c24 82 74 211 94
241 11 17 7 22 77 -83 59 -88 90 -164 104 -252 6 -33 15 -64 20 -70 17 -17 30
17 23 60 -16 115 -67 231 -149 340 -29 38 -44 66 -40 78 3 9 8 26 11 37 8 25
-23 28 -40 4 -13 -17 -9 -22 -362 396 -535 632 -730 803 -934 818 -115 8 -188
-35 -161 -94 6 -14 11 -28 11 -31 0 -13 -33 24 -57 64 -21 36 -25 53 -21 98 6
72 40 115 123 156 61 30 70 31 147 27 179 -11 339 -105 615 -364 111 -104 325
-332 477 -509 93 -109 150 -215 141 -262 -5 -28 -3 -33 14 -33 11 0 24 8 30
17 7 14 12 7 25 -35 22 -74 36 -154 44 -247 6 -65 10 -80 25 -83 15 -3 17 5
17 56 0 80 -25 217 -57 315 -57 171 -279 578 -431 790 -167 234 -389 450 -538
526 -116 59 -195 76 -222 49z m-975 -412 c15 -13 36 -37 45 -54 l18 -29 -52
-6 c-206 -25 -357 -258 -472 -730 -97 -393 -149 -909 -126 -1247 6 -91 13
-176 16 -190 10 -49 -15 5 -45 97 -51 155 -65 264 -64 498 1 461 103 953 269
1303 62 131 118 214 201 293 95 93 155 111 210 65z m916 -104 c175 -86 349
-260 829 -827 103 -121 215 -253 249 -293 l63 -74 -17 -41 c-9 -23 -32 -85
-52 -137 -20 -52 -39 -103 -43 -113 -6 -14 -19 11 -51 95 -199 513 -426 891
-683 1134 -159 151 -294 213 -459 214 -60 0 -67 2 -77 25 -10 21 -8 27 11 40
37 27 152 15 230 -23z m-741 -28 l37 -7 -35 -41 c-46 -53 -125 -214 -164 -336
-73 -224 -138 -518 -234 -1055 -30 -170 -73 -402 -95 -515 -39 -200 -68 -385
-73 -465 l-3 -40 -47 70 c-46 69 -46 70 -27 91 10 11 19 26 19 32 0 15 -23 15
-38 0 -6 -6 -14 -9 -16 -7 -12 12 -37 210 -45 351 -19 341 26 800 115 1187 96
415 231 669 384 721 56 20 152 25 222 14z m1669 -2361 l-20 -38 -1 29 c0 16 8
38 17 48 25 28 27 6 4 -39z m-2359 -57 c2 -16 -2 -31 -9 -33 -13 -5 -28 51
-18 68 10 16 23 -1 27 -35z m121 -147 c12 -86 4 -90 -26 -11 -33 89 -34 99 -4
80 16 -11 24 -30 30 -69z m102 27 c18 -8 77 -27 131 -42 77 -22 105 -35 135
-64 36 -34 39 -41 39 -90 0 -49 -1 -52 -22 -46 -13 3 -26 6 -30 6 -5 0 -8 11
-8 24 0 33 -18 43 -35 20 -11 -15 -17 -16 -38 -7 -46 21 -237 213 -212 213 3
0 21 -6 40 -14z m51 -155 l56 -51 -26 -10 c-39 -14 -41 -34 -12 -86 15 -26 24
-49 22 -51 -5 -5 -67 72 -93 117 -24 40 -53 132 -53 168 0 23 0 23 25 -6 14
-17 50 -53 81 -81z"/>
<path d="M3709 3132 c-91 -47 -159 -159 -159 -259 0 -41 25 -83 49 -83 5 0 11
-11 15 -23 10 -40 45 -76 86 -88 94 -28 202 44 247 166 53 144 40 220 -45 257
-26 12 -58 29 -71 39 -33 26 -60 24 -122 -9z m-29 -111 c-11 -21 -30 -37 -30
-25 0 8 30 44 37 44 2 0 -1 -9 -7 -19z m130 -30 c0 -5 -17 -24 -37 -42 l-38
-33 -3 24 c-3 16 4 30 18 42 23 19 60 24 60 9z m100 -85 c0 -17 -14 -34 -48
-60 -55 -40 -166 -76 -183 -59 -8 8 4 14 43 22 65 14 104 36 143 84 36 42 45
45 45 13z m-300 -6 c0 -5 -4 -10 -10 -10 -5 0 -10 5 -10 10 0 6 5 10 10 10 6
0 10 -4 10 -10z m65 -50 c3 -5 1 -10 -4 -10 -6 0 -11 5 -11 10 0 6 2 10 4 10
3 0 8 -4 11 -10z m173 -85 c-47 -44 -102 -61 -143 -45 -30 12 -30 12 31 25 34
7 79 22 100 34 53 28 55 26 12 -14z"/>
<path d="M2676 2985 c-70 -25 -136 -105 -136 -167 0 -13 -9 -34 -20 -48 -25
-32 -25 -71 0 -103 30 -38 80 -51 164 -43 81 8 92 8 162 0 50 -6 53 -4 98 37
54 50 70 90 56 138 -24 84 -102 159 -193 186 -61 18 -81 18 -131 0z m42 -105
c-12 -17 -34 -33 -48 -36 -14 -3 -37 -10 -52 -14 -23 -7 -28 -6 -28 8 0 9 4
23 9 30 10 17 77 41 114 42 l28 0 -23 -30z m130 -25 c-3 -3 -13 7 -23 22 l-17
28 23 -22 c12 -12 20 -25 17 -28z m-28 -60 c0 -8 -4 -15 -9 -15 -5 0 -23 -3
-40 -6 -27 -6 -31 -4 -31 15 0 18 6 21 40 21 29 0 40 -4 40 -15z m-120 -15 c0
-11 -7 -20 -15 -20 -17 0 -18 2 -9 24 9 23 24 20 24 -4z m-70 0 c0 -5 -4 -10
-10 -10 -5 0 -10 5 -10 10 0 6 5 10 10 10 6 0 10 -4 10 -10z m-47 -56 c11 -14
34 -35 51 -46 l31 -20 -44 5 c-53 7 -86 35 -76 66 8 27 13 27 38 -5z m265 14
c-2 -6 -16 -21 -31 -31 -22 -17 -29 -18 -42 -7 -23 19 -18 27 23 38 51 14 54
14 50 0z"/>
<path d="M3907 2273 c-47 -7 -412 -197 -530 -276 -153 -103 -177 -125 -183
-167 -3 -19 -12 -40 -21 -47 -29 -22 -8 -43 45 -43 75 0 316 64 400 107 168
84 367 275 387 370 6 30 4 33 -31 48 -20 8 -37 14 -38 14 0 -1 -13 -4 -29 -6z
m-72 -102 c-6 -5 -73 -50 -149 -100 -164 -107 -343 -201 -383 -201 l-28 1 29
23 c48 40 416 249 470 268 58 20 75 22 61 9z m-130 -200 c-36 -35 -260 -142
-322 -154 -55 -11 -37 0 45 27 42 15 122 51 177 80 107 58 114 61 100 47z"/>
<path d="M4077 2093 c-13 -12 -7 -78 8 -100 15 -21 58 -35 82 -26 24 9 14 30
-19 39 -30 9 -33 14 -36 52 -3 39 -17 53 -35 35z"/>
<path d="M4486 1821 c-7 -11 11 -26 42 -35 12 -4 20 -11 18 -15 -9 -13 12 -34
28 -28 28 11 20 55 -14 72 -32 17 -66 20 -74 6z"/>
<path d="M4485 1560 c-11 -18 15 -40 46 -40 22 0 29 5 29 20 0 13 -7 20 -19
20 -11 0 -26 3 -34 6 -8 3 -18 0 -22 -6z"/>
</g>
</svg>
