<?xml version="1.0" standalone="no"?>
<!DOCTYPE svg PUBLIC "-//W3C//DTD SVG 20010904//EN"
 "http://www.w3.org/TR/2001/REC-SVG-20010904/DTD/svg10.dtd">
<svg version="1.0" xmlns="http://www.w3.org/2000/svg"
 width="225.000000pt" height="225.000000pt" viewBox="0 0 225.000000 225.000000"
 preserveAspectRatio="xMidYMid meet">

<g transform="translate(0.000000,225.000000) scale(0.100000,-0.100000)"
fill="#000000" stroke="none">
<path d="M683 2148 c-13 -16 -123 -197 -123 -203 0 -8 108 -65 124 -65 18 0
276 112 276 120 0 4 -239 149 -260 158 -4 1 -12 -3 -17 -10z"/>
<path d="M962 1848 c-151 -69 -149 -62 -39 -122 l53 -28 134 60 c74 34 135 64
134 69 -1 9 -124 83 -139 83 -5 0 -70 -28 -143 -62z"/>
<path d="M1380 1732 c-8 -3 -71 -32 -140 -64 l-124 -59 59 -36 c81 -49 105
-47 249 22 l119 57 -29 19 c-53 37 -119 66 -134 61z"/>
<path d="M1546 1500 c-70 -32 -130 -61 -132 -63 -9 -9 121 -80 145 -79 24 1
245 95 264 112 9 8 -120 90 -139 90 -5 0 -67 -27 -138 -60z"/>
<path d="M365 1410 c-4 -6 -24 -116 -45 -243 -97 -587 -131 -810 -123 -817 4
-4 85 -19 178 -34 94 -15 444 -73 778 -128 335 -55 610 -98 611 -96 1 1 41
237 88 523 l86 520 61 100 c33 54 61 102 61 105 0 3 -19 15 -43 27 l-43 21
-135 -60 c-74 -33 -136 -62 -138 -64 -2 -2 20 -18 48 -35 28 -18 51 -34 51
-37 0 -2 -27 -2 -60 2 -34 4 -60 3 -60 -2 0 -5 27 -65 59 -133 60 -124 60
-124 35 -127 -13 -2 -48 2 -78 8 l-53 11 -68 139 -69 139 -80 14 c-45 9 -82
14 -84 13 -1 -2 25 -62 59 -135 34 -72 60 -134 57 -136 -3 -3 -38 0 -78 6
l-73 12 -64 134 c-55 116 -68 136 -96 147 -34 14 -137 30 -137 22 0 -6 24 -59
84 -190 l37 -79 -65 7 c-36 4 -73 9 -81 12 -9 4 -45 67 -80 140 -45 94 -71
137 -87 144 -23 10 -141 30 -146 25 -1 -1 25 -62 59 -134 34 -73 59 -134 56
-137 -2 -3 -34 0 -71 7 -80 13 -88 22 -146 156 -46 107 -84 153 -128 153 -15
0 -37 3 -48 6 -12 3 -25 1 -29 -6z m735 -471 c371 -61 676 -112 678 -114 1 -1
0 -21 -4 -44 -5 -33 -11 -41 -28 -41 -27 0 -1255 200 -1323 215 -19 4 -23 12
-23 44 0 35 6 51 19 51 3 0 310 -50 681 -111z m50 -549 c272 -44 506 -84 519
-87 21 -5 23 -10 18 -45 -3 -22 -8 -42 -11 -45 -4 -5 -975 151 -1308 209 -51
9 -58 13 -58 33 0 13 4 34 9 47 l9 24 164 -27 c89 -15 386 -64 658 -109z"/>
</g>
</svg>
